G04 #@! TF.GenerationSoftware,KiCad,Pcbnew,(5.1.4)-1*
G04 #@! TF.CreationDate,2020-10-21T23:09:18-03:00*
G04 #@! TF.ProjectId,2020 - Equisdecito,32303230-202d-4204-9571-756973646563,rev?*
G04 #@! TF.SameCoordinates,Original*
G04 #@! TF.FileFunction,Copper,L1,Top*
G04 #@! TF.FilePolarity,Positive*
%FSLAX46Y46*%
G04 Gerber Fmt 4.6, Leading zero omitted, Abs format (unit mm)*
G04 Created by KiCad (PCBNEW (5.1.4)-1) date 2020-10-21 23:09:18*
%MOMM*%
%LPD*%
G04 APERTURE LIST*
%ADD10O,1.524000X2.197100*%
%ADD11O,1.524000X2.199640*%
%ADD12C,2.000000*%
%ADD13R,1.524000X2.199640*%
%ADD14O,2.200000X1.750000*%
%ADD15R,2.200000X1.750000*%
%ADD16C,2.500000*%
%ADD17O,2.199640X1.524000*%
%ADD18R,2.199640X1.524000*%
%ADD19O,2.000000X2.000000*%
%ADD20R,2.000000X2.000000*%
%ADD21C,3.000000*%
%ADD22R,1.524000X1.524000*%
%ADD23C,1.524000*%
%ADD24C,1.501140*%
%ADD25R,1.803400X1.600200*%
%ADD26R,2.400000X1.000000*%
%ADD27R,2.400000X3.800000*%
%ADD28R,1.500000X1.700000*%
%ADD29R,0.850900X0.850900*%
%ADD30R,0.599440X1.000760*%
%ADD31C,1.270000*%
%ADD32C,1.000000*%
%ADD33C,0.254000*%
%ADD34C,0.635000*%
%ADD35C,0.762000*%
G04 APERTURE END LIST*
D10*
X149780000Y-104620000D03*
X147240000Y-104620000D03*
X144700000Y-104620000D03*
X142160000Y-104620000D03*
X139620000Y-104620000D03*
X137080000Y-104620000D03*
X134540000Y-104620000D03*
X132000000Y-104620000D03*
X129460000Y-104620000D03*
X126920000Y-104620000D03*
X124380000Y-104620000D03*
D11*
X121840000Y-104620000D03*
X119300000Y-104620000D03*
X116760000Y-104620000D03*
X114220000Y-104620000D03*
X114220000Y-89380000D03*
X116760000Y-89380000D03*
X119300000Y-89380000D03*
X121840000Y-89380000D03*
X124380000Y-89380000D03*
X126920000Y-89380000D03*
X129460000Y-89380000D03*
X132000000Y-89380000D03*
X134540000Y-89380000D03*
X137080000Y-89380000D03*
X139620000Y-89380000D03*
X142160000Y-89380000D03*
X144700000Y-89380000D03*
X147240000Y-89380000D03*
X149780000Y-89380000D03*
D12*
X120550000Y-97000000D03*
X112950000Y-97000000D03*
D11*
X159960000Y-79330000D03*
X157420000Y-79330000D03*
X154880000Y-79330000D03*
X152340000Y-79330000D03*
X149800000Y-79330000D03*
D13*
X147260000Y-79330000D03*
D14*
X159990000Y-94652000D03*
X159990000Y-92112000D03*
X159990000Y-89572000D03*
D15*
X159990000Y-87032000D03*
D14*
X157450000Y-94652000D03*
X157450000Y-92112000D03*
X157450000Y-89572000D03*
D15*
X157450000Y-87032000D03*
D16*
X166878000Y-87228000D03*
X166878000Y-92308000D03*
D17*
X147040000Y-85190000D03*
D18*
X147040000Y-82650000D03*
D19*
X118872000Y-107960000D03*
X118872000Y-110500000D03*
D20*
X118872000Y-113040000D03*
D21*
X166000000Y-111000000D03*
X166000000Y-79000000D03*
D22*
X158960000Y-101460000D03*
D23*
X158960000Y-99460000D03*
D21*
X114000000Y-79000000D03*
D20*
X128960000Y-78200000D03*
D19*
X131500000Y-78200000D03*
X134040000Y-78200000D03*
D24*
X140716000Y-99568000D03*
X140716000Y-94488000D03*
D11*
X127880000Y-109000000D03*
X130420000Y-109000000D03*
X132960000Y-109000000D03*
X135500000Y-109000000D03*
D13*
X138040000Y-109000000D03*
X138080000Y-112500000D03*
D11*
X135540000Y-112500000D03*
X133000000Y-112500000D03*
X130460000Y-112500000D03*
X127920000Y-112500000D03*
D16*
X166878000Y-102468000D03*
X166878000Y-97388000D03*
D25*
X135280000Y-98967000D03*
X135280000Y-96173000D03*
D26*
X145200000Y-94700000D03*
X145200000Y-97000000D03*
X145200000Y-99300000D03*
D27*
X151650000Y-97000000D03*
D21*
X114000000Y-111000000D03*
D19*
X123952000Y-107960000D03*
X123952000Y-110500000D03*
D20*
X123952000Y-113040000D03*
X141700000Y-113040000D03*
D19*
X141700000Y-110500000D03*
X141700000Y-107960000D03*
X144700000Y-107960000D03*
X144700000Y-110500000D03*
D20*
X144700000Y-113040000D03*
X157460000Y-82590000D03*
D19*
X160000000Y-82590000D03*
X162540000Y-82590000D03*
D20*
X121412000Y-113040000D03*
D19*
X121412000Y-110500000D03*
X121412000Y-107960000D03*
D20*
X143600000Y-76760000D03*
D19*
X143600000Y-79300000D03*
X143600000Y-81840000D03*
X140600000Y-81840000D03*
X140600000Y-79300000D03*
D20*
X140600000Y-76760000D03*
X137600000Y-76760000D03*
D19*
X137600000Y-79300000D03*
X137600000Y-81840000D03*
X125330000Y-78150000D03*
X122790000Y-78150000D03*
D20*
X120250000Y-78150000D03*
D28*
X138176000Y-95582000D03*
X138176000Y-98982000D03*
D29*
X130253860Y-99880000D03*
X126906140Y-99880000D03*
D30*
X127422500Y-94593360D03*
X126470000Y-96706640D03*
X125517500Y-94593360D03*
D25*
X114220000Y-86747000D03*
X114220000Y-83953000D03*
D31*
X137000000Y-101750016D03*
D32*
X139498800Y-89258800D02*
X139620000Y-89380000D01*
X147200000Y-85350000D02*
X147040000Y-85190000D01*
X135280000Y-96173000D02*
X135280000Y-94950000D01*
X139620000Y-90610000D02*
X139620000Y-89380000D01*
X135280000Y-94950000D02*
X139620000Y-90610000D01*
X136999984Y-101750000D02*
X137000000Y-101750016D01*
X130250000Y-101750000D02*
X136999984Y-101750000D01*
X149780000Y-102540000D02*
X149780000Y-104620000D01*
X145200000Y-99300000D02*
X146540000Y-99300000D01*
X146540000Y-99300000D02*
X149780000Y-102540000D01*
X130253860Y-101746140D02*
X130250000Y-101750000D01*
X130253860Y-99880000D02*
X130253860Y-101746140D01*
X130253860Y-101746140D02*
X114936140Y-101746140D01*
X112950000Y-99760000D02*
X112950000Y-97000000D01*
X114936140Y-101746140D02*
X112950000Y-99760000D01*
X138040000Y-106900180D02*
X138040000Y-109000000D01*
X151650000Y-97000000D02*
X145200000Y-97000000D01*
X145200000Y-97000000D02*
X143000000Y-97000000D01*
X152150760Y-97500760D02*
X151650000Y-97000000D01*
X137600000Y-79260000D02*
X140600000Y-79260000D01*
X143560000Y-79260000D02*
X143600000Y-79300000D01*
X140600000Y-79260000D02*
X143560000Y-79260000D01*
X138080000Y-109040000D02*
X138040000Y-109000000D01*
X138080000Y-112500000D02*
X138080000Y-109040000D01*
D33*
X118678645Y-110500000D02*
X118650542Y-110528103D01*
D32*
X121412000Y-110500000D02*
X118678645Y-110500000D01*
X143000000Y-97000000D02*
X142160000Y-97840000D01*
X139892173Y-106900180D02*
X138040000Y-106900180D01*
X140392353Y-106400000D02*
X139892173Y-106900180D01*
X140706377Y-106400000D02*
X140392353Y-106400000D01*
X142160000Y-104620000D02*
X142160000Y-104946377D01*
X142160000Y-104946377D02*
X140706377Y-106400000D01*
X142080000Y-99568000D02*
X142160000Y-99488000D01*
X140716000Y-99568000D02*
X142080000Y-99568000D01*
X142160000Y-97840000D02*
X142160000Y-99488000D01*
X142160000Y-99488000D02*
X142160000Y-104620000D01*
X140716000Y-99568000D02*
X139700000Y-99568000D01*
X139114000Y-98982000D02*
X138176000Y-98982000D01*
X139700000Y-99568000D02*
X139114000Y-98982000D01*
X127099820Y-106900180D02*
X138040000Y-106900180D01*
X121500000Y-110500000D02*
X123952000Y-110500000D01*
X126080000Y-109530000D02*
X126080000Y-107920000D01*
X126080000Y-107920000D02*
X127099820Y-106900180D01*
X125110000Y-110500000D02*
X126080000Y-109530000D01*
X123952000Y-110500000D02*
X125110000Y-110500000D01*
X138290000Y-109250000D02*
X138040000Y-109000000D01*
X140360000Y-110500000D02*
X141700000Y-110500000D01*
X138040000Y-109000000D02*
X138860000Y-109000000D01*
X138860000Y-109000000D02*
X140360000Y-110500000D01*
X144690000Y-110500000D02*
X144700000Y-110510000D01*
X141700000Y-110500000D02*
X144690000Y-110500000D01*
X145530000Y-79300000D02*
X147930000Y-76900000D01*
X143600000Y-79300000D02*
X145530000Y-79300000D01*
X147930000Y-76900000D02*
X156500000Y-76900000D01*
X156500000Y-76900000D02*
X157400000Y-77800000D01*
X157400000Y-77800000D02*
X157400000Y-79490000D01*
X157460000Y-79370000D02*
X157420000Y-79330000D01*
X157460000Y-82590000D02*
X157460000Y-79370000D01*
X135295000Y-98982000D02*
X135280000Y-98967000D01*
X138176000Y-98982000D02*
X135295000Y-98982000D01*
X151650000Y-97000000D02*
X153330000Y-97000000D01*
X153330000Y-97000000D02*
X154580000Y-95750000D01*
X154580000Y-95750000D02*
X154580000Y-90720000D01*
X155728000Y-89572000D02*
X157450000Y-89572000D01*
X154580000Y-90720000D02*
X155728000Y-89572000D01*
X157450000Y-89572000D02*
X159990000Y-89572000D01*
X155728000Y-89572000D02*
X154690000Y-88534000D01*
X154690000Y-88534000D02*
X154690000Y-86050000D01*
X157460000Y-83280000D02*
X157460000Y-82590000D01*
X154690000Y-86050000D02*
X155650000Y-85090000D01*
X155650000Y-85090000D02*
X156900000Y-85090000D01*
X157460000Y-84530000D02*
X157460000Y-83280000D01*
X156900000Y-85090000D02*
X157460000Y-84530000D01*
X130420000Y-112460000D02*
X130460000Y-112500000D01*
X130420000Y-109000000D02*
X130420000Y-112460000D01*
X133000000Y-109040000D02*
X132960000Y-109000000D01*
X133000000Y-112500000D02*
X133000000Y-109040000D01*
D34*
X152340000Y-83350000D02*
X152340000Y-79330000D01*
X147240000Y-89380000D02*
X147240000Y-88450000D01*
X147240000Y-88450000D02*
X152340000Y-83350000D01*
D32*
X121840000Y-87160000D02*
X121840000Y-89380000D01*
X128960000Y-78200000D02*
X128960000Y-80040000D01*
X128960000Y-80040000D02*
X121840000Y-87160000D01*
D35*
X114220000Y-86747000D02*
X114220000Y-89380000D01*
D32*
X127422500Y-94593360D02*
X127422500Y-93742500D01*
X127422500Y-93742500D02*
X125880000Y-92200000D01*
X125880000Y-92200000D02*
X115090000Y-92200000D01*
X114220000Y-91330000D02*
X114220000Y-89380000D01*
X115090000Y-92200000D02*
X114220000Y-91330000D01*
X131500000Y-78200000D02*
X131500000Y-82900000D01*
X129460000Y-84940000D02*
X129460000Y-89380000D01*
X131500000Y-82900000D02*
X129460000Y-84940000D01*
X126470000Y-96706640D02*
X126470000Y-98380000D01*
X126906140Y-98816140D02*
X126906140Y-99880000D01*
X126470000Y-98380000D02*
X126906140Y-98816140D01*
X126176640Y-97000000D02*
X126470000Y-96706640D01*
X120550000Y-97000000D02*
X126176640Y-97000000D01*
D35*
X114145883Y-106375883D02*
X114145883Y-105056217D01*
X114925078Y-107155078D02*
X114145883Y-106375883D01*
X116850047Y-107155078D02*
X114925078Y-107155078D01*
X118872000Y-107960000D02*
X117654969Y-107960000D01*
X117654969Y-107960000D02*
X116850047Y-107155078D01*
D33*
G36*
X136438960Y-110099820D02*
G01*
X136455082Y-110263509D01*
X136502828Y-110420907D01*
X136580364Y-110565966D01*
X136684709Y-110693111D01*
X136745001Y-110742591D01*
X136745000Y-110790236D01*
X136724709Y-110806889D01*
X136620364Y-110934034D01*
X136542828Y-111079093D01*
X136495082Y-111236491D01*
X136478960Y-111400180D01*
X136478960Y-113599820D01*
X136495082Y-113763509D01*
X136542828Y-113920907D01*
X136620364Y-114065966D01*
X136660605Y-114115000D01*
X133961117Y-114115000D01*
X134134713Y-113972533D01*
X134334282Y-113729359D01*
X134482574Y-113451922D01*
X134573893Y-113150887D01*
X134597000Y-112916275D01*
X134597000Y-112083726D01*
X134573893Y-111849114D01*
X134482574Y-111548078D01*
X134335000Y-111271984D01*
X134335000Y-110153180D01*
X134442574Y-109951922D01*
X134533893Y-109650887D01*
X134557000Y-109416275D01*
X134557000Y-108583726D01*
X134533893Y-108349114D01*
X134499331Y-108235180D01*
X136438960Y-108235180D01*
X136438960Y-110099820D01*
X136438960Y-110099820D01*
G37*
X136438960Y-110099820D02*
X136455082Y-110263509D01*
X136502828Y-110420907D01*
X136580364Y-110565966D01*
X136684709Y-110693111D01*
X136745001Y-110742591D01*
X136745000Y-110790236D01*
X136724709Y-110806889D01*
X136620364Y-110934034D01*
X136542828Y-111079093D01*
X136495082Y-111236491D01*
X136478960Y-111400180D01*
X136478960Y-113599820D01*
X136495082Y-113763509D01*
X136542828Y-113920907D01*
X136620364Y-114065966D01*
X136660605Y-114115000D01*
X133961117Y-114115000D01*
X134134713Y-113972533D01*
X134334282Y-113729359D01*
X134482574Y-113451922D01*
X134573893Y-113150887D01*
X134597000Y-112916275D01*
X134597000Y-112083726D01*
X134573893Y-111849114D01*
X134482574Y-111548078D01*
X134335000Y-111271984D01*
X134335000Y-110153180D01*
X134442574Y-109951922D01*
X134533893Y-109650887D01*
X134557000Y-109416275D01*
X134557000Y-108583726D01*
X134533893Y-108349114D01*
X134499331Y-108235180D01*
X136438960Y-108235180D01*
X136438960Y-110099820D01*
G36*
X165728081Y-75953497D02*
G01*
X166433147Y-76146381D01*
X167092916Y-76461075D01*
X167686527Y-76887628D01*
X168195221Y-77412559D01*
X168602920Y-78019279D01*
X168896734Y-78688605D01*
X169069011Y-79406191D01*
X169115000Y-80032447D01*
X169115001Y-109960579D01*
X169046503Y-110728082D01*
X168853619Y-111433147D01*
X168538926Y-112092914D01*
X168112372Y-112686526D01*
X167587438Y-113195223D01*
X166980723Y-113602919D01*
X166311395Y-113896734D01*
X165593810Y-114069011D01*
X164967554Y-114115000D01*
X139499395Y-114115000D01*
X139539636Y-114065966D01*
X139617172Y-113920907D01*
X139664918Y-113763509D01*
X139681040Y-113599820D01*
X139681040Y-111650828D01*
X139846646Y-111739347D01*
X140098294Y-111815683D01*
X140294421Y-111835000D01*
X140294423Y-111835000D01*
X140359999Y-111841459D01*
X140425575Y-111835000D01*
X140434175Y-111835000D01*
X140675596Y-112033129D01*
X140994378Y-112203521D01*
X141340277Y-112308448D01*
X141609861Y-112335000D01*
X141790139Y-112335000D01*
X142059723Y-112308448D01*
X142405622Y-112203521D01*
X142724404Y-112033129D01*
X142965825Y-111835000D01*
X143434175Y-111835000D01*
X143675596Y-112033129D01*
X143994378Y-112203521D01*
X144340277Y-112308448D01*
X144609861Y-112335000D01*
X144790139Y-112335000D01*
X145059723Y-112308448D01*
X145405622Y-112203521D01*
X145724404Y-112033129D01*
X146003819Y-111803819D01*
X146233129Y-111524404D01*
X146403521Y-111205622D01*
X146508448Y-110859723D01*
X146517282Y-110770023D01*
X163665000Y-110770023D01*
X163665000Y-111229977D01*
X163754733Y-111681094D01*
X163930750Y-112106037D01*
X164186287Y-112488476D01*
X164511524Y-112813713D01*
X164893963Y-113069250D01*
X165318906Y-113245267D01*
X165770023Y-113335000D01*
X166229977Y-113335000D01*
X166681094Y-113245267D01*
X167106037Y-113069250D01*
X167488476Y-112813713D01*
X167813713Y-112488476D01*
X168069250Y-112106037D01*
X168245267Y-111681094D01*
X168335000Y-111229977D01*
X168335000Y-110770023D01*
X168245267Y-110318906D01*
X168069250Y-109893963D01*
X167813713Y-109511524D01*
X167488476Y-109186287D01*
X167106037Y-108930750D01*
X166681094Y-108754733D01*
X166229977Y-108665000D01*
X165770023Y-108665000D01*
X165318906Y-108754733D01*
X164893963Y-108930750D01*
X164511524Y-109186287D01*
X164186287Y-109511524D01*
X163930750Y-109893963D01*
X163754733Y-110318906D01*
X163665000Y-110770023D01*
X146517282Y-110770023D01*
X146543878Y-110500000D01*
X146508448Y-110140277D01*
X146403521Y-109794378D01*
X146233129Y-109475596D01*
X146031574Y-109230000D01*
X146233129Y-108984404D01*
X146403521Y-108665622D01*
X146508448Y-108319723D01*
X146543878Y-107960000D01*
X146508448Y-107600277D01*
X146403521Y-107254378D01*
X146233129Y-106935596D01*
X146003819Y-106656181D01*
X145724404Y-106426871D01*
X145530715Y-106323342D01*
X145591538Y-106290832D01*
X145834713Y-106091263D01*
X146034282Y-105848089D01*
X146182574Y-105570652D01*
X146273893Y-105269617D01*
X146297000Y-105035005D01*
X146297000Y-104204996D01*
X146273893Y-103970384D01*
X146182574Y-103669348D01*
X146034282Y-103391911D01*
X145834713Y-103148737D01*
X145591539Y-102949168D01*
X145314102Y-102800876D01*
X145013067Y-102709557D01*
X144700000Y-102678723D01*
X144386934Y-102709557D01*
X144085899Y-102800876D01*
X143808462Y-102949168D01*
X143565287Y-103148737D01*
X143495000Y-103234381D01*
X143495000Y-100465749D01*
X143533854Y-100497636D01*
X143678913Y-100575172D01*
X143836311Y-100622918D01*
X144000000Y-100639040D01*
X145991066Y-100639040D01*
X148445000Y-103092975D01*
X148445000Y-103393254D01*
X148297426Y-103669348D01*
X148206107Y-103970383D01*
X148183000Y-104204995D01*
X148183000Y-105035004D01*
X148206107Y-105269616D01*
X148297426Y-105570651D01*
X148445718Y-105848088D01*
X148645287Y-106091263D01*
X148888461Y-106290832D01*
X149165898Y-106439124D01*
X149466933Y-106530443D01*
X149780000Y-106561277D01*
X150093066Y-106530443D01*
X150394101Y-106439124D01*
X150671538Y-106290832D01*
X150914713Y-106091263D01*
X151114282Y-105848089D01*
X151262574Y-105570652D01*
X151353893Y-105269617D01*
X151377000Y-105035005D01*
X151377000Y-104204996D01*
X151353893Y-103970384D01*
X151262574Y-103669348D01*
X151115000Y-103393254D01*
X151115000Y-102605579D01*
X151121459Y-102540000D01*
X151095683Y-102278294D01*
X151089980Y-102259494D01*
X151019347Y-102026646D01*
X150895382Y-101794725D01*
X150728555Y-101591445D01*
X150677615Y-101549640D01*
X149825975Y-100698000D01*
X157358960Y-100698000D01*
X157358960Y-102222000D01*
X157375082Y-102385689D01*
X157422828Y-102543087D01*
X157500364Y-102688146D01*
X157604709Y-102815291D01*
X157731854Y-102919636D01*
X157876913Y-102997172D01*
X158034311Y-103044918D01*
X158198000Y-103061040D01*
X159722000Y-103061040D01*
X159885689Y-103044918D01*
X160043087Y-102997172D01*
X160188146Y-102919636D01*
X160315291Y-102815291D01*
X160419636Y-102688146D01*
X160497172Y-102543087D01*
X160544918Y-102385689D01*
X160557036Y-102262645D01*
X164793000Y-102262645D01*
X164793000Y-102673355D01*
X164873126Y-103076172D01*
X165030297Y-103455618D01*
X165258475Y-103797110D01*
X165548890Y-104087525D01*
X165890382Y-104315703D01*
X166269828Y-104472874D01*
X166672645Y-104553000D01*
X167083355Y-104553000D01*
X167486172Y-104472874D01*
X167865618Y-104315703D01*
X168207110Y-104087525D01*
X168497525Y-103797110D01*
X168725703Y-103455618D01*
X168882874Y-103076172D01*
X168963000Y-102673355D01*
X168963000Y-102262645D01*
X168882874Y-101859828D01*
X168725703Y-101480382D01*
X168497525Y-101138890D01*
X168207110Y-100848475D01*
X167865618Y-100620297D01*
X167486172Y-100463126D01*
X167083355Y-100383000D01*
X166672645Y-100383000D01*
X166269828Y-100463126D01*
X165890382Y-100620297D01*
X165548890Y-100848475D01*
X165258475Y-101138890D01*
X165030297Y-101480382D01*
X164873126Y-101859828D01*
X164793000Y-102262645D01*
X160557036Y-102262645D01*
X160561040Y-102222000D01*
X160561040Y-100698000D01*
X160544918Y-100534311D01*
X160497172Y-100376913D01*
X160419636Y-100231854D01*
X160315291Y-100104709D01*
X160188146Y-100000364D01*
X160043087Y-99922828D01*
X159885689Y-99875082D01*
X159722000Y-99858960D01*
X158198000Y-99858960D01*
X158034311Y-99875082D01*
X157876913Y-99922828D01*
X157731854Y-100000364D01*
X157604709Y-100104709D01*
X157500364Y-100231854D01*
X157422828Y-100376913D01*
X157375082Y-100534311D01*
X157358960Y-100698000D01*
X149825975Y-100698000D01*
X147530366Y-98402392D01*
X147488555Y-98351445D01*
X147468517Y-98335000D01*
X149610960Y-98335000D01*
X149610960Y-98900000D01*
X149627082Y-99063689D01*
X149674828Y-99221087D01*
X149752364Y-99366146D01*
X149856709Y-99493291D01*
X149983854Y-99597636D01*
X150128913Y-99675172D01*
X150286311Y-99722918D01*
X150450000Y-99739040D01*
X152850000Y-99739040D01*
X153013689Y-99722918D01*
X153171087Y-99675172D01*
X153316146Y-99597636D01*
X153443291Y-99493291D01*
X153547636Y-99366146D01*
X153625172Y-99221087D01*
X153672918Y-99063689D01*
X153689040Y-98900000D01*
X153689040Y-98286157D01*
X153843354Y-98239347D01*
X154075275Y-98115382D01*
X154278555Y-97948555D01*
X154320366Y-97897609D01*
X155035329Y-97182645D01*
X164793000Y-97182645D01*
X164793000Y-97593355D01*
X164873126Y-97996172D01*
X165030297Y-98375618D01*
X165258475Y-98717110D01*
X165548890Y-99007525D01*
X165890382Y-99235703D01*
X166269828Y-99392874D01*
X166672645Y-99473000D01*
X167083355Y-99473000D01*
X167486172Y-99392874D01*
X167865618Y-99235703D01*
X168207110Y-99007525D01*
X168497525Y-98717110D01*
X168725703Y-98375618D01*
X168882874Y-97996172D01*
X168963000Y-97593355D01*
X168963000Y-97182645D01*
X168882874Y-96779828D01*
X168725703Y-96400382D01*
X168497525Y-96058890D01*
X168207110Y-95768475D01*
X167865618Y-95540297D01*
X167486172Y-95383126D01*
X167083355Y-95303000D01*
X166672645Y-95303000D01*
X166269828Y-95383126D01*
X165890382Y-95540297D01*
X165548890Y-95768475D01*
X165258475Y-96058890D01*
X165030297Y-96400382D01*
X164873126Y-96779828D01*
X164793000Y-97182645D01*
X155035329Y-97182645D01*
X155477614Y-96740360D01*
X155528555Y-96698555D01*
X155695382Y-96495275D01*
X155819347Y-96263354D01*
X155895683Y-96011706D01*
X155915000Y-95815579D01*
X155915000Y-95815578D01*
X155920657Y-95758140D01*
X156009998Y-95867002D01*
X156270379Y-96080692D01*
X156567445Y-96239477D01*
X156889782Y-96337257D01*
X157141003Y-96362000D01*
X157758997Y-96362000D01*
X158010218Y-96337257D01*
X158332555Y-96239477D01*
X158629621Y-96080692D01*
X158720000Y-96006520D01*
X158810379Y-96080692D01*
X159107445Y-96239477D01*
X159429782Y-96337257D01*
X159681003Y-96362000D01*
X160298997Y-96362000D01*
X160550218Y-96337257D01*
X160872555Y-96239477D01*
X161169621Y-96080692D01*
X161430002Y-95867002D01*
X161643692Y-95606621D01*
X161802477Y-95309555D01*
X161900257Y-94987218D01*
X161933273Y-94652000D01*
X161900257Y-94316782D01*
X161802477Y-93994445D01*
X161643692Y-93697379D01*
X161430002Y-93436998D01*
X161362987Y-93382000D01*
X161430002Y-93327002D01*
X161643692Y-93066621D01*
X161802477Y-92769555D01*
X161900257Y-92447218D01*
X161933273Y-92112000D01*
X161900257Y-91776782D01*
X161802477Y-91454445D01*
X161643692Y-91157379D01*
X161430002Y-90896998D01*
X161362987Y-90842000D01*
X161430002Y-90787002D01*
X161643692Y-90526621D01*
X161802477Y-90229555D01*
X161900257Y-89907218D01*
X161933273Y-89572000D01*
X161900257Y-89236782D01*
X161802477Y-88914445D01*
X161643692Y-88617379D01*
X161430002Y-88356998D01*
X161169621Y-88143308D01*
X160872555Y-87984523D01*
X160550218Y-87886743D01*
X160298997Y-87862000D01*
X159681003Y-87862000D01*
X159429782Y-87886743D01*
X159107445Y-87984523D01*
X158810379Y-88143308D01*
X158720000Y-88217480D01*
X158629621Y-88143308D01*
X158332555Y-87984523D01*
X158010218Y-87886743D01*
X157758997Y-87862000D01*
X157141003Y-87862000D01*
X156889782Y-87886743D01*
X156567445Y-87984523D01*
X156270379Y-88143308D01*
X156224739Y-88180764D01*
X156025000Y-87981026D01*
X156025000Y-86602974D01*
X156202975Y-86425000D01*
X156834421Y-86425000D01*
X156900000Y-86431459D01*
X156965579Y-86425000D01*
X157161706Y-86405683D01*
X157413354Y-86329347D01*
X157645275Y-86205382D01*
X157848555Y-86038555D01*
X157890366Y-85987608D01*
X158357609Y-85520365D01*
X158408555Y-85478555D01*
X158575382Y-85275275D01*
X158674414Y-85090000D01*
X158699347Y-85043355D01*
X158749830Y-84876933D01*
X158775683Y-84791706D01*
X158795000Y-84595579D01*
X158795000Y-84595578D01*
X158801459Y-84530000D01*
X158795000Y-84464421D01*
X158795000Y-84357735D01*
X158926146Y-84287636D01*
X159053291Y-84183291D01*
X159157636Y-84056146D01*
X159235172Y-83911087D01*
X159282918Y-83753689D01*
X159299040Y-83590000D01*
X159299040Y-82590000D01*
X160696122Y-82590000D01*
X160731552Y-82949723D01*
X160836479Y-83295622D01*
X161006871Y-83614404D01*
X161236181Y-83893819D01*
X161515596Y-84123129D01*
X161834378Y-84293521D01*
X162180277Y-84398448D01*
X162449861Y-84425000D01*
X162630139Y-84425000D01*
X162899723Y-84398448D01*
X163245622Y-84293521D01*
X163564404Y-84123129D01*
X163843819Y-83893819D01*
X164073129Y-83614404D01*
X164243521Y-83295622D01*
X164348448Y-82949723D01*
X164383878Y-82590000D01*
X164348448Y-82230277D01*
X164243521Y-81884378D01*
X164073129Y-81565596D01*
X163843819Y-81286181D01*
X163564404Y-81056871D01*
X163245622Y-80886479D01*
X162899723Y-80781552D01*
X162630139Y-80755000D01*
X162449861Y-80755000D01*
X162180277Y-80781552D01*
X161834378Y-80886479D01*
X161515596Y-81056871D01*
X161236181Y-81286181D01*
X161006871Y-81565596D01*
X160836479Y-81884378D01*
X160731552Y-82230277D01*
X160696122Y-82590000D01*
X159299040Y-82590000D01*
X159299040Y-81590000D01*
X159282918Y-81426311D01*
X159235172Y-81268913D01*
X159157636Y-81123854D01*
X159053291Y-80996709D01*
X158926146Y-80892364D01*
X158795000Y-80822265D01*
X158795000Y-80765628D01*
X158825287Y-80802533D01*
X159068462Y-81002102D01*
X159345899Y-81150394D01*
X159646934Y-81241713D01*
X159960000Y-81272547D01*
X160273067Y-81241713D01*
X160574102Y-81150394D01*
X160851539Y-81002102D01*
X161094713Y-80802533D01*
X161294282Y-80559359D01*
X161442574Y-80281922D01*
X161533893Y-79980886D01*
X161557000Y-79746274D01*
X161557000Y-78913725D01*
X161542847Y-78770023D01*
X163665000Y-78770023D01*
X163665000Y-79229977D01*
X163754733Y-79681094D01*
X163930750Y-80106037D01*
X164186287Y-80488476D01*
X164511524Y-80813713D01*
X164893963Y-81069250D01*
X165318906Y-81245267D01*
X165770023Y-81335000D01*
X166229977Y-81335000D01*
X166681094Y-81245267D01*
X167106037Y-81069250D01*
X167488476Y-80813713D01*
X167813713Y-80488476D01*
X168069250Y-80106037D01*
X168245267Y-79681094D01*
X168335000Y-79229977D01*
X168335000Y-78770023D01*
X168245267Y-78318906D01*
X168069250Y-77893963D01*
X167813713Y-77511524D01*
X167488476Y-77186287D01*
X167106037Y-76930750D01*
X166681094Y-76754733D01*
X166229977Y-76665000D01*
X165770023Y-76665000D01*
X165318906Y-76754733D01*
X164893963Y-76930750D01*
X164511524Y-77186287D01*
X164186287Y-77511524D01*
X163930750Y-77893963D01*
X163754733Y-78318906D01*
X163665000Y-78770023D01*
X161542847Y-78770023D01*
X161533893Y-78679113D01*
X161442574Y-78378078D01*
X161294282Y-78100641D01*
X161094713Y-77857467D01*
X160851538Y-77657898D01*
X160574101Y-77509606D01*
X160273066Y-77418287D01*
X159960000Y-77387453D01*
X159646933Y-77418287D01*
X159345898Y-77509606D01*
X159068461Y-77657898D01*
X158825287Y-77857467D01*
X158735000Y-77967482D01*
X158735000Y-77865578D01*
X158741459Y-77799999D01*
X158715683Y-77538294D01*
X158694195Y-77467458D01*
X158639347Y-77286646D01*
X158515382Y-77054725D01*
X158348555Y-76851445D01*
X158297614Y-76809639D01*
X157490365Y-76002391D01*
X157448555Y-75951445D01*
X157367591Y-75885000D01*
X164960590Y-75885000D01*
X165728081Y-75953497D01*
X165728081Y-75953497D01*
G37*
X165728081Y-75953497D02*
X166433147Y-76146381D01*
X167092916Y-76461075D01*
X167686527Y-76887628D01*
X168195221Y-77412559D01*
X168602920Y-78019279D01*
X168896734Y-78688605D01*
X169069011Y-79406191D01*
X169115000Y-80032447D01*
X169115001Y-109960579D01*
X169046503Y-110728082D01*
X168853619Y-111433147D01*
X168538926Y-112092914D01*
X168112372Y-112686526D01*
X167587438Y-113195223D01*
X166980723Y-113602919D01*
X166311395Y-113896734D01*
X165593810Y-114069011D01*
X164967554Y-114115000D01*
X139499395Y-114115000D01*
X139539636Y-114065966D01*
X139617172Y-113920907D01*
X139664918Y-113763509D01*
X139681040Y-113599820D01*
X139681040Y-111650828D01*
X139846646Y-111739347D01*
X140098294Y-111815683D01*
X140294421Y-111835000D01*
X140294423Y-111835000D01*
X140359999Y-111841459D01*
X140425575Y-111835000D01*
X140434175Y-111835000D01*
X140675596Y-112033129D01*
X140994378Y-112203521D01*
X141340277Y-112308448D01*
X141609861Y-112335000D01*
X141790139Y-112335000D01*
X142059723Y-112308448D01*
X142405622Y-112203521D01*
X142724404Y-112033129D01*
X142965825Y-111835000D01*
X143434175Y-111835000D01*
X143675596Y-112033129D01*
X143994378Y-112203521D01*
X144340277Y-112308448D01*
X144609861Y-112335000D01*
X144790139Y-112335000D01*
X145059723Y-112308448D01*
X145405622Y-112203521D01*
X145724404Y-112033129D01*
X146003819Y-111803819D01*
X146233129Y-111524404D01*
X146403521Y-111205622D01*
X146508448Y-110859723D01*
X146517282Y-110770023D01*
X163665000Y-110770023D01*
X163665000Y-111229977D01*
X163754733Y-111681094D01*
X163930750Y-112106037D01*
X164186287Y-112488476D01*
X164511524Y-112813713D01*
X164893963Y-113069250D01*
X165318906Y-113245267D01*
X165770023Y-113335000D01*
X166229977Y-113335000D01*
X166681094Y-113245267D01*
X167106037Y-113069250D01*
X167488476Y-112813713D01*
X167813713Y-112488476D01*
X168069250Y-112106037D01*
X168245267Y-111681094D01*
X168335000Y-111229977D01*
X168335000Y-110770023D01*
X168245267Y-110318906D01*
X168069250Y-109893963D01*
X167813713Y-109511524D01*
X167488476Y-109186287D01*
X167106037Y-108930750D01*
X166681094Y-108754733D01*
X166229977Y-108665000D01*
X165770023Y-108665000D01*
X165318906Y-108754733D01*
X164893963Y-108930750D01*
X164511524Y-109186287D01*
X164186287Y-109511524D01*
X163930750Y-109893963D01*
X163754733Y-110318906D01*
X163665000Y-110770023D01*
X146517282Y-110770023D01*
X146543878Y-110500000D01*
X146508448Y-110140277D01*
X146403521Y-109794378D01*
X146233129Y-109475596D01*
X146031574Y-109230000D01*
X146233129Y-108984404D01*
X146403521Y-108665622D01*
X146508448Y-108319723D01*
X146543878Y-107960000D01*
X146508448Y-107600277D01*
X146403521Y-107254378D01*
X146233129Y-106935596D01*
X146003819Y-106656181D01*
X145724404Y-106426871D01*
X145530715Y-106323342D01*
X145591538Y-106290832D01*
X145834713Y-106091263D01*
X146034282Y-105848089D01*
X146182574Y-105570652D01*
X146273893Y-105269617D01*
X146297000Y-105035005D01*
X146297000Y-104204996D01*
X146273893Y-103970384D01*
X146182574Y-103669348D01*
X146034282Y-103391911D01*
X145834713Y-103148737D01*
X145591539Y-102949168D01*
X145314102Y-102800876D01*
X145013067Y-102709557D01*
X144700000Y-102678723D01*
X144386934Y-102709557D01*
X144085899Y-102800876D01*
X143808462Y-102949168D01*
X143565287Y-103148737D01*
X143495000Y-103234381D01*
X143495000Y-100465749D01*
X143533854Y-100497636D01*
X143678913Y-100575172D01*
X143836311Y-100622918D01*
X144000000Y-100639040D01*
X145991066Y-100639040D01*
X148445000Y-103092975D01*
X148445000Y-103393254D01*
X148297426Y-103669348D01*
X148206107Y-103970383D01*
X148183000Y-104204995D01*
X148183000Y-105035004D01*
X148206107Y-105269616D01*
X148297426Y-105570651D01*
X148445718Y-105848088D01*
X148645287Y-106091263D01*
X148888461Y-106290832D01*
X149165898Y-106439124D01*
X149466933Y-106530443D01*
X149780000Y-106561277D01*
X150093066Y-106530443D01*
X150394101Y-106439124D01*
X150671538Y-106290832D01*
X150914713Y-106091263D01*
X151114282Y-105848089D01*
X151262574Y-105570652D01*
X151353893Y-105269617D01*
X151377000Y-105035005D01*
X151377000Y-104204996D01*
X151353893Y-103970384D01*
X151262574Y-103669348D01*
X151115000Y-103393254D01*
X151115000Y-102605579D01*
X151121459Y-102540000D01*
X151095683Y-102278294D01*
X151089980Y-102259494D01*
X151019347Y-102026646D01*
X150895382Y-101794725D01*
X150728555Y-101591445D01*
X150677615Y-101549640D01*
X149825975Y-100698000D01*
X157358960Y-100698000D01*
X157358960Y-102222000D01*
X157375082Y-102385689D01*
X157422828Y-102543087D01*
X157500364Y-102688146D01*
X157604709Y-102815291D01*
X157731854Y-102919636D01*
X157876913Y-102997172D01*
X158034311Y-103044918D01*
X158198000Y-103061040D01*
X159722000Y-103061040D01*
X159885689Y-103044918D01*
X160043087Y-102997172D01*
X160188146Y-102919636D01*
X160315291Y-102815291D01*
X160419636Y-102688146D01*
X160497172Y-102543087D01*
X160544918Y-102385689D01*
X160557036Y-102262645D01*
X164793000Y-102262645D01*
X164793000Y-102673355D01*
X164873126Y-103076172D01*
X165030297Y-103455618D01*
X165258475Y-103797110D01*
X165548890Y-104087525D01*
X165890382Y-104315703D01*
X166269828Y-104472874D01*
X166672645Y-104553000D01*
X167083355Y-104553000D01*
X167486172Y-104472874D01*
X167865618Y-104315703D01*
X168207110Y-104087525D01*
X168497525Y-103797110D01*
X168725703Y-103455618D01*
X168882874Y-103076172D01*
X168963000Y-102673355D01*
X168963000Y-102262645D01*
X168882874Y-101859828D01*
X168725703Y-101480382D01*
X168497525Y-101138890D01*
X168207110Y-100848475D01*
X167865618Y-100620297D01*
X167486172Y-100463126D01*
X167083355Y-100383000D01*
X166672645Y-100383000D01*
X166269828Y-100463126D01*
X165890382Y-100620297D01*
X165548890Y-100848475D01*
X165258475Y-101138890D01*
X165030297Y-101480382D01*
X164873126Y-101859828D01*
X164793000Y-102262645D01*
X160557036Y-102262645D01*
X160561040Y-102222000D01*
X160561040Y-100698000D01*
X160544918Y-100534311D01*
X160497172Y-100376913D01*
X160419636Y-100231854D01*
X160315291Y-100104709D01*
X160188146Y-100000364D01*
X160043087Y-99922828D01*
X159885689Y-99875082D01*
X159722000Y-99858960D01*
X158198000Y-99858960D01*
X158034311Y-99875082D01*
X157876913Y-99922828D01*
X157731854Y-100000364D01*
X157604709Y-100104709D01*
X157500364Y-100231854D01*
X157422828Y-100376913D01*
X157375082Y-100534311D01*
X157358960Y-100698000D01*
X149825975Y-100698000D01*
X147530366Y-98402392D01*
X147488555Y-98351445D01*
X147468517Y-98335000D01*
X149610960Y-98335000D01*
X149610960Y-98900000D01*
X149627082Y-99063689D01*
X149674828Y-99221087D01*
X149752364Y-99366146D01*
X149856709Y-99493291D01*
X149983854Y-99597636D01*
X150128913Y-99675172D01*
X150286311Y-99722918D01*
X150450000Y-99739040D01*
X152850000Y-99739040D01*
X153013689Y-99722918D01*
X153171087Y-99675172D01*
X153316146Y-99597636D01*
X153443291Y-99493291D01*
X153547636Y-99366146D01*
X153625172Y-99221087D01*
X153672918Y-99063689D01*
X153689040Y-98900000D01*
X153689040Y-98286157D01*
X153843354Y-98239347D01*
X154075275Y-98115382D01*
X154278555Y-97948555D01*
X154320366Y-97897609D01*
X155035329Y-97182645D01*
X164793000Y-97182645D01*
X164793000Y-97593355D01*
X164873126Y-97996172D01*
X165030297Y-98375618D01*
X165258475Y-98717110D01*
X165548890Y-99007525D01*
X165890382Y-99235703D01*
X166269828Y-99392874D01*
X166672645Y-99473000D01*
X167083355Y-99473000D01*
X167486172Y-99392874D01*
X167865618Y-99235703D01*
X168207110Y-99007525D01*
X168497525Y-98717110D01*
X168725703Y-98375618D01*
X168882874Y-97996172D01*
X168963000Y-97593355D01*
X168963000Y-97182645D01*
X168882874Y-96779828D01*
X168725703Y-96400382D01*
X168497525Y-96058890D01*
X168207110Y-95768475D01*
X167865618Y-95540297D01*
X167486172Y-95383126D01*
X167083355Y-95303000D01*
X166672645Y-95303000D01*
X166269828Y-95383126D01*
X165890382Y-95540297D01*
X165548890Y-95768475D01*
X165258475Y-96058890D01*
X165030297Y-96400382D01*
X164873126Y-96779828D01*
X164793000Y-97182645D01*
X155035329Y-97182645D01*
X155477614Y-96740360D01*
X155528555Y-96698555D01*
X155695382Y-96495275D01*
X155819347Y-96263354D01*
X155895683Y-96011706D01*
X155915000Y-95815579D01*
X155915000Y-95815578D01*
X155920657Y-95758140D01*
X156009998Y-95867002D01*
X156270379Y-96080692D01*
X156567445Y-96239477D01*
X156889782Y-96337257D01*
X157141003Y-96362000D01*
X157758997Y-96362000D01*
X158010218Y-96337257D01*
X158332555Y-96239477D01*
X158629621Y-96080692D01*
X158720000Y-96006520D01*
X158810379Y-96080692D01*
X159107445Y-96239477D01*
X159429782Y-96337257D01*
X159681003Y-96362000D01*
X160298997Y-96362000D01*
X160550218Y-96337257D01*
X160872555Y-96239477D01*
X161169621Y-96080692D01*
X161430002Y-95867002D01*
X161643692Y-95606621D01*
X161802477Y-95309555D01*
X161900257Y-94987218D01*
X161933273Y-94652000D01*
X161900257Y-94316782D01*
X161802477Y-93994445D01*
X161643692Y-93697379D01*
X161430002Y-93436998D01*
X161362987Y-93382000D01*
X161430002Y-93327002D01*
X161643692Y-93066621D01*
X161802477Y-92769555D01*
X161900257Y-92447218D01*
X161933273Y-92112000D01*
X161900257Y-91776782D01*
X161802477Y-91454445D01*
X161643692Y-91157379D01*
X161430002Y-90896998D01*
X161362987Y-90842000D01*
X161430002Y-90787002D01*
X161643692Y-90526621D01*
X161802477Y-90229555D01*
X161900257Y-89907218D01*
X161933273Y-89572000D01*
X161900257Y-89236782D01*
X161802477Y-88914445D01*
X161643692Y-88617379D01*
X161430002Y-88356998D01*
X161169621Y-88143308D01*
X160872555Y-87984523D01*
X160550218Y-87886743D01*
X160298997Y-87862000D01*
X159681003Y-87862000D01*
X159429782Y-87886743D01*
X159107445Y-87984523D01*
X158810379Y-88143308D01*
X158720000Y-88217480D01*
X158629621Y-88143308D01*
X158332555Y-87984523D01*
X158010218Y-87886743D01*
X157758997Y-87862000D01*
X157141003Y-87862000D01*
X156889782Y-87886743D01*
X156567445Y-87984523D01*
X156270379Y-88143308D01*
X156224739Y-88180764D01*
X156025000Y-87981026D01*
X156025000Y-86602974D01*
X156202975Y-86425000D01*
X156834421Y-86425000D01*
X156900000Y-86431459D01*
X156965579Y-86425000D01*
X157161706Y-86405683D01*
X157413354Y-86329347D01*
X157645275Y-86205382D01*
X157848555Y-86038555D01*
X157890366Y-85987608D01*
X158357609Y-85520365D01*
X158408555Y-85478555D01*
X158575382Y-85275275D01*
X158674414Y-85090000D01*
X158699347Y-85043355D01*
X158749830Y-84876933D01*
X158775683Y-84791706D01*
X158795000Y-84595579D01*
X158795000Y-84595578D01*
X158801459Y-84530000D01*
X158795000Y-84464421D01*
X158795000Y-84357735D01*
X158926146Y-84287636D01*
X159053291Y-84183291D01*
X159157636Y-84056146D01*
X159235172Y-83911087D01*
X159282918Y-83753689D01*
X159299040Y-83590000D01*
X159299040Y-82590000D01*
X160696122Y-82590000D01*
X160731552Y-82949723D01*
X160836479Y-83295622D01*
X161006871Y-83614404D01*
X161236181Y-83893819D01*
X161515596Y-84123129D01*
X161834378Y-84293521D01*
X162180277Y-84398448D01*
X162449861Y-84425000D01*
X162630139Y-84425000D01*
X162899723Y-84398448D01*
X163245622Y-84293521D01*
X163564404Y-84123129D01*
X163843819Y-83893819D01*
X164073129Y-83614404D01*
X164243521Y-83295622D01*
X164348448Y-82949723D01*
X164383878Y-82590000D01*
X164348448Y-82230277D01*
X164243521Y-81884378D01*
X164073129Y-81565596D01*
X163843819Y-81286181D01*
X163564404Y-81056871D01*
X163245622Y-80886479D01*
X162899723Y-80781552D01*
X162630139Y-80755000D01*
X162449861Y-80755000D01*
X162180277Y-80781552D01*
X161834378Y-80886479D01*
X161515596Y-81056871D01*
X161236181Y-81286181D01*
X161006871Y-81565596D01*
X160836479Y-81884378D01*
X160731552Y-82230277D01*
X160696122Y-82590000D01*
X159299040Y-82590000D01*
X159299040Y-81590000D01*
X159282918Y-81426311D01*
X159235172Y-81268913D01*
X159157636Y-81123854D01*
X159053291Y-80996709D01*
X158926146Y-80892364D01*
X158795000Y-80822265D01*
X158795000Y-80765628D01*
X158825287Y-80802533D01*
X159068462Y-81002102D01*
X159345899Y-81150394D01*
X159646934Y-81241713D01*
X159960000Y-81272547D01*
X160273067Y-81241713D01*
X160574102Y-81150394D01*
X160851539Y-81002102D01*
X161094713Y-80802533D01*
X161294282Y-80559359D01*
X161442574Y-80281922D01*
X161533893Y-79980886D01*
X161557000Y-79746274D01*
X161557000Y-78913725D01*
X161542847Y-78770023D01*
X163665000Y-78770023D01*
X163665000Y-79229977D01*
X163754733Y-79681094D01*
X163930750Y-80106037D01*
X164186287Y-80488476D01*
X164511524Y-80813713D01*
X164893963Y-81069250D01*
X165318906Y-81245267D01*
X165770023Y-81335000D01*
X166229977Y-81335000D01*
X166681094Y-81245267D01*
X167106037Y-81069250D01*
X167488476Y-80813713D01*
X167813713Y-80488476D01*
X168069250Y-80106037D01*
X168245267Y-79681094D01*
X168335000Y-79229977D01*
X168335000Y-78770023D01*
X168245267Y-78318906D01*
X168069250Y-77893963D01*
X167813713Y-77511524D01*
X167488476Y-77186287D01*
X167106037Y-76930750D01*
X166681094Y-76754733D01*
X166229977Y-76665000D01*
X165770023Y-76665000D01*
X165318906Y-76754733D01*
X164893963Y-76930750D01*
X164511524Y-77186287D01*
X164186287Y-77511524D01*
X163930750Y-77893963D01*
X163754733Y-78318906D01*
X163665000Y-78770023D01*
X161542847Y-78770023D01*
X161533893Y-78679113D01*
X161442574Y-78378078D01*
X161294282Y-78100641D01*
X161094713Y-77857467D01*
X160851538Y-77657898D01*
X160574101Y-77509606D01*
X160273066Y-77418287D01*
X159960000Y-77387453D01*
X159646933Y-77418287D01*
X159345898Y-77509606D01*
X159068461Y-77657898D01*
X158825287Y-77857467D01*
X158735000Y-77967482D01*
X158735000Y-77865578D01*
X158741459Y-77799999D01*
X158715683Y-77538294D01*
X158694195Y-77467458D01*
X158639347Y-77286646D01*
X158515382Y-77054725D01*
X158348555Y-76851445D01*
X158297614Y-76809639D01*
X157490365Y-76002391D01*
X157448555Y-75951445D01*
X157367591Y-75885000D01*
X164960590Y-75885000D01*
X165728081Y-75953497D01*
G36*
X146981445Y-75951445D02*
G01*
X146939639Y-76002386D01*
X144977026Y-77965000D01*
X144865825Y-77965000D01*
X144624404Y-77766871D01*
X144305622Y-77596479D01*
X143959723Y-77491552D01*
X143690139Y-77465000D01*
X143509861Y-77465000D01*
X143240277Y-77491552D01*
X142894378Y-77596479D01*
X142575596Y-77766871D01*
X142382915Y-77925000D01*
X141817085Y-77925000D01*
X141624404Y-77766871D01*
X141305622Y-77596479D01*
X140959723Y-77491552D01*
X140690139Y-77465000D01*
X140509861Y-77465000D01*
X140240277Y-77491552D01*
X139894378Y-77596479D01*
X139575596Y-77766871D01*
X139382915Y-77925000D01*
X138817085Y-77925000D01*
X138624404Y-77766871D01*
X138305622Y-77596479D01*
X137959723Y-77491552D01*
X137690139Y-77465000D01*
X137509861Y-77465000D01*
X137240277Y-77491552D01*
X136894378Y-77596479D01*
X136575596Y-77766871D01*
X136296181Y-77996181D01*
X136066871Y-78275596D01*
X135896479Y-78594378D01*
X135791552Y-78940277D01*
X135756122Y-79300000D01*
X135791552Y-79659723D01*
X135896479Y-80005622D01*
X136066871Y-80324404D01*
X136268426Y-80570000D01*
X136066871Y-80815596D01*
X135896479Y-81134378D01*
X135791552Y-81480277D01*
X135756122Y-81840000D01*
X135791552Y-82199723D01*
X135896479Y-82545622D01*
X136066871Y-82864404D01*
X136296181Y-83143819D01*
X136575596Y-83373129D01*
X136894378Y-83543521D01*
X137240277Y-83648448D01*
X137509861Y-83675000D01*
X137690139Y-83675000D01*
X137959723Y-83648448D01*
X138305622Y-83543521D01*
X138624404Y-83373129D01*
X138903819Y-83143819D01*
X139100000Y-82904772D01*
X139296181Y-83143819D01*
X139575596Y-83373129D01*
X139894378Y-83543521D01*
X140240277Y-83648448D01*
X140509861Y-83675000D01*
X140690139Y-83675000D01*
X140959723Y-83648448D01*
X141305622Y-83543521D01*
X141624404Y-83373129D01*
X141903819Y-83143819D01*
X142100000Y-82904772D01*
X142296181Y-83143819D01*
X142575596Y-83373129D01*
X142894378Y-83543521D01*
X143240277Y-83648448D01*
X143509861Y-83675000D01*
X143690139Y-83675000D01*
X143959723Y-83648448D01*
X144305622Y-83543521D01*
X144624404Y-83373129D01*
X144903819Y-83143819D01*
X145133129Y-82864404D01*
X145303521Y-82545622D01*
X145408448Y-82199723D01*
X145443878Y-81840000D01*
X145408448Y-81480277D01*
X145303521Y-81134378D01*
X145133129Y-80815596D01*
X144984918Y-80635000D01*
X145464421Y-80635000D01*
X145530000Y-80641459D01*
X145595579Y-80635000D01*
X145684997Y-80626193D01*
X145722828Y-80750907D01*
X145800364Y-80895966D01*
X145904709Y-81023111D01*
X146031854Y-81127456D01*
X146176913Y-81204992D01*
X146334311Y-81252738D01*
X146498000Y-81268860D01*
X148022000Y-81268860D01*
X148185689Y-81252738D01*
X148343087Y-81204992D01*
X148488146Y-81127456D01*
X148615291Y-81023111D01*
X148719636Y-80895966D01*
X148737778Y-80862025D01*
X148908462Y-81002102D01*
X149185899Y-81150394D01*
X149486934Y-81241713D01*
X149800000Y-81272547D01*
X150113067Y-81241713D01*
X150414102Y-81150394D01*
X150691539Y-81002102D01*
X150934713Y-80802533D01*
X151070000Y-80637686D01*
X151187501Y-80780860D01*
X151187500Y-82872619D01*
X148972467Y-85087653D01*
X148951713Y-84876933D01*
X148860394Y-84575898D01*
X148712102Y-84298461D01*
X148512533Y-84055287D01*
X148269359Y-83855718D01*
X147991922Y-83707426D01*
X147690887Y-83616107D01*
X147456275Y-83593000D01*
X146623725Y-83593000D01*
X146389113Y-83616107D01*
X146088078Y-83707426D01*
X145810641Y-83855718D01*
X145567467Y-84055287D01*
X145367898Y-84298461D01*
X145219606Y-84575898D01*
X145128287Y-84876933D01*
X145097453Y-85190000D01*
X145128287Y-85503067D01*
X145219606Y-85804102D01*
X145367898Y-86081539D01*
X145567467Y-86324713D01*
X145810641Y-86524282D01*
X146088078Y-86672574D01*
X146389113Y-86763893D01*
X146623725Y-86787000D01*
X147273120Y-86787000D01*
X146465091Y-87595029D01*
X146421118Y-87631117D01*
X146365641Y-87698716D01*
X146348462Y-87707898D01*
X146105287Y-87907467D01*
X145970000Y-88072314D01*
X145834713Y-87907467D01*
X145591539Y-87707898D01*
X145314102Y-87559606D01*
X145013067Y-87468287D01*
X144700000Y-87437453D01*
X144386934Y-87468287D01*
X144085899Y-87559606D01*
X143808462Y-87707898D01*
X143565287Y-87907467D01*
X143365718Y-88150641D01*
X143217426Y-88428078D01*
X143126107Y-88729113D01*
X143103000Y-88963725D01*
X143103000Y-89796274D01*
X143126107Y-90030886D01*
X143217426Y-90331921D01*
X143365718Y-90609358D01*
X143565287Y-90852533D01*
X143808461Y-91052102D01*
X144085898Y-91200394D01*
X144386933Y-91291713D01*
X144700000Y-91322547D01*
X145013066Y-91291713D01*
X145314101Y-91200394D01*
X145591538Y-91052102D01*
X145834713Y-90852533D01*
X145970000Y-90687686D01*
X146105287Y-90852533D01*
X146348461Y-91052102D01*
X146625898Y-91200394D01*
X146926933Y-91291713D01*
X147240000Y-91322547D01*
X147553066Y-91291713D01*
X147854101Y-91200394D01*
X148131538Y-91052102D01*
X148374713Y-90852533D01*
X148510000Y-90687686D01*
X148645287Y-90852533D01*
X148888461Y-91052102D01*
X149165898Y-91200394D01*
X149466933Y-91291713D01*
X149780000Y-91322547D01*
X150093066Y-91291713D01*
X150394101Y-91200394D01*
X150671538Y-91052102D01*
X150914713Y-90852533D01*
X151114282Y-90609359D01*
X151262574Y-90331922D01*
X151353893Y-90030887D01*
X151377000Y-89796275D01*
X151377000Y-88963726D01*
X151353893Y-88729114D01*
X151262574Y-88428078D01*
X151114282Y-88150641D01*
X150914713Y-87907467D01*
X150671539Y-87707898D01*
X150394102Y-87559606D01*
X150093067Y-87468287D01*
X149873244Y-87446637D01*
X153114911Y-84204970D01*
X153158883Y-84168883D01*
X153302905Y-83993393D01*
X153409923Y-83793176D01*
X153475824Y-83575929D01*
X153492500Y-83406614D01*
X153492500Y-83406608D01*
X153498075Y-83350001D01*
X153492500Y-83293394D01*
X153492500Y-80780860D01*
X153674282Y-80559359D01*
X153822574Y-80281922D01*
X153913893Y-79980886D01*
X153937000Y-79746274D01*
X153937000Y-78913725D01*
X153913893Y-78679113D01*
X153822574Y-78378078D01*
X153746098Y-78235000D01*
X155947026Y-78235000D01*
X155990608Y-78278582D01*
X155937426Y-78378079D01*
X155846107Y-78679114D01*
X155823000Y-78913726D01*
X155823000Y-79746275D01*
X155846107Y-79980887D01*
X155937426Y-80281922D01*
X156085718Y-80559359D01*
X156125001Y-80607225D01*
X156125001Y-80822264D01*
X155993854Y-80892364D01*
X155866709Y-80996709D01*
X155762364Y-81123854D01*
X155684828Y-81268913D01*
X155637082Y-81426311D01*
X155620960Y-81590000D01*
X155620960Y-83590000D01*
X155636704Y-83749850D01*
X155388294Y-83774317D01*
X155136646Y-83850653D01*
X154904725Y-83974618D01*
X154701445Y-84141445D01*
X154659641Y-84192384D01*
X153792387Y-85059639D01*
X153741446Y-85101445D01*
X153668771Y-85190000D01*
X153574618Y-85304726D01*
X153450654Y-85536646D01*
X153374317Y-85788295D01*
X153348541Y-86050000D01*
X153355001Y-86115588D01*
X153355000Y-88468421D01*
X153348541Y-88534000D01*
X153355000Y-88599578D01*
X153374317Y-88795705D01*
X153450653Y-89047353D01*
X153574618Y-89279274D01*
X153741445Y-89482555D01*
X153792391Y-89524365D01*
X153840026Y-89572000D01*
X153682387Y-89729639D01*
X153631446Y-89771445D01*
X153567238Y-89849683D01*
X153464618Y-89974726D01*
X153340654Y-90206646D01*
X153264317Y-90458295D01*
X153238541Y-90720000D01*
X153245001Y-90785588D01*
X153245000Y-94364336D01*
X153171087Y-94324828D01*
X153013689Y-94277082D01*
X152850000Y-94260960D01*
X150450000Y-94260960D01*
X150286311Y-94277082D01*
X150128913Y-94324828D01*
X149983854Y-94402364D01*
X149856709Y-94506709D01*
X149752364Y-94633854D01*
X149674828Y-94778913D01*
X149627082Y-94936311D01*
X149610960Y-95100000D01*
X149610960Y-95665000D01*
X146441019Y-95665000D01*
X146400000Y-95660960D01*
X144000000Y-95660960D01*
X143958981Y-95665000D01*
X143065575Y-95665000D01*
X142999999Y-95658541D01*
X142934423Y-95665000D01*
X142934421Y-95665000D01*
X142738294Y-95684317D01*
X142486646Y-95760653D01*
X142254725Y-95884618D01*
X142051445Y-96051445D01*
X142009634Y-96102392D01*
X141262392Y-96849634D01*
X141211445Y-96891445D01*
X141044618Y-97094726D01*
X140920653Y-97326647D01*
X140856325Y-97538709D01*
X140844317Y-97578295D01*
X140818541Y-97840000D01*
X140825000Y-97905579D01*
X140825000Y-97982430D01*
X140559835Y-97982430D01*
X140253506Y-98043362D01*
X140119036Y-98099062D01*
X140104366Y-98084392D01*
X140062555Y-98033445D01*
X139859275Y-97866618D01*
X139679618Y-97770589D01*
X139623636Y-97665854D01*
X139519291Y-97538709D01*
X139392146Y-97434364D01*
X139247087Y-97356828D01*
X139089689Y-97309082D01*
X138926000Y-97292960D01*
X137426000Y-97292960D01*
X137262311Y-97309082D01*
X137104913Y-97356828D01*
X136959854Y-97434364D01*
X136832709Y-97538709D01*
X136789529Y-97591324D01*
X136774991Y-97573609D01*
X136770593Y-97570000D01*
X136774991Y-97566391D01*
X136879336Y-97439246D01*
X136956872Y-97294187D01*
X137004618Y-97136789D01*
X137020740Y-96973100D01*
X137020740Y-95372900D01*
X137004618Y-95209211D01*
X136982308Y-95135666D01*
X140517620Y-91600356D01*
X140568555Y-91558555D01*
X140645109Y-91465274D01*
X140735382Y-91355275D01*
X140769357Y-91291713D01*
X140859347Y-91123354D01*
X140935683Y-90871706D01*
X140955000Y-90675579D01*
X140955000Y-90675578D01*
X140961459Y-90610000D01*
X140960289Y-90598121D01*
X141102574Y-90331922D01*
X141193893Y-90030887D01*
X141217000Y-89796275D01*
X141217000Y-88963726D01*
X141193893Y-88729114D01*
X141102574Y-88428078D01*
X140954282Y-88150641D01*
X140754713Y-87907467D01*
X140511539Y-87707898D01*
X140234102Y-87559606D01*
X139933067Y-87468287D01*
X139620000Y-87437453D01*
X139306934Y-87468287D01*
X139005899Y-87559606D01*
X138728462Y-87707898D01*
X138485287Y-87907467D01*
X138350000Y-88072314D01*
X138214713Y-87907467D01*
X137971539Y-87707898D01*
X137694102Y-87559606D01*
X137393067Y-87468287D01*
X137080000Y-87437453D01*
X136766934Y-87468287D01*
X136465899Y-87559606D01*
X136188462Y-87707898D01*
X135945287Y-87907467D01*
X135810000Y-88072314D01*
X135674713Y-87907467D01*
X135431539Y-87707898D01*
X135154102Y-87559606D01*
X134853067Y-87468287D01*
X134540000Y-87437453D01*
X134226934Y-87468287D01*
X133925899Y-87559606D01*
X133648462Y-87707898D01*
X133405287Y-87907467D01*
X133270000Y-88072314D01*
X133134713Y-87907467D01*
X132891539Y-87707898D01*
X132614102Y-87559606D01*
X132313067Y-87468287D01*
X132000000Y-87437453D01*
X131686934Y-87468287D01*
X131385899Y-87559606D01*
X131108462Y-87707898D01*
X130865287Y-87907467D01*
X130795000Y-87993111D01*
X130795000Y-85492974D01*
X132397613Y-83890361D01*
X132448555Y-83848555D01*
X132615382Y-83645275D01*
X132739347Y-83413354D01*
X132815683Y-83161706D01*
X132835000Y-82965579D01*
X132841459Y-82900000D01*
X132835000Y-82834421D01*
X132835000Y-79465825D01*
X133033129Y-79224404D01*
X133203521Y-78905622D01*
X133308448Y-78559723D01*
X133343878Y-78200000D01*
X133308448Y-77840277D01*
X133203521Y-77494378D01*
X133033129Y-77175596D01*
X132803819Y-76896181D01*
X132524404Y-76666871D01*
X132205622Y-76496479D01*
X131859723Y-76391552D01*
X131590139Y-76365000D01*
X131409861Y-76365000D01*
X131140277Y-76391552D01*
X130794378Y-76496479D01*
X130563920Y-76619661D01*
X130553291Y-76606709D01*
X130426146Y-76502364D01*
X130281087Y-76424828D01*
X130123689Y-76377082D01*
X129960000Y-76360960D01*
X127960000Y-76360960D01*
X127796311Y-76377082D01*
X127638913Y-76424828D01*
X127493854Y-76502364D01*
X127366709Y-76606709D01*
X127262364Y-76733854D01*
X127184828Y-76878913D01*
X127137082Y-77036311D01*
X127120960Y-77200000D01*
X127120960Y-79200000D01*
X127137082Y-79363689D01*
X127184828Y-79521087D01*
X127262364Y-79666146D01*
X127345084Y-79766941D01*
X120942392Y-86169634D01*
X120891445Y-86211445D01*
X120724618Y-86414726D01*
X120600653Y-86646647D01*
X120588331Y-86687268D01*
X120524317Y-86898295D01*
X120498541Y-87160000D01*
X120505000Y-87225579D01*
X120505000Y-87993112D01*
X120434713Y-87907467D01*
X120191539Y-87707898D01*
X119914102Y-87559606D01*
X119613067Y-87468287D01*
X119300000Y-87437453D01*
X118986934Y-87468287D01*
X118685899Y-87559606D01*
X118408462Y-87707898D01*
X118165287Y-87907467D01*
X118030000Y-88072314D01*
X117894713Y-87907467D01*
X117651539Y-87707898D01*
X117374102Y-87559606D01*
X117073067Y-87468287D01*
X116760000Y-87437453D01*
X116446934Y-87468287D01*
X116145899Y-87559606D01*
X115949151Y-87664769D01*
X115960740Y-87547100D01*
X115960740Y-85946900D01*
X115944618Y-85783211D01*
X115896872Y-85625813D01*
X115819336Y-85480754D01*
X115714991Y-85353609D01*
X115587846Y-85249264D01*
X115442787Y-85171728D01*
X115285389Y-85123982D01*
X115121700Y-85107860D01*
X113318300Y-85107860D01*
X113154611Y-85123982D01*
X112997213Y-85171728D01*
X112852154Y-85249264D01*
X112725009Y-85353609D01*
X112620664Y-85480754D01*
X112543128Y-85625813D01*
X112495382Y-85783211D01*
X112479260Y-85946900D01*
X112479260Y-87547100D01*
X112495382Y-87710789D01*
X112543128Y-87868187D01*
X112620664Y-88013246D01*
X112725009Y-88140391D01*
X112840525Y-88235192D01*
X112737426Y-88428078D01*
X112646107Y-88729113D01*
X112623000Y-88963725D01*
X112623000Y-89796274D01*
X112646107Y-90030886D01*
X112737426Y-90331921D01*
X112885000Y-90608015D01*
X112885000Y-91264421D01*
X112878541Y-91330000D01*
X112896035Y-91507617D01*
X112904317Y-91591705D01*
X112980653Y-91843353D01*
X113104618Y-92075274D01*
X113271445Y-92278555D01*
X113322391Y-92320365D01*
X114099638Y-93097613D01*
X114141445Y-93148555D01*
X114344725Y-93315382D01*
X114576646Y-93439347D01*
X114828294Y-93515683D01*
X115090000Y-93541459D01*
X115155579Y-93535000D01*
X125327026Y-93535000D01*
X126087500Y-94295475D01*
X126087500Y-94658938D01*
X126106817Y-94855065D01*
X126183153Y-95106713D01*
X126307118Y-95338634D01*
X126330578Y-95367220D01*
X126170280Y-95367220D01*
X126006591Y-95383342D01*
X125849193Y-95431088D01*
X125704134Y-95508624D01*
X125576989Y-95612969D01*
X125534288Y-95665000D01*
X121810082Y-95665000D01*
X121719744Y-95574662D01*
X121419199Y-95373844D01*
X121085250Y-95235518D01*
X120730732Y-95165000D01*
X120369268Y-95165000D01*
X120014750Y-95235518D01*
X119680801Y-95373844D01*
X119380256Y-95574662D01*
X119124662Y-95830256D01*
X118923844Y-96130801D01*
X118785518Y-96464750D01*
X118715000Y-96819268D01*
X118715000Y-97180732D01*
X118785518Y-97535250D01*
X118923844Y-97869199D01*
X119124662Y-98169744D01*
X119380256Y-98425338D01*
X119680801Y-98626156D01*
X120014750Y-98764482D01*
X120369268Y-98835000D01*
X120730732Y-98835000D01*
X121085250Y-98764482D01*
X121419199Y-98626156D01*
X121719744Y-98425338D01*
X121810082Y-98335000D01*
X125132973Y-98335000D01*
X125128541Y-98380000D01*
X125154317Y-98641705D01*
X125230654Y-98893354D01*
X125316867Y-99054646D01*
X125354619Y-99125275D01*
X125521446Y-99328555D01*
X125571140Y-99369338D01*
X125571140Y-99945579D01*
X125590457Y-100141706D01*
X125642382Y-100312881D01*
X125652060Y-100411140D01*
X115489115Y-100411140D01*
X114285000Y-99207026D01*
X114285000Y-98260082D01*
X114375338Y-98169744D01*
X114576156Y-97869199D01*
X114714482Y-97535250D01*
X114785000Y-97180732D01*
X114785000Y-96819268D01*
X114714482Y-96464750D01*
X114576156Y-96130801D01*
X114375338Y-95830256D01*
X114119744Y-95574662D01*
X113819199Y-95373844D01*
X113485250Y-95235518D01*
X113130732Y-95165000D01*
X112769268Y-95165000D01*
X112414750Y-95235518D01*
X112080801Y-95373844D01*
X111780256Y-95574662D01*
X111524662Y-95830256D01*
X111323844Y-96130801D01*
X111185518Y-96464750D01*
X111115000Y-96819268D01*
X111115000Y-97180732D01*
X111185518Y-97535250D01*
X111323844Y-97869199D01*
X111524662Y-98169744D01*
X111615001Y-98260083D01*
X111615000Y-99694421D01*
X111608541Y-99760000D01*
X111618288Y-99858960D01*
X111634317Y-100021705D01*
X111710653Y-100273353D01*
X111834618Y-100505274D01*
X112001445Y-100708555D01*
X112052392Y-100750366D01*
X113945779Y-102643753D01*
X113987585Y-102694695D01*
X113993730Y-102699738D01*
X113906934Y-102708287D01*
X113605899Y-102799606D01*
X113328462Y-102947898D01*
X113085287Y-103147467D01*
X112885718Y-103390641D01*
X112737426Y-103668078D01*
X112646107Y-103969113D01*
X112623000Y-104203725D01*
X112623000Y-105036274D01*
X112646107Y-105270886D01*
X112737426Y-105571921D01*
X112885718Y-105849358D01*
X112929883Y-105903173D01*
X112929883Y-106316152D01*
X112924000Y-106375883D01*
X112929883Y-106435614D01*
X112947478Y-106614260D01*
X113017010Y-106843476D01*
X113129924Y-107054724D01*
X113281881Y-107239885D01*
X113328289Y-107277971D01*
X114022994Y-107972677D01*
X114061076Y-108019080D01*
X114246236Y-108171037D01*
X114457484Y-108283951D01*
X114672294Y-108349113D01*
X114686700Y-108353483D01*
X114925077Y-108376961D01*
X114984809Y-108371078D01*
X116346365Y-108371078D01*
X116752885Y-108777599D01*
X116790967Y-108824002D01*
X116976127Y-108975959D01*
X117187375Y-109088873D01*
X117416591Y-109158405D01*
X117487393Y-109165378D01*
X117540426Y-109230000D01*
X117338871Y-109475596D01*
X117168479Y-109794378D01*
X117063552Y-110140277D01*
X117028122Y-110500000D01*
X117063552Y-110859723D01*
X117168479Y-111205622D01*
X117338871Y-111524404D01*
X117568181Y-111803819D01*
X117847596Y-112033129D01*
X118166378Y-112203521D01*
X118512277Y-112308448D01*
X118781861Y-112335000D01*
X118962139Y-112335000D01*
X119231723Y-112308448D01*
X119577622Y-112203521D01*
X119896404Y-112033129D01*
X120137825Y-111835000D01*
X120146175Y-111835000D01*
X120387596Y-112033129D01*
X120706378Y-112203521D01*
X121052277Y-112308448D01*
X121321861Y-112335000D01*
X121502139Y-112335000D01*
X121771723Y-112308448D01*
X122117622Y-112203521D01*
X122436404Y-112033129D01*
X122677825Y-111835000D01*
X122686175Y-111835000D01*
X122927596Y-112033129D01*
X123246378Y-112203521D01*
X123592277Y-112308448D01*
X123861861Y-112335000D01*
X124042139Y-112335000D01*
X124311723Y-112308448D01*
X124657622Y-112203521D01*
X124976404Y-112033129D01*
X125223586Y-111830272D01*
X125371706Y-111815683D01*
X125623354Y-111739347D01*
X125855275Y-111615382D01*
X126058555Y-111448555D01*
X126100365Y-111397609D01*
X126899160Y-110598814D01*
X126988461Y-110672102D01*
X127154200Y-110760690D01*
X127028462Y-110827898D01*
X126785287Y-111027467D01*
X126585718Y-111270641D01*
X126437426Y-111548078D01*
X126346107Y-111849113D01*
X126323000Y-112083725D01*
X126323000Y-112916274D01*
X126346107Y-113150886D01*
X126437426Y-113451921D01*
X126585718Y-113729358D01*
X126785287Y-113972533D01*
X126958882Y-114115000D01*
X115039409Y-114115000D01*
X114271918Y-114046503D01*
X113566853Y-113853619D01*
X112907086Y-113538926D01*
X112313474Y-113112372D01*
X111804777Y-112587438D01*
X111397081Y-111980723D01*
X111103266Y-111311395D01*
X110973295Y-110770023D01*
X111665000Y-110770023D01*
X111665000Y-111229977D01*
X111754733Y-111681094D01*
X111930750Y-112106037D01*
X112186287Y-112488476D01*
X112511524Y-112813713D01*
X112893963Y-113069250D01*
X113318906Y-113245267D01*
X113770023Y-113335000D01*
X114229977Y-113335000D01*
X114681094Y-113245267D01*
X115106037Y-113069250D01*
X115488476Y-112813713D01*
X115813713Y-112488476D01*
X116069250Y-112106037D01*
X116245267Y-111681094D01*
X116335000Y-111229977D01*
X116335000Y-110770023D01*
X116245267Y-110318906D01*
X116069250Y-109893963D01*
X115813713Y-109511524D01*
X115488476Y-109186287D01*
X115106037Y-108930750D01*
X114681094Y-108754733D01*
X114229977Y-108665000D01*
X113770023Y-108665000D01*
X113318906Y-108754733D01*
X112893963Y-108930750D01*
X112511524Y-109186287D01*
X112186287Y-109511524D01*
X111930750Y-109893963D01*
X111754733Y-110318906D01*
X111665000Y-110770023D01*
X110973295Y-110770023D01*
X110930989Y-110593810D01*
X110885000Y-109967554D01*
X110885000Y-80039410D01*
X110953497Y-79271919D01*
X111090800Y-78770023D01*
X111665000Y-78770023D01*
X111665000Y-79229977D01*
X111754733Y-79681094D01*
X111930750Y-80106037D01*
X112186287Y-80488476D01*
X112511524Y-80813713D01*
X112893963Y-81069250D01*
X113318906Y-81245267D01*
X113770023Y-81335000D01*
X114229977Y-81335000D01*
X114681094Y-81245267D01*
X115106037Y-81069250D01*
X115488476Y-80813713D01*
X115813713Y-80488476D01*
X116069250Y-80106037D01*
X116245267Y-79681094D01*
X116335000Y-79229977D01*
X116335000Y-78770023D01*
X116245267Y-78318906D01*
X116069250Y-77893963D01*
X115813713Y-77511524D01*
X115488476Y-77186287D01*
X115434169Y-77150000D01*
X118410960Y-77150000D01*
X118410960Y-79150000D01*
X118427082Y-79313689D01*
X118474828Y-79471087D01*
X118552364Y-79616146D01*
X118656709Y-79743291D01*
X118783854Y-79847636D01*
X118928913Y-79925172D01*
X119086311Y-79972918D01*
X119250000Y-79989040D01*
X121250000Y-79989040D01*
X121413689Y-79972918D01*
X121571087Y-79925172D01*
X121716146Y-79847636D01*
X121843291Y-79743291D01*
X121853920Y-79730339D01*
X122084378Y-79853521D01*
X122430277Y-79958448D01*
X122699861Y-79985000D01*
X122880139Y-79985000D01*
X123149723Y-79958448D01*
X123495622Y-79853521D01*
X123814404Y-79683129D01*
X124093819Y-79453819D01*
X124323129Y-79174404D01*
X124493521Y-78855622D01*
X124598448Y-78509723D01*
X124633878Y-78150000D01*
X124598448Y-77790277D01*
X124493521Y-77444378D01*
X124323129Y-77125596D01*
X124093819Y-76846181D01*
X123814404Y-76616871D01*
X123495622Y-76446479D01*
X123149723Y-76341552D01*
X122880139Y-76315000D01*
X122699861Y-76315000D01*
X122430277Y-76341552D01*
X122084378Y-76446479D01*
X121853920Y-76569661D01*
X121843291Y-76556709D01*
X121716146Y-76452364D01*
X121571087Y-76374828D01*
X121413689Y-76327082D01*
X121250000Y-76310960D01*
X119250000Y-76310960D01*
X119086311Y-76327082D01*
X118928913Y-76374828D01*
X118783854Y-76452364D01*
X118656709Y-76556709D01*
X118552364Y-76683854D01*
X118474828Y-76828913D01*
X118427082Y-76986311D01*
X118410960Y-77150000D01*
X115434169Y-77150000D01*
X115106037Y-76930750D01*
X114681094Y-76754733D01*
X114229977Y-76665000D01*
X113770023Y-76665000D01*
X113318906Y-76754733D01*
X112893963Y-76930750D01*
X112511524Y-77186287D01*
X112186287Y-77511524D01*
X111930750Y-77893963D01*
X111754733Y-78318906D01*
X111665000Y-78770023D01*
X111090800Y-78770023D01*
X111146381Y-78566853D01*
X111461075Y-77907084D01*
X111887628Y-77313473D01*
X112412559Y-76804779D01*
X113019279Y-76397080D01*
X113688605Y-76103266D01*
X114406191Y-75930989D01*
X115032447Y-75885000D01*
X147062409Y-75885000D01*
X146981445Y-75951445D01*
X146981445Y-75951445D01*
G37*
X146981445Y-75951445D02*
X146939639Y-76002386D01*
X144977026Y-77965000D01*
X144865825Y-77965000D01*
X144624404Y-77766871D01*
X144305622Y-77596479D01*
X143959723Y-77491552D01*
X143690139Y-77465000D01*
X143509861Y-77465000D01*
X143240277Y-77491552D01*
X142894378Y-77596479D01*
X142575596Y-77766871D01*
X142382915Y-77925000D01*
X141817085Y-77925000D01*
X141624404Y-77766871D01*
X141305622Y-77596479D01*
X140959723Y-77491552D01*
X140690139Y-77465000D01*
X140509861Y-77465000D01*
X140240277Y-77491552D01*
X139894378Y-77596479D01*
X139575596Y-77766871D01*
X139382915Y-77925000D01*
X138817085Y-77925000D01*
X138624404Y-77766871D01*
X138305622Y-77596479D01*
X137959723Y-77491552D01*
X137690139Y-77465000D01*
X137509861Y-77465000D01*
X137240277Y-77491552D01*
X136894378Y-77596479D01*
X136575596Y-77766871D01*
X136296181Y-77996181D01*
X136066871Y-78275596D01*
X135896479Y-78594378D01*
X135791552Y-78940277D01*
X135756122Y-79300000D01*
X135791552Y-79659723D01*
X135896479Y-80005622D01*
X136066871Y-80324404D01*
X136268426Y-80570000D01*
X136066871Y-80815596D01*
X135896479Y-81134378D01*
X135791552Y-81480277D01*
X135756122Y-81840000D01*
X135791552Y-82199723D01*
X135896479Y-82545622D01*
X136066871Y-82864404D01*
X136296181Y-83143819D01*
X136575596Y-83373129D01*
X136894378Y-83543521D01*
X137240277Y-83648448D01*
X137509861Y-83675000D01*
X137690139Y-83675000D01*
X137959723Y-83648448D01*
X138305622Y-83543521D01*
X138624404Y-83373129D01*
X138903819Y-83143819D01*
X139100000Y-82904772D01*
X139296181Y-83143819D01*
X139575596Y-83373129D01*
X139894378Y-83543521D01*
X140240277Y-83648448D01*
X140509861Y-83675000D01*
X140690139Y-83675000D01*
X140959723Y-83648448D01*
X141305622Y-83543521D01*
X141624404Y-83373129D01*
X141903819Y-83143819D01*
X142100000Y-82904772D01*
X142296181Y-83143819D01*
X142575596Y-83373129D01*
X142894378Y-83543521D01*
X143240277Y-83648448D01*
X143509861Y-83675000D01*
X143690139Y-83675000D01*
X143959723Y-83648448D01*
X144305622Y-83543521D01*
X144624404Y-83373129D01*
X144903819Y-83143819D01*
X145133129Y-82864404D01*
X145303521Y-82545622D01*
X145408448Y-82199723D01*
X145443878Y-81840000D01*
X145408448Y-81480277D01*
X145303521Y-81134378D01*
X145133129Y-80815596D01*
X144984918Y-80635000D01*
X145464421Y-80635000D01*
X145530000Y-80641459D01*
X145595579Y-80635000D01*
X145684997Y-80626193D01*
X145722828Y-80750907D01*
X145800364Y-80895966D01*
X145904709Y-81023111D01*
X146031854Y-81127456D01*
X146176913Y-81204992D01*
X146334311Y-81252738D01*
X146498000Y-81268860D01*
X148022000Y-81268860D01*
X148185689Y-81252738D01*
X148343087Y-81204992D01*
X148488146Y-81127456D01*
X148615291Y-81023111D01*
X148719636Y-80895966D01*
X148737778Y-80862025D01*
X148908462Y-81002102D01*
X149185899Y-81150394D01*
X149486934Y-81241713D01*
X149800000Y-81272547D01*
X150113067Y-81241713D01*
X150414102Y-81150394D01*
X150691539Y-81002102D01*
X150934713Y-80802533D01*
X151070000Y-80637686D01*
X151187501Y-80780860D01*
X151187500Y-82872619D01*
X148972467Y-85087653D01*
X148951713Y-84876933D01*
X148860394Y-84575898D01*
X148712102Y-84298461D01*
X148512533Y-84055287D01*
X148269359Y-83855718D01*
X147991922Y-83707426D01*
X147690887Y-83616107D01*
X147456275Y-83593000D01*
X146623725Y-83593000D01*
X146389113Y-83616107D01*
X146088078Y-83707426D01*
X145810641Y-83855718D01*
X145567467Y-84055287D01*
X145367898Y-84298461D01*
X145219606Y-84575898D01*
X145128287Y-84876933D01*
X145097453Y-85190000D01*
X145128287Y-85503067D01*
X145219606Y-85804102D01*
X145367898Y-86081539D01*
X145567467Y-86324713D01*
X145810641Y-86524282D01*
X146088078Y-86672574D01*
X146389113Y-86763893D01*
X146623725Y-86787000D01*
X147273120Y-86787000D01*
X146465091Y-87595029D01*
X146421118Y-87631117D01*
X146365641Y-87698716D01*
X146348462Y-87707898D01*
X146105287Y-87907467D01*
X145970000Y-88072314D01*
X145834713Y-87907467D01*
X145591539Y-87707898D01*
X145314102Y-87559606D01*
X145013067Y-87468287D01*
X144700000Y-87437453D01*
X144386934Y-87468287D01*
X144085899Y-87559606D01*
X143808462Y-87707898D01*
X143565287Y-87907467D01*
X143365718Y-88150641D01*
X143217426Y-88428078D01*
X143126107Y-88729113D01*
X143103000Y-88963725D01*
X143103000Y-89796274D01*
X143126107Y-90030886D01*
X143217426Y-90331921D01*
X143365718Y-90609358D01*
X143565287Y-90852533D01*
X143808461Y-91052102D01*
X144085898Y-91200394D01*
X144386933Y-91291713D01*
X144700000Y-91322547D01*
X145013066Y-91291713D01*
X145314101Y-91200394D01*
X145591538Y-91052102D01*
X145834713Y-90852533D01*
X145970000Y-90687686D01*
X146105287Y-90852533D01*
X146348461Y-91052102D01*
X146625898Y-91200394D01*
X146926933Y-91291713D01*
X147240000Y-91322547D01*
X147553066Y-91291713D01*
X147854101Y-91200394D01*
X148131538Y-91052102D01*
X148374713Y-90852533D01*
X148510000Y-90687686D01*
X148645287Y-90852533D01*
X148888461Y-91052102D01*
X149165898Y-91200394D01*
X149466933Y-91291713D01*
X149780000Y-91322547D01*
X150093066Y-91291713D01*
X150394101Y-91200394D01*
X150671538Y-91052102D01*
X150914713Y-90852533D01*
X151114282Y-90609359D01*
X151262574Y-90331922D01*
X151353893Y-90030887D01*
X151377000Y-89796275D01*
X151377000Y-88963726D01*
X151353893Y-88729114D01*
X151262574Y-88428078D01*
X151114282Y-88150641D01*
X150914713Y-87907467D01*
X150671539Y-87707898D01*
X150394102Y-87559606D01*
X150093067Y-87468287D01*
X149873244Y-87446637D01*
X153114911Y-84204970D01*
X153158883Y-84168883D01*
X153302905Y-83993393D01*
X153409923Y-83793176D01*
X153475824Y-83575929D01*
X153492500Y-83406614D01*
X153492500Y-83406608D01*
X153498075Y-83350001D01*
X153492500Y-83293394D01*
X153492500Y-80780860D01*
X153674282Y-80559359D01*
X153822574Y-80281922D01*
X153913893Y-79980886D01*
X153937000Y-79746274D01*
X153937000Y-78913725D01*
X153913893Y-78679113D01*
X153822574Y-78378078D01*
X153746098Y-78235000D01*
X155947026Y-78235000D01*
X155990608Y-78278582D01*
X155937426Y-78378079D01*
X155846107Y-78679114D01*
X155823000Y-78913726D01*
X155823000Y-79746275D01*
X155846107Y-79980887D01*
X155937426Y-80281922D01*
X156085718Y-80559359D01*
X156125001Y-80607225D01*
X156125001Y-80822264D01*
X155993854Y-80892364D01*
X155866709Y-80996709D01*
X155762364Y-81123854D01*
X155684828Y-81268913D01*
X155637082Y-81426311D01*
X155620960Y-81590000D01*
X155620960Y-83590000D01*
X155636704Y-83749850D01*
X155388294Y-83774317D01*
X155136646Y-83850653D01*
X154904725Y-83974618D01*
X154701445Y-84141445D01*
X154659641Y-84192384D01*
X153792387Y-85059639D01*
X153741446Y-85101445D01*
X153668771Y-85190000D01*
X153574618Y-85304726D01*
X153450654Y-85536646D01*
X153374317Y-85788295D01*
X153348541Y-86050000D01*
X153355001Y-86115588D01*
X153355000Y-88468421D01*
X153348541Y-88534000D01*
X153355000Y-88599578D01*
X153374317Y-88795705D01*
X153450653Y-89047353D01*
X153574618Y-89279274D01*
X153741445Y-89482555D01*
X153792391Y-89524365D01*
X153840026Y-89572000D01*
X153682387Y-89729639D01*
X153631446Y-89771445D01*
X153567238Y-89849683D01*
X153464618Y-89974726D01*
X153340654Y-90206646D01*
X153264317Y-90458295D01*
X153238541Y-90720000D01*
X153245001Y-90785588D01*
X153245000Y-94364336D01*
X153171087Y-94324828D01*
X153013689Y-94277082D01*
X152850000Y-94260960D01*
X150450000Y-94260960D01*
X150286311Y-94277082D01*
X150128913Y-94324828D01*
X149983854Y-94402364D01*
X149856709Y-94506709D01*
X149752364Y-94633854D01*
X149674828Y-94778913D01*
X149627082Y-94936311D01*
X149610960Y-95100000D01*
X149610960Y-95665000D01*
X146441019Y-95665000D01*
X146400000Y-95660960D01*
X144000000Y-95660960D01*
X143958981Y-95665000D01*
X143065575Y-95665000D01*
X142999999Y-95658541D01*
X142934423Y-95665000D01*
X142934421Y-95665000D01*
X142738294Y-95684317D01*
X142486646Y-95760653D01*
X142254725Y-95884618D01*
X142051445Y-96051445D01*
X142009634Y-96102392D01*
X141262392Y-96849634D01*
X141211445Y-96891445D01*
X141044618Y-97094726D01*
X140920653Y-97326647D01*
X140856325Y-97538709D01*
X140844317Y-97578295D01*
X140818541Y-97840000D01*
X140825000Y-97905579D01*
X140825000Y-97982430D01*
X140559835Y-97982430D01*
X140253506Y-98043362D01*
X140119036Y-98099062D01*
X140104366Y-98084392D01*
X140062555Y-98033445D01*
X139859275Y-97866618D01*
X139679618Y-97770589D01*
X139623636Y-97665854D01*
X139519291Y-97538709D01*
X139392146Y-97434364D01*
X139247087Y-97356828D01*
X139089689Y-97309082D01*
X138926000Y-97292960D01*
X137426000Y-97292960D01*
X137262311Y-97309082D01*
X137104913Y-97356828D01*
X136959854Y-97434364D01*
X136832709Y-97538709D01*
X136789529Y-97591324D01*
X136774991Y-97573609D01*
X136770593Y-97570000D01*
X136774991Y-97566391D01*
X136879336Y-97439246D01*
X136956872Y-97294187D01*
X137004618Y-97136789D01*
X137020740Y-96973100D01*
X137020740Y-95372900D01*
X137004618Y-95209211D01*
X136982308Y-95135666D01*
X140517620Y-91600356D01*
X140568555Y-91558555D01*
X140645109Y-91465274D01*
X140735382Y-91355275D01*
X140769357Y-91291713D01*
X140859347Y-91123354D01*
X140935683Y-90871706D01*
X140955000Y-90675579D01*
X140955000Y-90675578D01*
X140961459Y-90610000D01*
X140960289Y-90598121D01*
X141102574Y-90331922D01*
X141193893Y-90030887D01*
X141217000Y-89796275D01*
X141217000Y-88963726D01*
X141193893Y-88729114D01*
X141102574Y-88428078D01*
X140954282Y-88150641D01*
X140754713Y-87907467D01*
X140511539Y-87707898D01*
X140234102Y-87559606D01*
X139933067Y-87468287D01*
X139620000Y-87437453D01*
X139306934Y-87468287D01*
X139005899Y-87559606D01*
X138728462Y-87707898D01*
X138485287Y-87907467D01*
X138350000Y-88072314D01*
X138214713Y-87907467D01*
X137971539Y-87707898D01*
X137694102Y-87559606D01*
X137393067Y-87468287D01*
X137080000Y-87437453D01*
X136766934Y-87468287D01*
X136465899Y-87559606D01*
X136188462Y-87707898D01*
X135945287Y-87907467D01*
X135810000Y-88072314D01*
X135674713Y-87907467D01*
X135431539Y-87707898D01*
X135154102Y-87559606D01*
X134853067Y-87468287D01*
X134540000Y-87437453D01*
X134226934Y-87468287D01*
X133925899Y-87559606D01*
X133648462Y-87707898D01*
X133405287Y-87907467D01*
X133270000Y-88072314D01*
X133134713Y-87907467D01*
X132891539Y-87707898D01*
X132614102Y-87559606D01*
X132313067Y-87468287D01*
X132000000Y-87437453D01*
X131686934Y-87468287D01*
X131385899Y-87559606D01*
X131108462Y-87707898D01*
X130865287Y-87907467D01*
X130795000Y-87993111D01*
X130795000Y-85492974D01*
X132397613Y-83890361D01*
X132448555Y-83848555D01*
X132615382Y-83645275D01*
X132739347Y-83413354D01*
X132815683Y-83161706D01*
X132835000Y-82965579D01*
X132841459Y-82900000D01*
X132835000Y-82834421D01*
X132835000Y-79465825D01*
X133033129Y-79224404D01*
X133203521Y-78905622D01*
X133308448Y-78559723D01*
X133343878Y-78200000D01*
X133308448Y-77840277D01*
X133203521Y-77494378D01*
X133033129Y-77175596D01*
X132803819Y-76896181D01*
X132524404Y-76666871D01*
X132205622Y-76496479D01*
X131859723Y-76391552D01*
X131590139Y-76365000D01*
X131409861Y-76365000D01*
X131140277Y-76391552D01*
X130794378Y-76496479D01*
X130563920Y-76619661D01*
X130553291Y-76606709D01*
X130426146Y-76502364D01*
X130281087Y-76424828D01*
X130123689Y-76377082D01*
X129960000Y-76360960D01*
X127960000Y-76360960D01*
X127796311Y-76377082D01*
X127638913Y-76424828D01*
X127493854Y-76502364D01*
X127366709Y-76606709D01*
X127262364Y-76733854D01*
X127184828Y-76878913D01*
X127137082Y-77036311D01*
X127120960Y-77200000D01*
X127120960Y-79200000D01*
X127137082Y-79363689D01*
X127184828Y-79521087D01*
X127262364Y-79666146D01*
X127345084Y-79766941D01*
X120942392Y-86169634D01*
X120891445Y-86211445D01*
X120724618Y-86414726D01*
X120600653Y-86646647D01*
X120588331Y-86687268D01*
X120524317Y-86898295D01*
X120498541Y-87160000D01*
X120505000Y-87225579D01*
X120505000Y-87993112D01*
X120434713Y-87907467D01*
X120191539Y-87707898D01*
X119914102Y-87559606D01*
X119613067Y-87468287D01*
X119300000Y-87437453D01*
X118986934Y-87468287D01*
X118685899Y-87559606D01*
X118408462Y-87707898D01*
X118165287Y-87907467D01*
X118030000Y-88072314D01*
X117894713Y-87907467D01*
X117651539Y-87707898D01*
X117374102Y-87559606D01*
X117073067Y-87468287D01*
X116760000Y-87437453D01*
X116446934Y-87468287D01*
X116145899Y-87559606D01*
X115949151Y-87664769D01*
X115960740Y-87547100D01*
X115960740Y-85946900D01*
X115944618Y-85783211D01*
X115896872Y-85625813D01*
X115819336Y-85480754D01*
X115714991Y-85353609D01*
X115587846Y-85249264D01*
X115442787Y-85171728D01*
X115285389Y-85123982D01*
X115121700Y-85107860D01*
X113318300Y-85107860D01*
X113154611Y-85123982D01*
X112997213Y-85171728D01*
X112852154Y-85249264D01*
X112725009Y-85353609D01*
X112620664Y-85480754D01*
X112543128Y-85625813D01*
X112495382Y-85783211D01*
X112479260Y-85946900D01*
X112479260Y-87547100D01*
X112495382Y-87710789D01*
X112543128Y-87868187D01*
X112620664Y-88013246D01*
X112725009Y-88140391D01*
X112840525Y-88235192D01*
X112737426Y-88428078D01*
X112646107Y-88729113D01*
X112623000Y-88963725D01*
X112623000Y-89796274D01*
X112646107Y-90030886D01*
X112737426Y-90331921D01*
X112885000Y-90608015D01*
X112885000Y-91264421D01*
X112878541Y-91330000D01*
X112896035Y-91507617D01*
X112904317Y-91591705D01*
X112980653Y-91843353D01*
X113104618Y-92075274D01*
X113271445Y-92278555D01*
X113322391Y-92320365D01*
X114099638Y-93097613D01*
X114141445Y-93148555D01*
X114344725Y-93315382D01*
X114576646Y-93439347D01*
X114828294Y-93515683D01*
X115090000Y-93541459D01*
X115155579Y-93535000D01*
X125327026Y-93535000D01*
X126087500Y-94295475D01*
X126087500Y-94658938D01*
X126106817Y-94855065D01*
X126183153Y-95106713D01*
X126307118Y-95338634D01*
X126330578Y-95367220D01*
X126170280Y-95367220D01*
X126006591Y-95383342D01*
X125849193Y-95431088D01*
X125704134Y-95508624D01*
X125576989Y-95612969D01*
X125534288Y-95665000D01*
X121810082Y-95665000D01*
X121719744Y-95574662D01*
X121419199Y-95373844D01*
X121085250Y-95235518D01*
X120730732Y-95165000D01*
X120369268Y-95165000D01*
X120014750Y-95235518D01*
X119680801Y-95373844D01*
X119380256Y-95574662D01*
X119124662Y-95830256D01*
X118923844Y-96130801D01*
X118785518Y-96464750D01*
X118715000Y-96819268D01*
X118715000Y-97180732D01*
X118785518Y-97535250D01*
X118923844Y-97869199D01*
X119124662Y-98169744D01*
X119380256Y-98425338D01*
X119680801Y-98626156D01*
X120014750Y-98764482D01*
X120369268Y-98835000D01*
X120730732Y-98835000D01*
X121085250Y-98764482D01*
X121419199Y-98626156D01*
X121719744Y-98425338D01*
X121810082Y-98335000D01*
X125132973Y-98335000D01*
X125128541Y-98380000D01*
X125154317Y-98641705D01*
X125230654Y-98893354D01*
X125316867Y-99054646D01*
X125354619Y-99125275D01*
X125521446Y-99328555D01*
X125571140Y-99369338D01*
X125571140Y-99945579D01*
X125590457Y-100141706D01*
X125642382Y-100312881D01*
X125652060Y-100411140D01*
X115489115Y-100411140D01*
X114285000Y-99207026D01*
X114285000Y-98260082D01*
X114375338Y-98169744D01*
X114576156Y-97869199D01*
X114714482Y-97535250D01*
X114785000Y-97180732D01*
X114785000Y-96819268D01*
X114714482Y-96464750D01*
X114576156Y-96130801D01*
X114375338Y-95830256D01*
X114119744Y-95574662D01*
X113819199Y-95373844D01*
X113485250Y-95235518D01*
X113130732Y-95165000D01*
X112769268Y-95165000D01*
X112414750Y-95235518D01*
X112080801Y-95373844D01*
X111780256Y-95574662D01*
X111524662Y-95830256D01*
X111323844Y-96130801D01*
X111185518Y-96464750D01*
X111115000Y-96819268D01*
X111115000Y-97180732D01*
X111185518Y-97535250D01*
X111323844Y-97869199D01*
X111524662Y-98169744D01*
X111615001Y-98260083D01*
X111615000Y-99694421D01*
X111608541Y-99760000D01*
X111618288Y-99858960D01*
X111634317Y-100021705D01*
X111710653Y-100273353D01*
X111834618Y-100505274D01*
X112001445Y-100708555D01*
X112052392Y-100750366D01*
X113945779Y-102643753D01*
X113987585Y-102694695D01*
X113993730Y-102699738D01*
X113906934Y-102708287D01*
X113605899Y-102799606D01*
X113328462Y-102947898D01*
X113085287Y-103147467D01*
X112885718Y-103390641D01*
X112737426Y-103668078D01*
X112646107Y-103969113D01*
X112623000Y-104203725D01*
X112623000Y-105036274D01*
X112646107Y-105270886D01*
X112737426Y-105571921D01*
X112885718Y-105849358D01*
X112929883Y-105903173D01*
X112929883Y-106316152D01*
X112924000Y-106375883D01*
X112929883Y-106435614D01*
X112947478Y-106614260D01*
X113017010Y-106843476D01*
X113129924Y-107054724D01*
X113281881Y-107239885D01*
X113328289Y-107277971D01*
X114022994Y-107972677D01*
X114061076Y-108019080D01*
X114246236Y-108171037D01*
X114457484Y-108283951D01*
X114672294Y-108349113D01*
X114686700Y-108353483D01*
X114925077Y-108376961D01*
X114984809Y-108371078D01*
X116346365Y-108371078D01*
X116752885Y-108777599D01*
X116790967Y-108824002D01*
X116976127Y-108975959D01*
X117187375Y-109088873D01*
X117416591Y-109158405D01*
X117487393Y-109165378D01*
X117540426Y-109230000D01*
X117338871Y-109475596D01*
X117168479Y-109794378D01*
X117063552Y-110140277D01*
X117028122Y-110500000D01*
X117063552Y-110859723D01*
X117168479Y-111205622D01*
X117338871Y-111524404D01*
X117568181Y-111803819D01*
X117847596Y-112033129D01*
X118166378Y-112203521D01*
X118512277Y-112308448D01*
X118781861Y-112335000D01*
X118962139Y-112335000D01*
X119231723Y-112308448D01*
X119577622Y-112203521D01*
X119896404Y-112033129D01*
X120137825Y-111835000D01*
X120146175Y-111835000D01*
X120387596Y-112033129D01*
X120706378Y-112203521D01*
X121052277Y-112308448D01*
X121321861Y-112335000D01*
X121502139Y-112335000D01*
X121771723Y-112308448D01*
X122117622Y-112203521D01*
X122436404Y-112033129D01*
X122677825Y-111835000D01*
X122686175Y-111835000D01*
X122927596Y-112033129D01*
X123246378Y-112203521D01*
X123592277Y-112308448D01*
X123861861Y-112335000D01*
X124042139Y-112335000D01*
X124311723Y-112308448D01*
X124657622Y-112203521D01*
X124976404Y-112033129D01*
X125223586Y-111830272D01*
X125371706Y-111815683D01*
X125623354Y-111739347D01*
X125855275Y-111615382D01*
X126058555Y-111448555D01*
X126100365Y-111397609D01*
X126899160Y-110598814D01*
X126988461Y-110672102D01*
X127154200Y-110760690D01*
X127028462Y-110827898D01*
X126785287Y-111027467D01*
X126585718Y-111270641D01*
X126437426Y-111548078D01*
X126346107Y-111849113D01*
X126323000Y-112083725D01*
X126323000Y-112916274D01*
X126346107Y-113150886D01*
X126437426Y-113451921D01*
X126585718Y-113729358D01*
X126785287Y-113972533D01*
X126958882Y-114115000D01*
X115039409Y-114115000D01*
X114271918Y-114046503D01*
X113566853Y-113853619D01*
X112907086Y-113538926D01*
X112313474Y-113112372D01*
X111804777Y-112587438D01*
X111397081Y-111980723D01*
X111103266Y-111311395D01*
X110973295Y-110770023D01*
X111665000Y-110770023D01*
X111665000Y-111229977D01*
X111754733Y-111681094D01*
X111930750Y-112106037D01*
X112186287Y-112488476D01*
X112511524Y-112813713D01*
X112893963Y-113069250D01*
X113318906Y-113245267D01*
X113770023Y-113335000D01*
X114229977Y-113335000D01*
X114681094Y-113245267D01*
X115106037Y-113069250D01*
X115488476Y-112813713D01*
X115813713Y-112488476D01*
X116069250Y-112106037D01*
X116245267Y-111681094D01*
X116335000Y-111229977D01*
X116335000Y-110770023D01*
X116245267Y-110318906D01*
X116069250Y-109893963D01*
X115813713Y-109511524D01*
X115488476Y-109186287D01*
X115106037Y-108930750D01*
X114681094Y-108754733D01*
X114229977Y-108665000D01*
X113770023Y-108665000D01*
X113318906Y-108754733D01*
X112893963Y-108930750D01*
X112511524Y-109186287D01*
X112186287Y-109511524D01*
X111930750Y-109893963D01*
X111754733Y-110318906D01*
X111665000Y-110770023D01*
X110973295Y-110770023D01*
X110930989Y-110593810D01*
X110885000Y-109967554D01*
X110885000Y-80039410D01*
X110953497Y-79271919D01*
X111090800Y-78770023D01*
X111665000Y-78770023D01*
X111665000Y-79229977D01*
X111754733Y-79681094D01*
X111930750Y-80106037D01*
X112186287Y-80488476D01*
X112511524Y-80813713D01*
X112893963Y-81069250D01*
X113318906Y-81245267D01*
X113770023Y-81335000D01*
X114229977Y-81335000D01*
X114681094Y-81245267D01*
X115106037Y-81069250D01*
X115488476Y-80813713D01*
X115813713Y-80488476D01*
X116069250Y-80106037D01*
X116245267Y-79681094D01*
X116335000Y-79229977D01*
X116335000Y-78770023D01*
X116245267Y-78318906D01*
X116069250Y-77893963D01*
X115813713Y-77511524D01*
X115488476Y-77186287D01*
X115434169Y-77150000D01*
X118410960Y-77150000D01*
X118410960Y-79150000D01*
X118427082Y-79313689D01*
X118474828Y-79471087D01*
X118552364Y-79616146D01*
X118656709Y-79743291D01*
X118783854Y-79847636D01*
X118928913Y-79925172D01*
X119086311Y-79972918D01*
X119250000Y-79989040D01*
X121250000Y-79989040D01*
X121413689Y-79972918D01*
X121571087Y-79925172D01*
X121716146Y-79847636D01*
X121843291Y-79743291D01*
X121853920Y-79730339D01*
X122084378Y-79853521D01*
X122430277Y-79958448D01*
X122699861Y-79985000D01*
X122880139Y-79985000D01*
X123149723Y-79958448D01*
X123495622Y-79853521D01*
X123814404Y-79683129D01*
X124093819Y-79453819D01*
X124323129Y-79174404D01*
X124493521Y-78855622D01*
X124598448Y-78509723D01*
X124633878Y-78150000D01*
X124598448Y-77790277D01*
X124493521Y-77444378D01*
X124323129Y-77125596D01*
X124093819Y-76846181D01*
X123814404Y-76616871D01*
X123495622Y-76446479D01*
X123149723Y-76341552D01*
X122880139Y-76315000D01*
X122699861Y-76315000D01*
X122430277Y-76341552D01*
X122084378Y-76446479D01*
X121853920Y-76569661D01*
X121843291Y-76556709D01*
X121716146Y-76452364D01*
X121571087Y-76374828D01*
X121413689Y-76327082D01*
X121250000Y-76310960D01*
X119250000Y-76310960D01*
X119086311Y-76327082D01*
X118928913Y-76374828D01*
X118783854Y-76452364D01*
X118656709Y-76556709D01*
X118552364Y-76683854D01*
X118474828Y-76828913D01*
X118427082Y-76986311D01*
X118410960Y-77150000D01*
X115434169Y-77150000D01*
X115106037Y-76930750D01*
X114681094Y-76754733D01*
X114229977Y-76665000D01*
X113770023Y-76665000D01*
X113318906Y-76754733D01*
X112893963Y-76930750D01*
X112511524Y-77186287D01*
X112186287Y-77511524D01*
X111930750Y-77893963D01*
X111754733Y-78318906D01*
X111665000Y-78770023D01*
X111090800Y-78770023D01*
X111146381Y-78566853D01*
X111461075Y-77907084D01*
X111887628Y-77313473D01*
X112412559Y-76804779D01*
X113019279Y-76397080D01*
X113688605Y-76103266D01*
X114406191Y-75930989D01*
X115032447Y-75885000D01*
X147062409Y-75885000D01*
X146981445Y-75951445D01*
M02*
