G04 #@! TF.GenerationSoftware,KiCad,Pcbnew,(5.1.4)-1*
G04 #@! TF.CreationDate,2020-10-21T23:09:18-03:00*
G04 #@! TF.ProjectId,2020 - Equisdecito,32303230-202d-4204-9571-756973646563,rev?*
G04 #@! TF.SameCoordinates,Original*
G04 #@! TF.FileFunction,Soldermask,Top*
G04 #@! TF.FilePolarity,Negative*
%FSLAX46Y46*%
G04 Gerber Fmt 4.6, Leading zero omitted, Abs format (unit mm)*
G04 Created by KiCad (PCBNEW (5.1.4)-1) date 2020-10-21 23:09:18*
%MOMM*%
%LPD*%
G04 APERTURE LIST*
%ADD10O,1.524000X2.197100*%
%ADD11O,1.524000X2.199640*%
%ADD12C,2.000000*%
%ADD13R,1.524000X2.199640*%
%ADD14O,2.200000X1.750000*%
%ADD15R,2.200000X1.750000*%
%ADD16C,2.500000*%
%ADD17O,2.199640X1.524000*%
%ADD18R,2.199640X1.524000*%
%ADD19O,2.000000X2.000000*%
%ADD20R,2.000000X2.000000*%
%ADD21R,1.524000X1.524000*%
%ADD22C,1.524000*%
%ADD23C,1.501140*%
%ADD24R,1.803400X1.600200*%
%ADD25R,2.400000X1.000000*%
%ADD26R,2.400000X3.800000*%
%ADD27R,1.500000X1.700000*%
%ADD28R,0.850900X0.850900*%
%ADD29R,0.599440X1.000760*%
G04 APERTURE END LIST*
D10*
X149780000Y-104620000D03*
X147240000Y-104620000D03*
X144700000Y-104620000D03*
X142160000Y-104620000D03*
X139620000Y-104620000D03*
X137080000Y-104620000D03*
X134540000Y-104620000D03*
X132000000Y-104620000D03*
X129460000Y-104620000D03*
X126920000Y-104620000D03*
X124380000Y-104620000D03*
D11*
X121840000Y-104620000D03*
X119300000Y-104620000D03*
X116760000Y-104620000D03*
X114220000Y-104620000D03*
X114220000Y-89380000D03*
X116760000Y-89380000D03*
X119300000Y-89380000D03*
X121840000Y-89380000D03*
X124380000Y-89380000D03*
X126920000Y-89380000D03*
X129460000Y-89380000D03*
X132000000Y-89380000D03*
X134540000Y-89380000D03*
X137080000Y-89380000D03*
X139620000Y-89380000D03*
X142160000Y-89380000D03*
X144700000Y-89380000D03*
X147240000Y-89380000D03*
X149780000Y-89380000D03*
D12*
X120550000Y-97000000D03*
X112950000Y-97000000D03*
D11*
X159960000Y-79330000D03*
X157420000Y-79330000D03*
X154880000Y-79330000D03*
X152340000Y-79330000D03*
X149800000Y-79330000D03*
D13*
X147260000Y-79330000D03*
D14*
X159990000Y-94652000D03*
X159990000Y-92112000D03*
X159990000Y-89572000D03*
D15*
X159990000Y-87032000D03*
D14*
X157450000Y-94652000D03*
X157450000Y-92112000D03*
X157450000Y-89572000D03*
D15*
X157450000Y-87032000D03*
D16*
X166878000Y-87228000D03*
X166878000Y-92308000D03*
D17*
X147040000Y-85190000D03*
D18*
X147040000Y-82650000D03*
D19*
X118872000Y-107960000D03*
X118872000Y-110500000D03*
D20*
X118872000Y-113040000D03*
D21*
X158960000Y-101460000D03*
D22*
X158960000Y-99460000D03*
D20*
X128960000Y-78200000D03*
D19*
X131500000Y-78200000D03*
X134040000Y-78200000D03*
D23*
X140716000Y-99568000D03*
X140716000Y-94488000D03*
D11*
X127880000Y-109000000D03*
X130420000Y-109000000D03*
X132960000Y-109000000D03*
X135500000Y-109000000D03*
D13*
X138040000Y-109000000D03*
X138080000Y-112500000D03*
D11*
X135540000Y-112500000D03*
X133000000Y-112500000D03*
X130460000Y-112500000D03*
X127920000Y-112500000D03*
D16*
X166878000Y-102468000D03*
X166878000Y-97388000D03*
D24*
X135280000Y-98967000D03*
X135280000Y-96173000D03*
D25*
X145200000Y-94700000D03*
X145200000Y-97000000D03*
X145200000Y-99300000D03*
D26*
X151650000Y-97000000D03*
D19*
X123952000Y-107960000D03*
X123952000Y-110500000D03*
D20*
X123952000Y-113040000D03*
X141700000Y-113040000D03*
D19*
X141700000Y-110500000D03*
X141700000Y-107960000D03*
X144700000Y-107960000D03*
X144700000Y-110500000D03*
D20*
X144700000Y-113040000D03*
X157460000Y-82590000D03*
D19*
X160000000Y-82590000D03*
X162540000Y-82590000D03*
D20*
X121412000Y-113040000D03*
D19*
X121412000Y-110500000D03*
X121412000Y-107960000D03*
D20*
X143600000Y-76760000D03*
D19*
X143600000Y-79300000D03*
X143600000Y-81840000D03*
X140600000Y-81840000D03*
X140600000Y-79300000D03*
D20*
X140600000Y-76760000D03*
X137600000Y-76760000D03*
D19*
X137600000Y-79300000D03*
X137600000Y-81840000D03*
X125330000Y-78150000D03*
X122790000Y-78150000D03*
D20*
X120250000Y-78150000D03*
D27*
X138176000Y-95582000D03*
X138176000Y-98982000D03*
D28*
X130253860Y-99880000D03*
X126906140Y-99880000D03*
D29*
X127422500Y-94593360D03*
X126470000Y-96706640D03*
X125517500Y-94593360D03*
D24*
X114220000Y-86747000D03*
X114220000Y-83953000D03*
M02*
