G04 #@! TF.GenerationSoftware,KiCad,Pcbnew,(5.1.4)-1*
G04 #@! TF.CreationDate,2020-10-21T23:09:18-03:00*
G04 #@! TF.ProjectId,2020 - Equisdecito,32303230-202d-4204-9571-756973646563,rev?*
G04 #@! TF.SameCoordinates,Original*
G04 #@! TF.FileFunction,Legend,Bot*
G04 #@! TF.FilePolarity,Positive*
%FSLAX46Y46*%
G04 Gerber Fmt 4.6, Leading zero omitted, Abs format (unit mm)*
G04 Created by KiCad (PCBNEW (5.1.4)-1) date 2020-10-21 23:09:18*
%MOMM*%
%LPD*%
G04 APERTURE LIST*
%ADD10C,0.750000*%
%ADD11C,0.254000*%
G04 APERTURE END LIST*
D10*
X146607142Y-93857142D02*
X147607142Y-92428571D01*
X148321428Y-93857142D02*
X148321428Y-90857142D01*
X147178571Y-90857142D01*
X146892857Y-91000000D01*
X146750000Y-91142857D01*
X146607142Y-91428571D01*
X146607142Y-91857142D01*
X146750000Y-92142857D01*
X146892857Y-92285714D01*
X147178571Y-92428571D01*
X148321428Y-92428571D01*
X144750000Y-90857142D02*
X144178571Y-90857142D01*
X143892857Y-91000000D01*
X143607142Y-91285714D01*
X143464285Y-91857142D01*
X143464285Y-92857142D01*
X143607142Y-93428571D01*
X143892857Y-93714285D01*
X144178571Y-93857142D01*
X144750000Y-93857142D01*
X145035714Y-93714285D01*
X145321428Y-93428571D01*
X145464285Y-92857142D01*
X145464285Y-91857142D01*
X145321428Y-91285714D01*
X145035714Y-91000000D01*
X144750000Y-90857142D01*
X141178571Y-92285714D02*
X140750000Y-92428571D01*
X140607142Y-92571428D01*
X140464285Y-92857142D01*
X140464285Y-93285714D01*
X140607142Y-93571428D01*
X140750000Y-93714285D01*
X141035714Y-93857142D01*
X142178571Y-93857142D01*
X142178571Y-90857142D01*
X141178571Y-90857142D01*
X140892857Y-91000000D01*
X140750000Y-91142857D01*
X140607142Y-91428571D01*
X140607142Y-91714285D01*
X140750000Y-92000000D01*
X140892857Y-92142857D01*
X141178571Y-92285714D01*
X142178571Y-92285714D01*
X138607142Y-90857142D02*
X138035714Y-90857142D01*
X137750000Y-91000000D01*
X137464285Y-91285714D01*
X137321428Y-91857142D01*
X137321428Y-92857142D01*
X137464285Y-93428571D01*
X137750000Y-93714285D01*
X138035714Y-93857142D01*
X138607142Y-93857142D01*
X138892857Y-93714285D01*
X139178571Y-93428571D01*
X139321428Y-92857142D01*
X139321428Y-91857142D01*
X139178571Y-91285714D01*
X138892857Y-91000000D01*
X138607142Y-90857142D01*
X136464285Y-90857142D02*
X134750000Y-90857142D01*
X135607142Y-93857142D02*
X135607142Y-90857142D01*
X133750000Y-93857142D02*
X133750000Y-90857142D01*
X130607142Y-93571428D02*
X130750000Y-93714285D01*
X131178571Y-93857142D01*
X131464285Y-93857142D01*
X131892857Y-93714285D01*
X132178571Y-93428571D01*
X132321428Y-93142857D01*
X132464285Y-92571428D01*
X132464285Y-92142857D01*
X132321428Y-91571428D01*
X132178571Y-91285714D01*
X131892857Y-91000000D01*
X131464285Y-90857142D01*
X131178571Y-90857142D01*
X130750000Y-91000000D01*
X130607142Y-91142857D01*
X129464285Y-93000000D02*
X128035714Y-93000000D01*
X129750000Y-93857142D02*
X128750000Y-90857142D01*
X127750000Y-93857142D01*
X147035714Y-96107142D02*
X145321428Y-96107142D01*
X146178571Y-99107142D02*
X146178571Y-96107142D01*
X144321428Y-97535714D02*
X143321428Y-97535714D01*
X142892857Y-99107142D02*
X144321428Y-99107142D01*
X144321428Y-96107142D01*
X142892857Y-96107142D01*
X139892857Y-98821428D02*
X140035714Y-98964285D01*
X140464285Y-99107142D01*
X140750000Y-99107142D01*
X141178571Y-98964285D01*
X141464285Y-98678571D01*
X141607142Y-98392857D01*
X141750000Y-97821428D01*
X141750000Y-97392857D01*
X141607142Y-96821428D01*
X141464285Y-96535714D01*
X141178571Y-96250000D01*
X140750000Y-96107142D01*
X140464285Y-96107142D01*
X140035714Y-96250000D01*
X139892857Y-96392857D01*
X138607142Y-99107142D02*
X138607142Y-96107142D01*
X136892857Y-99107142D01*
X136892857Y-96107142D01*
X135464285Y-99107142D02*
X135464285Y-96107142D01*
X132321428Y-98821428D02*
X132464285Y-98964285D01*
X132892857Y-99107142D01*
X133178571Y-99107142D01*
X133607142Y-98964285D01*
X133892857Y-98678571D01*
X134035714Y-98392857D01*
X134178571Y-97821428D01*
X134178571Y-97392857D01*
X134035714Y-96821428D01*
X133892857Y-96535714D01*
X133607142Y-96250000D01*
X133178571Y-96107142D01*
X132892857Y-96107142D01*
X132464285Y-96250000D01*
X132321428Y-96392857D01*
X131178571Y-98250000D02*
X129750000Y-98250000D01*
X131464285Y-99107142D02*
X130464285Y-96107142D01*
X129464285Y-99107142D01*
X137535714Y-101357142D02*
X138964285Y-101357142D01*
X139107142Y-102785714D01*
X138964285Y-102642857D01*
X138678571Y-102500000D01*
X137964285Y-102500000D01*
X137678571Y-102642857D01*
X137535714Y-102785714D01*
X137392857Y-103071428D01*
X137392857Y-103785714D01*
X137535714Y-104071428D01*
X137678571Y-104214285D01*
X137964285Y-104357142D01*
X138678571Y-104357142D01*
X138964285Y-104214285D01*
X139107142Y-104071428D01*
D11*
X169000000Y-111000000D02*
G75*
G03X169000000Y-111000000I-3000000J0D01*
G01*
X163000000Y-111000000D02*
X169000000Y-111000000D01*
X166000000Y-108000000D02*
X166000000Y-114000000D01*
X169000000Y-79000000D02*
G75*
G03X169000000Y-79000000I-3000000J0D01*
G01*
X163000000Y-79000000D02*
X169000000Y-79000000D01*
X166000000Y-76000000D02*
X166000000Y-82000000D01*
X114000000Y-76000000D02*
X114000000Y-82000000D01*
X111000000Y-79000000D02*
X117000000Y-79000000D01*
X117000000Y-79000000D02*
G75*
G03X117000000Y-79000000I-3000000J0D01*
G01*
X117000000Y-111000000D02*
G75*
G03X117000000Y-111000000I-3000000J0D01*
G01*
X111000000Y-111000000D02*
X117000000Y-111000000D01*
X114000000Y-108000000D02*
X114000000Y-114000000D01*
M02*
