G04 #@! TF.GenerationSoftware,KiCad,Pcbnew,(5.1.4)-1*
G04 #@! TF.CreationDate,2020-10-21T23:09:18-03:00*
G04 #@! TF.ProjectId,2020 - Equisdecito,32303230-202d-4204-9571-756973646563,rev?*
G04 #@! TF.SameCoordinates,Original*
G04 #@! TF.FileFunction,Copper,L2,Bot*
G04 #@! TF.FilePolarity,Positive*
%FSLAX46Y46*%
G04 Gerber Fmt 4.6, Leading zero omitted, Abs format (unit mm)*
G04 Created by KiCad (PCBNEW (5.1.4)-1) date 2020-10-21 23:09:18*
%MOMM*%
%LPD*%
G04 APERTURE LIST*
%ADD10O,1.524000X2.197100*%
%ADD11O,1.524000X2.199640*%
%ADD12C,2.000000*%
%ADD13R,1.524000X2.199640*%
%ADD14O,2.200000X1.750000*%
%ADD15R,2.200000X1.750000*%
%ADD16C,2.500000*%
%ADD17O,2.199640X1.524000*%
%ADD18R,2.199640X1.524000*%
%ADD19O,2.000000X2.000000*%
%ADD20R,2.000000X2.000000*%
%ADD21C,3.000000*%
%ADD22R,1.524000X1.524000*%
%ADD23C,1.524000*%
%ADD24C,1.501140*%
%ADD25C,1.270000*%
%ADD26C,1.000000*%
%ADD27C,0.635000*%
%ADD28C,1.500000*%
%ADD29C,0.762000*%
%ADD30C,0.508000*%
%ADD31C,0.254000*%
G04 APERTURE END LIST*
D10*
X149780000Y-104620000D03*
X147240000Y-104620000D03*
X144700000Y-104620000D03*
X142160000Y-104620000D03*
X139620000Y-104620000D03*
X137080000Y-104620000D03*
X134540000Y-104620000D03*
X132000000Y-104620000D03*
X129460000Y-104620000D03*
X126920000Y-104620000D03*
X124380000Y-104620000D03*
D11*
X121840000Y-104620000D03*
X119300000Y-104620000D03*
X116760000Y-104620000D03*
X114220000Y-104620000D03*
X114220000Y-89380000D03*
X116760000Y-89380000D03*
X119300000Y-89380000D03*
X121840000Y-89380000D03*
X124380000Y-89380000D03*
X126920000Y-89380000D03*
X129460000Y-89380000D03*
X132000000Y-89380000D03*
X134540000Y-89380000D03*
X137080000Y-89380000D03*
X139620000Y-89380000D03*
X142160000Y-89380000D03*
X144700000Y-89380000D03*
X147240000Y-89380000D03*
X149780000Y-89380000D03*
D12*
X120550000Y-97000000D03*
X112950000Y-97000000D03*
D11*
X159960000Y-79330000D03*
X157420000Y-79330000D03*
X154880000Y-79330000D03*
X152340000Y-79330000D03*
X149800000Y-79330000D03*
D13*
X147260000Y-79330000D03*
D14*
X159990000Y-94652000D03*
X159990000Y-92112000D03*
X159990000Y-89572000D03*
D15*
X159990000Y-87032000D03*
D14*
X157450000Y-94652000D03*
X157450000Y-92112000D03*
X157450000Y-89572000D03*
D15*
X157450000Y-87032000D03*
D16*
X166878000Y-87228000D03*
X166878000Y-92308000D03*
D17*
X147040000Y-85190000D03*
D18*
X147040000Y-82650000D03*
D19*
X118872000Y-107960000D03*
X118872000Y-110500000D03*
D20*
X118872000Y-113040000D03*
D21*
X166000000Y-111000000D03*
X166000000Y-79000000D03*
D22*
X158960000Y-101460000D03*
D23*
X158960000Y-99460000D03*
D21*
X114000000Y-79000000D03*
D20*
X128960000Y-78200000D03*
D19*
X131500000Y-78200000D03*
X134040000Y-78200000D03*
D24*
X140716000Y-99568000D03*
X140716000Y-94488000D03*
D11*
X127880000Y-109000000D03*
X130420000Y-109000000D03*
X132960000Y-109000000D03*
X135500000Y-109000000D03*
D13*
X138040000Y-109000000D03*
X138080000Y-112500000D03*
D11*
X135540000Y-112500000D03*
X133000000Y-112500000D03*
X130460000Y-112500000D03*
X127920000Y-112500000D03*
D16*
X166878000Y-102468000D03*
X166878000Y-97388000D03*
D21*
X114000000Y-111000000D03*
D19*
X123952000Y-107960000D03*
X123952000Y-110500000D03*
D20*
X123952000Y-113040000D03*
X141700000Y-113040000D03*
D19*
X141700000Y-110500000D03*
X141700000Y-107960000D03*
X144700000Y-107960000D03*
X144700000Y-110500000D03*
D20*
X144700000Y-113040000D03*
X157460000Y-82590000D03*
D19*
X160000000Y-82590000D03*
X162540000Y-82590000D03*
D20*
X121412000Y-113040000D03*
D19*
X121412000Y-110500000D03*
X121412000Y-107960000D03*
D20*
X143600000Y-76760000D03*
D19*
X143600000Y-79300000D03*
X143600000Y-81840000D03*
X140600000Y-81840000D03*
X140600000Y-79300000D03*
D20*
X140600000Y-76760000D03*
X137600000Y-76760000D03*
D19*
X137600000Y-79300000D03*
X137600000Y-81840000D03*
X125330000Y-78150000D03*
X122790000Y-78150000D03*
D20*
X120250000Y-78150000D03*
D25*
X137000000Y-101750016D03*
D26*
X139620000Y-87960000D02*
X139620000Y-89380000D01*
X140300000Y-87280000D02*
X139620000Y-87960000D01*
X142780000Y-87280000D02*
X140300000Y-87280000D01*
X147040000Y-85190000D02*
X144870000Y-85190000D01*
X144870000Y-85190000D02*
X142780000Y-87280000D01*
D27*
X140065000Y-113040000D02*
X141700000Y-113040000D01*
X139900000Y-112875000D02*
X140065000Y-113040000D01*
X139900000Y-111338038D02*
X139900000Y-112875000D01*
X139339841Y-110777879D02*
X139900000Y-111338038D01*
X135500000Y-109000000D02*
X135500000Y-110140000D01*
X136137879Y-110777879D02*
X139339841Y-110777879D01*
X135500000Y-110140000D02*
X136137879Y-110777879D01*
X135540000Y-111375758D02*
X135540000Y-112500000D01*
X136137879Y-110777879D02*
X135540000Y-111375758D01*
X135500000Y-111335758D02*
X135540000Y-111375758D01*
X135500000Y-110140000D02*
X135500000Y-111335758D01*
D26*
X138237436Y-101750016D02*
X137000000Y-101750016D01*
X148380016Y-101750016D02*
X138237436Y-101750016D01*
X149780000Y-104620000D02*
X149780000Y-103150000D01*
X149780000Y-103150000D02*
X148380016Y-101750016D01*
D28*
X166878000Y-97388000D02*
X166878000Y-102468000D01*
X153220000Y-104620000D02*
X149780000Y-104620000D01*
X156380000Y-101460000D02*
X153220000Y-104620000D01*
X163614000Y-101460000D02*
X156380000Y-101460000D01*
X166878000Y-102468000D02*
X164622000Y-102468000D01*
X164622000Y-102468000D02*
X163614000Y-101460000D01*
D26*
X141710000Y-110510000D02*
X141700000Y-110500000D01*
D29*
X129460000Y-105910000D02*
X129460000Y-104620000D01*
X127880000Y-109000000D02*
X127880000Y-107490000D01*
X127880000Y-107490000D02*
X129460000Y-105910000D01*
D26*
X130420000Y-112460000D02*
X130460000Y-112500000D01*
D29*
X132000000Y-106050000D02*
X132000000Y-104620000D01*
X130420000Y-109000000D02*
X130420000Y-107630000D01*
X130420000Y-107630000D02*
X132000000Y-106050000D01*
D27*
X159990000Y-92112000D02*
X157450000Y-92112000D01*
X132000000Y-100530000D02*
X132000000Y-104620000D01*
X136220000Y-96310000D02*
X132000000Y-100530000D01*
X150940000Y-96310000D02*
X136220000Y-96310000D01*
X157450000Y-92112000D02*
X155138000Y-92112000D01*
X155138000Y-92112000D02*
X150940000Y-96310000D01*
D30*
X132960000Y-108662180D02*
X133000000Y-108622180D01*
X132960000Y-109000000D02*
X132960000Y-108662180D01*
D26*
X133000000Y-109040000D02*
X132960000Y-109000000D01*
D29*
X134540000Y-106030000D02*
X134540000Y-104620000D01*
X133000000Y-108622180D02*
X133000000Y-107570000D01*
X133000000Y-107570000D02*
X134540000Y-106030000D01*
D27*
X159990000Y-94652000D02*
X157450000Y-94652000D01*
X134540000Y-100973894D02*
X134540000Y-104620000D01*
X137933894Y-97580000D02*
X134540000Y-100973894D01*
X152780000Y-97580000D02*
X137933894Y-97580000D01*
X157450000Y-94652000D02*
X155708000Y-94652000D01*
X155708000Y-94652000D02*
X152780000Y-97580000D01*
D29*
X126920000Y-106226550D02*
X126920000Y-104620000D01*
X126170000Y-106976550D02*
X126920000Y-106226550D01*
X126170000Y-111570000D02*
X126170000Y-106976550D01*
X127920000Y-112500000D02*
X127100000Y-112500000D01*
X127100000Y-112500000D02*
X126170000Y-111570000D01*
D27*
X149780000Y-89380000D02*
X149780000Y-79490000D01*
D29*
X124380000Y-106160000D02*
X124380000Y-104620000D01*
X123952000Y-107960000D02*
X123952000Y-106588000D01*
X123952000Y-106588000D02*
X124380000Y-106160000D01*
D30*
X140092180Y-107960000D02*
X139232180Y-107100000D01*
X141700000Y-107960000D02*
X140092180Y-107960000D01*
X139232180Y-107100000D02*
X137700000Y-107100000D01*
X137080000Y-106480000D02*
X137080000Y-104620000D01*
X137700000Y-107100000D02*
X137080000Y-106480000D01*
X139620000Y-105990000D02*
X139620000Y-104620000D01*
X140000000Y-106370000D02*
X139620000Y-105990000D01*
X144020000Y-106370000D02*
X140000000Y-106370000D01*
X144700000Y-107970000D02*
X144700000Y-107050000D01*
X144700000Y-107050000D02*
X144020000Y-106370000D01*
D27*
X137080000Y-89380000D02*
X137080000Y-91260000D01*
X137080000Y-91260000D02*
X137980000Y-92160000D01*
X137980000Y-92160000D02*
X150450000Y-92160000D01*
X150450000Y-92160000D02*
X152580000Y-90030000D01*
X152580000Y-90030000D02*
X152580000Y-86370000D01*
X152580000Y-86370000D02*
X154020000Y-84930000D01*
X154020000Y-84930000D02*
X161638357Y-84930000D01*
X162545009Y-84023348D02*
X162545009Y-82947181D01*
X161638357Y-84930000D02*
X162545009Y-84023348D01*
D26*
X117070000Y-89380000D02*
X116760000Y-89380000D01*
X116800000Y-89110000D02*
X117070000Y-89380000D01*
X116760000Y-87040000D02*
X116760000Y-89380000D01*
X120250000Y-78150000D02*
X120250000Y-83550000D01*
X120250000Y-83550000D02*
X116760000Y-87040000D01*
X121840000Y-89042180D02*
X121840000Y-89380000D01*
X128960000Y-78200000D02*
X128960000Y-78322180D01*
X122790000Y-78150000D02*
X122790000Y-83510000D01*
X119300000Y-87000000D02*
X119300000Y-89380000D01*
X122790000Y-83510000D02*
X119300000Y-87000000D01*
D29*
X121840000Y-106240000D02*
X121840000Y-104620000D01*
X121850000Y-106250000D02*
X121840000Y-106240000D01*
X121412000Y-107960000D02*
X121412000Y-106688000D01*
X121412000Y-106688000D02*
X121850000Y-106250000D01*
D26*
X134540000Y-87100000D02*
X134540000Y-89380000D01*
X135880000Y-85760000D02*
X134540000Y-87100000D01*
X141094213Y-85760000D02*
X135880000Y-85760000D01*
X143600000Y-81840000D02*
X143600000Y-83254213D01*
X143600000Y-83254213D02*
X141094213Y-85760000D01*
X126920000Y-85930000D02*
X126920000Y-89380000D01*
X128760000Y-84090000D02*
X126920000Y-85930000D01*
X139724213Y-84090000D02*
X128760000Y-84090000D01*
X140600000Y-81800000D02*
X140600000Y-83214213D01*
X140600000Y-83214213D02*
X139724213Y-84090000D01*
X124380000Y-85180000D02*
X124380000Y-89380000D01*
X137600000Y-81800000D02*
X127760000Y-81800000D01*
X127760000Y-81800000D02*
X124380000Y-85180000D01*
D31*
G36*
X165728081Y-75953497D02*
G01*
X166433147Y-76146381D01*
X167092916Y-76461075D01*
X167686527Y-76887628D01*
X168195221Y-77412559D01*
X168602920Y-78019279D01*
X168896734Y-78688605D01*
X169069011Y-79406191D01*
X169115000Y-80032447D01*
X169115001Y-109960579D01*
X169046503Y-110728082D01*
X168853619Y-111433147D01*
X168538926Y-112092914D01*
X168112372Y-112686526D01*
X167587438Y-113195223D01*
X166980723Y-113602919D01*
X166311395Y-113896734D01*
X165593810Y-114069011D01*
X164967554Y-114115000D01*
X139499395Y-114115000D01*
X139539636Y-114065966D01*
X139617172Y-113920907D01*
X139664918Y-113763509D01*
X139681040Y-113599820D01*
X139681040Y-111400180D01*
X139664918Y-111236491D01*
X139617172Y-111079093D01*
X139539636Y-110934034D01*
X139435291Y-110806889D01*
X139345971Y-110733586D01*
X139395291Y-110693111D01*
X139499636Y-110565966D01*
X139577172Y-110420907D01*
X139624918Y-110263509D01*
X139641040Y-110099820D01*
X139641040Y-108953665D01*
X139665747Y-108966871D01*
X139673421Y-108970973D01*
X139878699Y-109033243D01*
X140038683Y-109049000D01*
X140038685Y-109049000D01*
X140092180Y-109054269D01*
X140145675Y-109049000D01*
X140219884Y-109049000D01*
X140368426Y-109230000D01*
X140166871Y-109475596D01*
X139996479Y-109794378D01*
X139891552Y-110140277D01*
X139856122Y-110500000D01*
X139891552Y-110859723D01*
X139996479Y-111205622D01*
X140166871Y-111524404D01*
X140396181Y-111803819D01*
X140675596Y-112033129D01*
X140994378Y-112203521D01*
X141340277Y-112308448D01*
X141609861Y-112335000D01*
X141790139Y-112335000D01*
X142059723Y-112308448D01*
X142405622Y-112203521D01*
X142724404Y-112033129D01*
X143003819Y-111803819D01*
X143200000Y-111564772D01*
X143396181Y-111803819D01*
X143675596Y-112033129D01*
X143994378Y-112203521D01*
X144340277Y-112308448D01*
X144609861Y-112335000D01*
X144790139Y-112335000D01*
X145059723Y-112308448D01*
X145405622Y-112203521D01*
X145724404Y-112033129D01*
X146003819Y-111803819D01*
X146233129Y-111524404D01*
X146403521Y-111205622D01*
X146508448Y-110859723D01*
X146517282Y-110770023D01*
X163665000Y-110770023D01*
X163665000Y-111229977D01*
X163754733Y-111681094D01*
X163930750Y-112106037D01*
X164186287Y-112488476D01*
X164511524Y-112813713D01*
X164893963Y-113069250D01*
X165318906Y-113245267D01*
X165770023Y-113335000D01*
X166229977Y-113335000D01*
X166681094Y-113245267D01*
X167106037Y-113069250D01*
X167488476Y-112813713D01*
X167813713Y-112488476D01*
X168069250Y-112106037D01*
X168245267Y-111681094D01*
X168335000Y-111229977D01*
X168335000Y-110770023D01*
X168245267Y-110318906D01*
X168069250Y-109893963D01*
X167813713Y-109511524D01*
X167488476Y-109186287D01*
X167106037Y-108930750D01*
X166681094Y-108754733D01*
X166229977Y-108665000D01*
X165770023Y-108665000D01*
X165318906Y-108754733D01*
X164893963Y-108930750D01*
X164511524Y-109186287D01*
X164186287Y-109511524D01*
X163930750Y-109893963D01*
X163754733Y-110318906D01*
X163665000Y-110770023D01*
X146517282Y-110770023D01*
X146543878Y-110500000D01*
X146508448Y-110140277D01*
X146403521Y-109794378D01*
X146233129Y-109475596D01*
X146031574Y-109230000D01*
X146233129Y-108984404D01*
X146403521Y-108665622D01*
X146508448Y-108319723D01*
X146543878Y-107960000D01*
X146508448Y-107600277D01*
X146403521Y-107254378D01*
X146233129Y-106935596D01*
X146003819Y-106656181D01*
X145724404Y-106426871D01*
X145530715Y-106323342D01*
X145591538Y-106290832D01*
X145834713Y-106091263D01*
X146034282Y-105848089D01*
X146182574Y-105570652D01*
X146273893Y-105269617D01*
X146297000Y-105035005D01*
X146297000Y-104204996D01*
X146273893Y-103970384D01*
X146182574Y-103669348D01*
X146034282Y-103391911D01*
X145834713Y-103148737D01*
X145757069Y-103085016D01*
X147827042Y-103085016D01*
X148337117Y-103595091D01*
X148297426Y-103669348D01*
X148206107Y-103970383D01*
X148183000Y-104204995D01*
X148183000Y-105035004D01*
X148206107Y-105269616D01*
X148297426Y-105570651D01*
X148445718Y-105848088D01*
X148645287Y-106091263D01*
X148888461Y-106290832D01*
X149165898Y-106439124D01*
X149466933Y-106530443D01*
X149780000Y-106561277D01*
X150093066Y-106530443D01*
X150394101Y-106439124D01*
X150671538Y-106290832D01*
X150776124Y-106205000D01*
X153142144Y-106205000D01*
X153220000Y-106212668D01*
X153297856Y-106205000D01*
X153297864Y-106205000D01*
X153530714Y-106182066D01*
X153829488Y-106091434D01*
X154104839Y-105944256D01*
X154346187Y-105746187D01*
X154395824Y-105685704D01*
X157036528Y-103045000D01*
X158035144Y-103045000D01*
X158198000Y-103061040D01*
X159722000Y-103061040D01*
X159884856Y-103045000D01*
X162957472Y-103045000D01*
X163446176Y-103533704D01*
X163495813Y-103594187D01*
X163737161Y-103792256D01*
X164012512Y-103939434D01*
X164311286Y-104030066D01*
X164544136Y-104053000D01*
X164544145Y-104053000D01*
X164621999Y-104060668D01*
X164699853Y-104053000D01*
X165514365Y-104053000D01*
X165548890Y-104087525D01*
X165890382Y-104315703D01*
X166269828Y-104472874D01*
X166672645Y-104553000D01*
X167083355Y-104553000D01*
X167486172Y-104472874D01*
X167865618Y-104315703D01*
X168207110Y-104087525D01*
X168497525Y-103797110D01*
X168725703Y-103455618D01*
X168882874Y-103076172D01*
X168963000Y-102673355D01*
X168963000Y-102262645D01*
X168882874Y-101859828D01*
X168725703Y-101480382D01*
X168497525Y-101138890D01*
X168463000Y-101104365D01*
X168463000Y-98751635D01*
X168497525Y-98717110D01*
X168725703Y-98375618D01*
X168882874Y-97996172D01*
X168963000Y-97593355D01*
X168963000Y-97182645D01*
X168882874Y-96779828D01*
X168725703Y-96400382D01*
X168497525Y-96058890D01*
X168207110Y-95768475D01*
X167865618Y-95540297D01*
X167486172Y-95383126D01*
X167083355Y-95303000D01*
X166672645Y-95303000D01*
X166269828Y-95383126D01*
X165890382Y-95540297D01*
X165548890Y-95768475D01*
X165258475Y-96058890D01*
X165030297Y-96400382D01*
X164873126Y-96779828D01*
X164793000Y-97182645D01*
X164793000Y-97593355D01*
X164873126Y-97996172D01*
X165030297Y-98375618D01*
X165258475Y-98717110D01*
X165293000Y-98751635D01*
X165293001Y-100883000D01*
X165278528Y-100883000D01*
X164789824Y-100394296D01*
X164740187Y-100333813D01*
X164498839Y-100135744D01*
X164223488Y-99988566D01*
X163924714Y-99897934D01*
X163691864Y-99875000D01*
X163691856Y-99875000D01*
X163614000Y-99867332D01*
X163536144Y-99875000D01*
X159884856Y-99875000D01*
X159722000Y-99858960D01*
X158198000Y-99858960D01*
X158035144Y-99875000D01*
X156457864Y-99875000D01*
X156380000Y-99867331D01*
X156069285Y-99897934D01*
X155987221Y-99922828D01*
X155770512Y-99988566D01*
X155495161Y-100135744D01*
X155253813Y-100333813D01*
X155204176Y-100394296D01*
X152563472Y-103035000D01*
X151110132Y-103035000D01*
X151095683Y-102888294D01*
X151019347Y-102636646D01*
X150895382Y-102404725D01*
X150728555Y-102201445D01*
X150677613Y-102159638D01*
X149370382Y-100852408D01*
X149328571Y-100801461D01*
X149125291Y-100634634D01*
X148893370Y-100510669D01*
X148641722Y-100434333D01*
X148445595Y-100415016D01*
X148380016Y-100408557D01*
X148314437Y-100415016D01*
X142056991Y-100415016D01*
X142121114Y-100319049D01*
X142240638Y-100030494D01*
X142301570Y-99724165D01*
X142301570Y-99411835D01*
X142240638Y-99105506D01*
X142121114Y-98816951D01*
X142064686Y-98732500D01*
X152723393Y-98732500D01*
X152780000Y-98738075D01*
X152836607Y-98732500D01*
X152836614Y-98732500D01*
X153005929Y-98715824D01*
X153223176Y-98649923D01*
X153423393Y-98542905D01*
X153598883Y-98398883D01*
X153634975Y-98354905D01*
X156071997Y-95917884D01*
X156270379Y-96080692D01*
X156567445Y-96239477D01*
X156889782Y-96337257D01*
X157141003Y-96362000D01*
X157758997Y-96362000D01*
X158010218Y-96337257D01*
X158332555Y-96239477D01*
X158629621Y-96080692D01*
X158720000Y-96006520D01*
X158810379Y-96080692D01*
X159107445Y-96239477D01*
X159429782Y-96337257D01*
X159681003Y-96362000D01*
X160298997Y-96362000D01*
X160550218Y-96337257D01*
X160872555Y-96239477D01*
X161169621Y-96080692D01*
X161430002Y-95867002D01*
X161643692Y-95606621D01*
X161802477Y-95309555D01*
X161900257Y-94987218D01*
X161933273Y-94652000D01*
X161900257Y-94316782D01*
X161802477Y-93994445D01*
X161643692Y-93697379D01*
X161430002Y-93436998D01*
X161362987Y-93382000D01*
X161430002Y-93327002D01*
X161643692Y-93066621D01*
X161802477Y-92769555D01*
X161900257Y-92447218D01*
X161933273Y-92112000D01*
X161900257Y-91776782D01*
X161802477Y-91454445D01*
X161643692Y-91157379D01*
X161430002Y-90896998D01*
X161362987Y-90842000D01*
X161430002Y-90787002D01*
X161643692Y-90526621D01*
X161802477Y-90229555D01*
X161900257Y-89907218D01*
X161933273Y-89572000D01*
X161900257Y-89236782D01*
X161802477Y-88914445D01*
X161643692Y-88617379D01*
X161430002Y-88356998D01*
X161169621Y-88143308D01*
X160872555Y-87984523D01*
X160550218Y-87886743D01*
X160298997Y-87862000D01*
X159681003Y-87862000D01*
X159429782Y-87886743D01*
X159107445Y-87984523D01*
X158810379Y-88143308D01*
X158720000Y-88217480D01*
X158629621Y-88143308D01*
X158332555Y-87984523D01*
X158010218Y-87886743D01*
X157758997Y-87862000D01*
X157141003Y-87862000D01*
X156889782Y-87886743D01*
X156567445Y-87984523D01*
X156270379Y-88143308D01*
X156009998Y-88356998D01*
X155796308Y-88617379D01*
X155637523Y-88914445D01*
X155539743Y-89236782D01*
X155506727Y-89572000D01*
X155539743Y-89907218D01*
X155637523Y-90229555D01*
X155796308Y-90526621D01*
X156009998Y-90787002D01*
X156077013Y-90842000D01*
X156009998Y-90896998D01*
X155958704Y-90959500D01*
X155194607Y-90959500D01*
X155138000Y-90953925D01*
X155081393Y-90959500D01*
X155081386Y-90959500D01*
X154912071Y-90976176D01*
X154694824Y-91042077D01*
X154586602Y-91099923D01*
X154494607Y-91149095D01*
X154363091Y-91257027D01*
X154363084Y-91257034D01*
X154319117Y-91293117D01*
X154283034Y-91337085D01*
X150462620Y-95157500D01*
X136276606Y-95157500D01*
X136219999Y-95151925D01*
X136163392Y-95157500D01*
X136163386Y-95157500D01*
X136017052Y-95171913D01*
X135994070Y-95174176D01*
X135899473Y-95202872D01*
X135776824Y-95240077D01*
X135576607Y-95347095D01*
X135401117Y-95491117D01*
X135365029Y-95535090D01*
X131225095Y-99675025D01*
X131181117Y-99711117D01*
X131037095Y-99886608D01*
X130930077Y-100086825D01*
X130864176Y-100304072D01*
X130847500Y-100473387D01*
X130847500Y-100473393D01*
X130841925Y-100530000D01*
X130847500Y-100586607D01*
X130847501Y-103170410D01*
X130730000Y-103313584D01*
X130594713Y-103148737D01*
X130351539Y-102949168D01*
X130074102Y-102800876D01*
X129773067Y-102709557D01*
X129460000Y-102678723D01*
X129146934Y-102709557D01*
X128845899Y-102800876D01*
X128568462Y-102949168D01*
X128325287Y-103148737D01*
X128190000Y-103313584D01*
X128054713Y-103148737D01*
X127811539Y-102949168D01*
X127534102Y-102800876D01*
X127233067Y-102709557D01*
X126920000Y-102678723D01*
X126606934Y-102709557D01*
X126305899Y-102800876D01*
X126028462Y-102949168D01*
X125785287Y-103148737D01*
X125650000Y-103313584D01*
X125514713Y-103148737D01*
X125271539Y-102949168D01*
X124994102Y-102800876D01*
X124693067Y-102709557D01*
X124380000Y-102678723D01*
X124066934Y-102709557D01*
X123765899Y-102800876D01*
X123488462Y-102949168D01*
X123245287Y-103148737D01*
X123110521Y-103312949D01*
X122974713Y-103147467D01*
X122731539Y-102947898D01*
X122454102Y-102799606D01*
X122153067Y-102708287D01*
X121840000Y-102677453D01*
X121526934Y-102708287D01*
X121225899Y-102799606D01*
X120948462Y-102947898D01*
X120705287Y-103147467D01*
X120570000Y-103312314D01*
X120434713Y-103147467D01*
X120191539Y-102947898D01*
X119914102Y-102799606D01*
X119613067Y-102708287D01*
X119300000Y-102677453D01*
X118986934Y-102708287D01*
X118685899Y-102799606D01*
X118408462Y-102947898D01*
X118165287Y-103147467D01*
X118030000Y-103312314D01*
X117894713Y-103147467D01*
X117651539Y-102947898D01*
X117374102Y-102799606D01*
X117073067Y-102708287D01*
X116760000Y-102677453D01*
X116446934Y-102708287D01*
X116145899Y-102799606D01*
X115868462Y-102947898D01*
X115625287Y-103147467D01*
X115490000Y-103312314D01*
X115354713Y-103147467D01*
X115111539Y-102947898D01*
X114834102Y-102799606D01*
X114533067Y-102708287D01*
X114220000Y-102677453D01*
X113906934Y-102708287D01*
X113605899Y-102799606D01*
X113328462Y-102947898D01*
X113085287Y-103147467D01*
X112885718Y-103390641D01*
X112737426Y-103668078D01*
X112646107Y-103969113D01*
X112623000Y-104203725D01*
X112623000Y-105036274D01*
X112646107Y-105270886D01*
X112737426Y-105571921D01*
X112885718Y-105849358D01*
X113085287Y-106092533D01*
X113328461Y-106292102D01*
X113605898Y-106440394D01*
X113906933Y-106531713D01*
X114220000Y-106562547D01*
X114533066Y-106531713D01*
X114834101Y-106440394D01*
X115111538Y-106292102D01*
X115354713Y-106092533D01*
X115490000Y-105927686D01*
X115625287Y-106092533D01*
X115868461Y-106292102D01*
X116145898Y-106440394D01*
X116446933Y-106531713D01*
X116760000Y-106562547D01*
X117073066Y-106531713D01*
X117374101Y-106440394D01*
X117651538Y-106292102D01*
X117894713Y-106092533D01*
X118030000Y-105927686D01*
X118165287Y-106092533D01*
X118311437Y-106212476D01*
X118166378Y-106256479D01*
X117847596Y-106426871D01*
X117568181Y-106656181D01*
X117338871Y-106935596D01*
X117168479Y-107254378D01*
X117063552Y-107600277D01*
X117028122Y-107960000D01*
X117063552Y-108319723D01*
X117168479Y-108665622D01*
X117338871Y-108984404D01*
X117540426Y-109230000D01*
X117338871Y-109475596D01*
X117168479Y-109794378D01*
X117063552Y-110140277D01*
X117028122Y-110500000D01*
X117063552Y-110859723D01*
X117168479Y-111205622D01*
X117338871Y-111524404D01*
X117568181Y-111803819D01*
X117847596Y-112033129D01*
X118166378Y-112203521D01*
X118512277Y-112308448D01*
X118781861Y-112335000D01*
X118962139Y-112335000D01*
X119231723Y-112308448D01*
X119577622Y-112203521D01*
X119896404Y-112033129D01*
X120142000Y-111831574D01*
X120387596Y-112033129D01*
X120706378Y-112203521D01*
X121052277Y-112308448D01*
X121321861Y-112335000D01*
X121502139Y-112335000D01*
X121771723Y-112308448D01*
X122117622Y-112203521D01*
X122436404Y-112033129D01*
X122682000Y-111831574D01*
X122927596Y-112033129D01*
X123246378Y-112203521D01*
X123592277Y-112308448D01*
X123861861Y-112335000D01*
X124042139Y-112335000D01*
X124311723Y-112308448D01*
X124657622Y-112203521D01*
X124976404Y-112033129D01*
X125027142Y-111991490D01*
X125041127Y-112037593D01*
X125154041Y-112248841D01*
X125305998Y-112434002D01*
X125352406Y-112472088D01*
X126197920Y-113317604D01*
X126235998Y-113364002D01*
X126421158Y-113515959D01*
X126491852Y-113553746D01*
X126585718Y-113729358D01*
X126785287Y-113972533D01*
X126958882Y-114115000D01*
X115039409Y-114115000D01*
X114271918Y-114046503D01*
X113566853Y-113853619D01*
X112907086Y-113538926D01*
X112313474Y-113112372D01*
X111804777Y-112587438D01*
X111397081Y-111980723D01*
X111103266Y-111311395D01*
X110973295Y-110770023D01*
X111665000Y-110770023D01*
X111665000Y-111229977D01*
X111754733Y-111681094D01*
X111930750Y-112106037D01*
X112186287Y-112488476D01*
X112511524Y-112813713D01*
X112893963Y-113069250D01*
X113318906Y-113245267D01*
X113770023Y-113335000D01*
X114229977Y-113335000D01*
X114681094Y-113245267D01*
X115106037Y-113069250D01*
X115488476Y-112813713D01*
X115813713Y-112488476D01*
X116069250Y-112106037D01*
X116245267Y-111681094D01*
X116335000Y-111229977D01*
X116335000Y-110770023D01*
X116245267Y-110318906D01*
X116069250Y-109893963D01*
X115813713Y-109511524D01*
X115488476Y-109186287D01*
X115106037Y-108930750D01*
X114681094Y-108754733D01*
X114229977Y-108665000D01*
X113770023Y-108665000D01*
X113318906Y-108754733D01*
X112893963Y-108930750D01*
X112511524Y-109186287D01*
X112186287Y-109511524D01*
X111930750Y-109893963D01*
X111754733Y-110318906D01*
X111665000Y-110770023D01*
X110973295Y-110770023D01*
X110930989Y-110593810D01*
X110885000Y-109967554D01*
X110885000Y-96819268D01*
X111115000Y-96819268D01*
X111115000Y-97180732D01*
X111185518Y-97535250D01*
X111323844Y-97869199D01*
X111524662Y-98169744D01*
X111780256Y-98425338D01*
X112080801Y-98626156D01*
X112414750Y-98764482D01*
X112769268Y-98835000D01*
X113130732Y-98835000D01*
X113485250Y-98764482D01*
X113819199Y-98626156D01*
X114119744Y-98425338D01*
X114375338Y-98169744D01*
X114576156Y-97869199D01*
X114714482Y-97535250D01*
X114785000Y-97180732D01*
X114785000Y-96819268D01*
X118715000Y-96819268D01*
X118715000Y-97180732D01*
X118785518Y-97535250D01*
X118923844Y-97869199D01*
X119124662Y-98169744D01*
X119380256Y-98425338D01*
X119680801Y-98626156D01*
X120014750Y-98764482D01*
X120369268Y-98835000D01*
X120730732Y-98835000D01*
X121085250Y-98764482D01*
X121419199Y-98626156D01*
X121719744Y-98425338D01*
X121975338Y-98169744D01*
X122176156Y-97869199D01*
X122314482Y-97535250D01*
X122385000Y-97180732D01*
X122385000Y-96819268D01*
X122314482Y-96464750D01*
X122176156Y-96130801D01*
X121975338Y-95830256D01*
X121719744Y-95574662D01*
X121419199Y-95373844D01*
X121085250Y-95235518D01*
X120730732Y-95165000D01*
X120369268Y-95165000D01*
X120014750Y-95235518D01*
X119680801Y-95373844D01*
X119380256Y-95574662D01*
X119124662Y-95830256D01*
X118923844Y-96130801D01*
X118785518Y-96464750D01*
X118715000Y-96819268D01*
X114785000Y-96819268D01*
X114714482Y-96464750D01*
X114576156Y-96130801D01*
X114375338Y-95830256D01*
X114119744Y-95574662D01*
X113819199Y-95373844D01*
X113485250Y-95235518D01*
X113130732Y-95165000D01*
X112769268Y-95165000D01*
X112414750Y-95235518D01*
X112080801Y-95373844D01*
X111780256Y-95574662D01*
X111524662Y-95830256D01*
X111323844Y-96130801D01*
X111185518Y-96464750D01*
X111115000Y-96819268D01*
X110885000Y-96819268D01*
X110885000Y-88963725D01*
X112623000Y-88963725D01*
X112623000Y-89796274D01*
X112646107Y-90030886D01*
X112737426Y-90331921D01*
X112885718Y-90609358D01*
X113085287Y-90852533D01*
X113328461Y-91052102D01*
X113605898Y-91200394D01*
X113906933Y-91291713D01*
X114220000Y-91322547D01*
X114533066Y-91291713D01*
X114834101Y-91200394D01*
X115111538Y-91052102D01*
X115354713Y-90852533D01*
X115490000Y-90687686D01*
X115625287Y-90852533D01*
X115868461Y-91052102D01*
X116145898Y-91200394D01*
X116446933Y-91291713D01*
X116760000Y-91322547D01*
X117073066Y-91291713D01*
X117374101Y-91200394D01*
X117651538Y-91052102D01*
X117894713Y-90852533D01*
X118030000Y-90687686D01*
X118165287Y-90852533D01*
X118408461Y-91052102D01*
X118685898Y-91200394D01*
X118986933Y-91291713D01*
X119300000Y-91322547D01*
X119613066Y-91291713D01*
X119914101Y-91200394D01*
X120191538Y-91052102D01*
X120434713Y-90852533D01*
X120570000Y-90687686D01*
X120705287Y-90852533D01*
X120948461Y-91052102D01*
X121225898Y-91200394D01*
X121526933Y-91291713D01*
X121840000Y-91322547D01*
X122153066Y-91291713D01*
X122454101Y-91200394D01*
X122731538Y-91052102D01*
X122974713Y-90852533D01*
X123110000Y-90687686D01*
X123245287Y-90852533D01*
X123488461Y-91052102D01*
X123765898Y-91200394D01*
X124066933Y-91291713D01*
X124380000Y-91322547D01*
X124693066Y-91291713D01*
X124994101Y-91200394D01*
X125271538Y-91052102D01*
X125514713Y-90852533D01*
X125650000Y-90687686D01*
X125785287Y-90852533D01*
X126028461Y-91052102D01*
X126305898Y-91200394D01*
X126606933Y-91291713D01*
X126920000Y-91322547D01*
X127233066Y-91291713D01*
X127534101Y-91200394D01*
X127811538Y-91052102D01*
X128054713Y-90852533D01*
X128190000Y-90687686D01*
X128325287Y-90852533D01*
X128568461Y-91052102D01*
X128845898Y-91200394D01*
X129146933Y-91291713D01*
X129460000Y-91322547D01*
X129773066Y-91291713D01*
X130074101Y-91200394D01*
X130351538Y-91052102D01*
X130594713Y-90852533D01*
X130730000Y-90687686D01*
X130865287Y-90852533D01*
X131108461Y-91052102D01*
X131385898Y-91200394D01*
X131686933Y-91291713D01*
X132000000Y-91322547D01*
X132313066Y-91291713D01*
X132614101Y-91200394D01*
X132891538Y-91052102D01*
X133134713Y-90852533D01*
X133270000Y-90687686D01*
X133405287Y-90852533D01*
X133648461Y-91052102D01*
X133925898Y-91200394D01*
X134226933Y-91291713D01*
X134540000Y-91322547D01*
X134853066Y-91291713D01*
X135154101Y-91200394D01*
X135431538Y-91052102D01*
X135674713Y-90852533D01*
X135810000Y-90687686D01*
X135927501Y-90830860D01*
X135927501Y-91203384D01*
X135921925Y-91260000D01*
X135944176Y-91485929D01*
X136010078Y-91703177D01*
X136017372Y-91716823D01*
X136117096Y-91903393D01*
X136261118Y-92078883D01*
X136305090Y-92114971D01*
X137125029Y-92934910D01*
X137161117Y-92978883D01*
X137336607Y-93122905D01*
X137536824Y-93229923D01*
X137650809Y-93264500D01*
X137754070Y-93295824D01*
X137777052Y-93298087D01*
X137923386Y-93312500D01*
X137923392Y-93312500D01*
X137979999Y-93318075D01*
X138036606Y-93312500D01*
X150393393Y-93312500D01*
X150450000Y-93318075D01*
X150506607Y-93312500D01*
X150506614Y-93312500D01*
X150675929Y-93295824D01*
X150893176Y-93229923D01*
X151093393Y-93122905D01*
X151268883Y-92978883D01*
X151304975Y-92934905D01*
X153354911Y-90884970D01*
X153398883Y-90848883D01*
X153542905Y-90673393D01*
X153649923Y-90473176D01*
X153715824Y-90255929D01*
X153732500Y-90086614D01*
X153732500Y-90086607D01*
X153738075Y-90030000D01*
X153732500Y-89973393D01*
X153732500Y-86847380D01*
X154497382Y-86082500D01*
X161581750Y-86082500D01*
X161638357Y-86088075D01*
X161694964Y-86082500D01*
X161694971Y-86082500D01*
X161864286Y-86065824D01*
X162081533Y-85999923D01*
X162281750Y-85892905D01*
X162457240Y-85748883D01*
X162493332Y-85704905D01*
X163319925Y-84878314D01*
X163363892Y-84842231D01*
X163399975Y-84798264D01*
X163399982Y-84798257D01*
X163507914Y-84666741D01*
X163556470Y-84575898D01*
X163614932Y-84466524D01*
X163680833Y-84249277D01*
X163697509Y-84079962D01*
X163697509Y-84079955D01*
X163703084Y-84023348D01*
X163701805Y-84010366D01*
X163843819Y-83893819D01*
X164073129Y-83614404D01*
X164243521Y-83295622D01*
X164348448Y-82949723D01*
X164383878Y-82590000D01*
X164348448Y-82230277D01*
X164243521Y-81884378D01*
X164073129Y-81565596D01*
X163843819Y-81286181D01*
X163564404Y-81056871D01*
X163245622Y-80886479D01*
X162899723Y-80781552D01*
X162630139Y-80755000D01*
X162449861Y-80755000D01*
X162180277Y-80781552D01*
X161834378Y-80886479D01*
X161515596Y-81056871D01*
X161236181Y-81286181D01*
X161006871Y-81565596D01*
X160836479Y-81884378D01*
X160731552Y-82230277D01*
X160696122Y-82590000D01*
X160731552Y-82949723D01*
X160836479Y-83295622D01*
X161006871Y-83614404D01*
X161140720Y-83777500D01*
X159275695Y-83777500D01*
X159282918Y-83753689D01*
X159299040Y-83590000D01*
X159299040Y-81590000D01*
X159282918Y-81426311D01*
X159235172Y-81268913D01*
X159157636Y-81123854D01*
X159053291Y-80996709D01*
X158926146Y-80892364D01*
X158781087Y-80814828D01*
X158623689Y-80767082D01*
X158586790Y-80763448D01*
X158690000Y-80637686D01*
X158825287Y-80802533D01*
X159068462Y-81002102D01*
X159345899Y-81150394D01*
X159646934Y-81241713D01*
X159960000Y-81272547D01*
X160273067Y-81241713D01*
X160574102Y-81150394D01*
X160851539Y-81002102D01*
X161094713Y-80802533D01*
X161294282Y-80559359D01*
X161442574Y-80281922D01*
X161533893Y-79980886D01*
X161557000Y-79746274D01*
X161557000Y-78913725D01*
X161542847Y-78770023D01*
X163665000Y-78770023D01*
X163665000Y-79229977D01*
X163754733Y-79681094D01*
X163930750Y-80106037D01*
X164186287Y-80488476D01*
X164511524Y-80813713D01*
X164893963Y-81069250D01*
X165318906Y-81245267D01*
X165770023Y-81335000D01*
X166229977Y-81335000D01*
X166681094Y-81245267D01*
X167106037Y-81069250D01*
X167488476Y-80813713D01*
X167813713Y-80488476D01*
X168069250Y-80106037D01*
X168245267Y-79681094D01*
X168335000Y-79229977D01*
X168335000Y-78770023D01*
X168245267Y-78318906D01*
X168069250Y-77893963D01*
X167813713Y-77511524D01*
X167488476Y-77186287D01*
X167106037Y-76930750D01*
X166681094Y-76754733D01*
X166229977Y-76665000D01*
X165770023Y-76665000D01*
X165318906Y-76754733D01*
X164893963Y-76930750D01*
X164511524Y-77186287D01*
X164186287Y-77511524D01*
X163930750Y-77893963D01*
X163754733Y-78318906D01*
X163665000Y-78770023D01*
X161542847Y-78770023D01*
X161533893Y-78679113D01*
X161442574Y-78378078D01*
X161294282Y-78100641D01*
X161094713Y-77857467D01*
X160851538Y-77657898D01*
X160574101Y-77509606D01*
X160273066Y-77418287D01*
X159960000Y-77387453D01*
X159646933Y-77418287D01*
X159345898Y-77509606D01*
X159068461Y-77657898D01*
X158825287Y-77857467D01*
X158690000Y-78022314D01*
X158554713Y-77857467D01*
X158311538Y-77657898D01*
X158034101Y-77509606D01*
X157733066Y-77418287D01*
X157420000Y-77387453D01*
X157106933Y-77418287D01*
X156805898Y-77509606D01*
X156528461Y-77657898D01*
X156285287Y-77857467D01*
X156085718Y-78100642D01*
X155937426Y-78378079D01*
X155846107Y-78679114D01*
X155823000Y-78913726D01*
X155823000Y-79746275D01*
X155846107Y-79980887D01*
X155937426Y-80281922D01*
X156085718Y-80559359D01*
X156264190Y-80776826D01*
X156138913Y-80814828D01*
X155993854Y-80892364D01*
X155866709Y-80996709D01*
X155762364Y-81123854D01*
X155684828Y-81268913D01*
X155637082Y-81426311D01*
X155620960Y-81590000D01*
X155620960Y-83590000D01*
X155637082Y-83753689D01*
X155644305Y-83777500D01*
X154076607Y-83777500D01*
X154020000Y-83771925D01*
X153963393Y-83777500D01*
X153963386Y-83777500D01*
X153794071Y-83794176D01*
X153576824Y-83860077D01*
X153481391Y-83911087D01*
X153376607Y-83967095D01*
X153245091Y-84075027D01*
X153245084Y-84075034D01*
X153201117Y-84111117D01*
X153165033Y-84155085D01*
X151805090Y-85515030D01*
X151761118Y-85551117D01*
X151617096Y-85726607D01*
X151577518Y-85800653D01*
X151510078Y-85926823D01*
X151444176Y-86144071D01*
X151421925Y-86370000D01*
X151427501Y-86426616D01*
X151427500Y-89552619D01*
X151377000Y-89603119D01*
X151377000Y-88963726D01*
X151353893Y-88729114D01*
X151262574Y-88428078D01*
X151114282Y-88150641D01*
X150932500Y-87929140D01*
X150932500Y-80804349D01*
X150934713Y-80802533D01*
X151070000Y-80637686D01*
X151205287Y-80802533D01*
X151448462Y-81002102D01*
X151725899Y-81150394D01*
X152026934Y-81241713D01*
X152340000Y-81272547D01*
X152653067Y-81241713D01*
X152954102Y-81150394D01*
X153231539Y-81002102D01*
X153474713Y-80802533D01*
X153674282Y-80559359D01*
X153822574Y-80281922D01*
X153913893Y-79980886D01*
X153937000Y-79746274D01*
X153937000Y-78913725D01*
X153913893Y-78679113D01*
X153822574Y-78378078D01*
X153674282Y-78100641D01*
X153474713Y-77857467D01*
X153231538Y-77657898D01*
X152954101Y-77509606D01*
X152653066Y-77418287D01*
X152340000Y-77387453D01*
X152026933Y-77418287D01*
X151725898Y-77509606D01*
X151448461Y-77657898D01*
X151205287Y-77857467D01*
X151070000Y-78022314D01*
X150934713Y-77857467D01*
X150691538Y-77657898D01*
X150414101Y-77509606D01*
X150113066Y-77418287D01*
X149800000Y-77387453D01*
X149486933Y-77418287D01*
X149185898Y-77509606D01*
X148908461Y-77657898D01*
X148737778Y-77797975D01*
X148719636Y-77764034D01*
X148615291Y-77636889D01*
X148488146Y-77532544D01*
X148343087Y-77455008D01*
X148185689Y-77407262D01*
X148022000Y-77391140D01*
X146498000Y-77391140D01*
X146334311Y-77407262D01*
X146176913Y-77455008D01*
X146031854Y-77532544D01*
X145904709Y-77636889D01*
X145800364Y-77764034D01*
X145722828Y-77909093D01*
X145675082Y-78066491D01*
X145658960Y-78230180D01*
X145658960Y-80429820D01*
X145675082Y-80593509D01*
X145722828Y-80750907D01*
X145800364Y-80895966D01*
X145904709Y-81023111D01*
X146031854Y-81127456D01*
X146176913Y-81204992D01*
X146334311Y-81252738D01*
X146498000Y-81268860D01*
X148022000Y-81268860D01*
X148185689Y-81252738D01*
X148343087Y-81204992D01*
X148488146Y-81127456D01*
X148615291Y-81023111D01*
X148627501Y-81008233D01*
X148627501Y-84195374D01*
X148512533Y-84055287D01*
X148269359Y-83855718D01*
X147991922Y-83707426D01*
X147690887Y-83616107D01*
X147456275Y-83593000D01*
X146623725Y-83593000D01*
X146389113Y-83616107D01*
X146088078Y-83707426D01*
X145811984Y-83855000D01*
X144935575Y-83855000D01*
X144869999Y-83848541D01*
X144804423Y-83855000D01*
X144804421Y-83855000D01*
X144791957Y-83856228D01*
X144839347Y-83767567D01*
X144915683Y-83515919D01*
X144935000Y-83319792D01*
X144941459Y-83254213D01*
X144935000Y-83188634D01*
X144935000Y-83105825D01*
X145133129Y-82864404D01*
X145303521Y-82545622D01*
X145408448Y-82199723D01*
X145443878Y-81840000D01*
X145408448Y-81480277D01*
X145303521Y-81134378D01*
X145133129Y-80815596D01*
X144931574Y-80570000D01*
X145133129Y-80324404D01*
X145303521Y-80005622D01*
X145408448Y-79659723D01*
X145443878Y-79300000D01*
X145408448Y-78940277D01*
X145303521Y-78594378D01*
X145133129Y-78275596D01*
X144903819Y-77996181D01*
X144624404Y-77766871D01*
X144305622Y-77596479D01*
X143959723Y-77491552D01*
X143690139Y-77465000D01*
X143509861Y-77465000D01*
X143240277Y-77491552D01*
X142894378Y-77596479D01*
X142575596Y-77766871D01*
X142296181Y-77996181D01*
X142100000Y-78235228D01*
X141903819Y-77996181D01*
X141624404Y-77766871D01*
X141305622Y-77596479D01*
X140959723Y-77491552D01*
X140690139Y-77465000D01*
X140509861Y-77465000D01*
X140240277Y-77491552D01*
X139894378Y-77596479D01*
X139575596Y-77766871D01*
X139296181Y-77996181D01*
X139100000Y-78235228D01*
X138903819Y-77996181D01*
X138624404Y-77766871D01*
X138305622Y-77596479D01*
X137959723Y-77491552D01*
X137690139Y-77465000D01*
X137509861Y-77465000D01*
X137240277Y-77491552D01*
X136894378Y-77596479D01*
X136575596Y-77766871D01*
X136296181Y-77996181D01*
X136066871Y-78275596D01*
X135896479Y-78594378D01*
X135791552Y-78940277D01*
X135756122Y-79300000D01*
X135791552Y-79659723D01*
X135896479Y-80005622D01*
X136066871Y-80324404D01*
X136182255Y-80465000D01*
X127825579Y-80465000D01*
X127760000Y-80458541D01*
X127694421Y-80465000D01*
X127498294Y-80484317D01*
X127246646Y-80560653D01*
X127014725Y-80684618D01*
X126868436Y-80804674D01*
X126811445Y-80851445D01*
X126769643Y-80902381D01*
X124128119Y-83543906D01*
X124131459Y-83510001D01*
X124125000Y-83444425D01*
X124125000Y-79415825D01*
X124323129Y-79174404D01*
X124493521Y-78855622D01*
X124598448Y-78509723D01*
X124633878Y-78150000D01*
X124598448Y-77790277D01*
X124493521Y-77444378D01*
X124362899Y-77200000D01*
X127120960Y-77200000D01*
X127120960Y-79200000D01*
X127137082Y-79363689D01*
X127184828Y-79521087D01*
X127262364Y-79666146D01*
X127366709Y-79793291D01*
X127493854Y-79897636D01*
X127638913Y-79975172D01*
X127796311Y-80022918D01*
X127960000Y-80039040D01*
X129960000Y-80039040D01*
X130123689Y-80022918D01*
X130281087Y-79975172D01*
X130426146Y-79897636D01*
X130553291Y-79793291D01*
X130563920Y-79780339D01*
X130794378Y-79903521D01*
X131140277Y-80008448D01*
X131409861Y-80035000D01*
X131590139Y-80035000D01*
X131859723Y-80008448D01*
X132205622Y-79903521D01*
X132524404Y-79733129D01*
X132803819Y-79503819D01*
X133033129Y-79224404D01*
X133203521Y-78905622D01*
X133308448Y-78559723D01*
X133343878Y-78200000D01*
X133308448Y-77840277D01*
X133203521Y-77494378D01*
X133033129Y-77175596D01*
X132803819Y-76896181D01*
X132524404Y-76666871D01*
X132205622Y-76496479D01*
X131859723Y-76391552D01*
X131590139Y-76365000D01*
X131409861Y-76365000D01*
X131140277Y-76391552D01*
X130794378Y-76496479D01*
X130563920Y-76619661D01*
X130553291Y-76606709D01*
X130426146Y-76502364D01*
X130281087Y-76424828D01*
X130123689Y-76377082D01*
X129960000Y-76360960D01*
X127960000Y-76360960D01*
X127796311Y-76377082D01*
X127638913Y-76424828D01*
X127493854Y-76502364D01*
X127366709Y-76606709D01*
X127262364Y-76733854D01*
X127184828Y-76878913D01*
X127137082Y-77036311D01*
X127120960Y-77200000D01*
X124362899Y-77200000D01*
X124323129Y-77125596D01*
X124093819Y-76846181D01*
X123814404Y-76616871D01*
X123495622Y-76446479D01*
X123149723Y-76341552D01*
X122880139Y-76315000D01*
X122699861Y-76315000D01*
X122430277Y-76341552D01*
X122084378Y-76446479D01*
X121853920Y-76569661D01*
X121843291Y-76556709D01*
X121716146Y-76452364D01*
X121571087Y-76374828D01*
X121413689Y-76327082D01*
X121250000Y-76310960D01*
X119250000Y-76310960D01*
X119086311Y-76327082D01*
X118928913Y-76374828D01*
X118783854Y-76452364D01*
X118656709Y-76556709D01*
X118552364Y-76683854D01*
X118474828Y-76828913D01*
X118427082Y-76986311D01*
X118410960Y-77150000D01*
X118410960Y-79150000D01*
X118427082Y-79313689D01*
X118474828Y-79471087D01*
X118552364Y-79616146D01*
X118656709Y-79743291D01*
X118783854Y-79847636D01*
X118915000Y-79917735D01*
X118915001Y-82997024D01*
X115862392Y-86049634D01*
X115811445Y-86091445D01*
X115644618Y-86294726D01*
X115520653Y-86526647D01*
X115456451Y-86738294D01*
X115444317Y-86778295D01*
X115418541Y-87040000D01*
X115425000Y-87105579D01*
X115425000Y-87993112D01*
X115354713Y-87907467D01*
X115111539Y-87707898D01*
X114834102Y-87559606D01*
X114533067Y-87468287D01*
X114220000Y-87437453D01*
X113906934Y-87468287D01*
X113605899Y-87559606D01*
X113328462Y-87707898D01*
X113085287Y-87907467D01*
X112885718Y-88150641D01*
X112737426Y-88428078D01*
X112646107Y-88729113D01*
X112623000Y-88963725D01*
X110885000Y-88963725D01*
X110885000Y-80039410D01*
X110953497Y-79271919D01*
X111090800Y-78770023D01*
X111665000Y-78770023D01*
X111665000Y-79229977D01*
X111754733Y-79681094D01*
X111930750Y-80106037D01*
X112186287Y-80488476D01*
X112511524Y-80813713D01*
X112893963Y-81069250D01*
X113318906Y-81245267D01*
X113770023Y-81335000D01*
X114229977Y-81335000D01*
X114681094Y-81245267D01*
X115106037Y-81069250D01*
X115488476Y-80813713D01*
X115813713Y-80488476D01*
X116069250Y-80106037D01*
X116245267Y-79681094D01*
X116335000Y-79229977D01*
X116335000Y-78770023D01*
X116245267Y-78318906D01*
X116069250Y-77893963D01*
X115813713Y-77511524D01*
X115488476Y-77186287D01*
X115106037Y-76930750D01*
X114681094Y-76754733D01*
X114229977Y-76665000D01*
X113770023Y-76665000D01*
X113318906Y-76754733D01*
X112893963Y-76930750D01*
X112511524Y-77186287D01*
X112186287Y-77511524D01*
X111930750Y-77893963D01*
X111754733Y-78318906D01*
X111665000Y-78770023D01*
X111090800Y-78770023D01*
X111146381Y-78566853D01*
X111461075Y-77907084D01*
X111887628Y-77313473D01*
X112412559Y-76804779D01*
X113019279Y-76397080D01*
X113688605Y-76103266D01*
X114406191Y-75930989D01*
X115032447Y-75885000D01*
X164960590Y-75885000D01*
X165728081Y-75953497D01*
X165728081Y-75953497D01*
G37*
X165728081Y-75953497D02*
X166433147Y-76146381D01*
X167092916Y-76461075D01*
X167686527Y-76887628D01*
X168195221Y-77412559D01*
X168602920Y-78019279D01*
X168896734Y-78688605D01*
X169069011Y-79406191D01*
X169115000Y-80032447D01*
X169115001Y-109960579D01*
X169046503Y-110728082D01*
X168853619Y-111433147D01*
X168538926Y-112092914D01*
X168112372Y-112686526D01*
X167587438Y-113195223D01*
X166980723Y-113602919D01*
X166311395Y-113896734D01*
X165593810Y-114069011D01*
X164967554Y-114115000D01*
X139499395Y-114115000D01*
X139539636Y-114065966D01*
X139617172Y-113920907D01*
X139664918Y-113763509D01*
X139681040Y-113599820D01*
X139681040Y-111400180D01*
X139664918Y-111236491D01*
X139617172Y-111079093D01*
X139539636Y-110934034D01*
X139435291Y-110806889D01*
X139345971Y-110733586D01*
X139395291Y-110693111D01*
X139499636Y-110565966D01*
X139577172Y-110420907D01*
X139624918Y-110263509D01*
X139641040Y-110099820D01*
X139641040Y-108953665D01*
X139665747Y-108966871D01*
X139673421Y-108970973D01*
X139878699Y-109033243D01*
X140038683Y-109049000D01*
X140038685Y-109049000D01*
X140092180Y-109054269D01*
X140145675Y-109049000D01*
X140219884Y-109049000D01*
X140368426Y-109230000D01*
X140166871Y-109475596D01*
X139996479Y-109794378D01*
X139891552Y-110140277D01*
X139856122Y-110500000D01*
X139891552Y-110859723D01*
X139996479Y-111205622D01*
X140166871Y-111524404D01*
X140396181Y-111803819D01*
X140675596Y-112033129D01*
X140994378Y-112203521D01*
X141340277Y-112308448D01*
X141609861Y-112335000D01*
X141790139Y-112335000D01*
X142059723Y-112308448D01*
X142405622Y-112203521D01*
X142724404Y-112033129D01*
X143003819Y-111803819D01*
X143200000Y-111564772D01*
X143396181Y-111803819D01*
X143675596Y-112033129D01*
X143994378Y-112203521D01*
X144340277Y-112308448D01*
X144609861Y-112335000D01*
X144790139Y-112335000D01*
X145059723Y-112308448D01*
X145405622Y-112203521D01*
X145724404Y-112033129D01*
X146003819Y-111803819D01*
X146233129Y-111524404D01*
X146403521Y-111205622D01*
X146508448Y-110859723D01*
X146517282Y-110770023D01*
X163665000Y-110770023D01*
X163665000Y-111229977D01*
X163754733Y-111681094D01*
X163930750Y-112106037D01*
X164186287Y-112488476D01*
X164511524Y-112813713D01*
X164893963Y-113069250D01*
X165318906Y-113245267D01*
X165770023Y-113335000D01*
X166229977Y-113335000D01*
X166681094Y-113245267D01*
X167106037Y-113069250D01*
X167488476Y-112813713D01*
X167813713Y-112488476D01*
X168069250Y-112106037D01*
X168245267Y-111681094D01*
X168335000Y-111229977D01*
X168335000Y-110770023D01*
X168245267Y-110318906D01*
X168069250Y-109893963D01*
X167813713Y-109511524D01*
X167488476Y-109186287D01*
X167106037Y-108930750D01*
X166681094Y-108754733D01*
X166229977Y-108665000D01*
X165770023Y-108665000D01*
X165318906Y-108754733D01*
X164893963Y-108930750D01*
X164511524Y-109186287D01*
X164186287Y-109511524D01*
X163930750Y-109893963D01*
X163754733Y-110318906D01*
X163665000Y-110770023D01*
X146517282Y-110770023D01*
X146543878Y-110500000D01*
X146508448Y-110140277D01*
X146403521Y-109794378D01*
X146233129Y-109475596D01*
X146031574Y-109230000D01*
X146233129Y-108984404D01*
X146403521Y-108665622D01*
X146508448Y-108319723D01*
X146543878Y-107960000D01*
X146508448Y-107600277D01*
X146403521Y-107254378D01*
X146233129Y-106935596D01*
X146003819Y-106656181D01*
X145724404Y-106426871D01*
X145530715Y-106323342D01*
X145591538Y-106290832D01*
X145834713Y-106091263D01*
X146034282Y-105848089D01*
X146182574Y-105570652D01*
X146273893Y-105269617D01*
X146297000Y-105035005D01*
X146297000Y-104204996D01*
X146273893Y-103970384D01*
X146182574Y-103669348D01*
X146034282Y-103391911D01*
X145834713Y-103148737D01*
X145757069Y-103085016D01*
X147827042Y-103085016D01*
X148337117Y-103595091D01*
X148297426Y-103669348D01*
X148206107Y-103970383D01*
X148183000Y-104204995D01*
X148183000Y-105035004D01*
X148206107Y-105269616D01*
X148297426Y-105570651D01*
X148445718Y-105848088D01*
X148645287Y-106091263D01*
X148888461Y-106290832D01*
X149165898Y-106439124D01*
X149466933Y-106530443D01*
X149780000Y-106561277D01*
X150093066Y-106530443D01*
X150394101Y-106439124D01*
X150671538Y-106290832D01*
X150776124Y-106205000D01*
X153142144Y-106205000D01*
X153220000Y-106212668D01*
X153297856Y-106205000D01*
X153297864Y-106205000D01*
X153530714Y-106182066D01*
X153829488Y-106091434D01*
X154104839Y-105944256D01*
X154346187Y-105746187D01*
X154395824Y-105685704D01*
X157036528Y-103045000D01*
X158035144Y-103045000D01*
X158198000Y-103061040D01*
X159722000Y-103061040D01*
X159884856Y-103045000D01*
X162957472Y-103045000D01*
X163446176Y-103533704D01*
X163495813Y-103594187D01*
X163737161Y-103792256D01*
X164012512Y-103939434D01*
X164311286Y-104030066D01*
X164544136Y-104053000D01*
X164544145Y-104053000D01*
X164621999Y-104060668D01*
X164699853Y-104053000D01*
X165514365Y-104053000D01*
X165548890Y-104087525D01*
X165890382Y-104315703D01*
X166269828Y-104472874D01*
X166672645Y-104553000D01*
X167083355Y-104553000D01*
X167486172Y-104472874D01*
X167865618Y-104315703D01*
X168207110Y-104087525D01*
X168497525Y-103797110D01*
X168725703Y-103455618D01*
X168882874Y-103076172D01*
X168963000Y-102673355D01*
X168963000Y-102262645D01*
X168882874Y-101859828D01*
X168725703Y-101480382D01*
X168497525Y-101138890D01*
X168463000Y-101104365D01*
X168463000Y-98751635D01*
X168497525Y-98717110D01*
X168725703Y-98375618D01*
X168882874Y-97996172D01*
X168963000Y-97593355D01*
X168963000Y-97182645D01*
X168882874Y-96779828D01*
X168725703Y-96400382D01*
X168497525Y-96058890D01*
X168207110Y-95768475D01*
X167865618Y-95540297D01*
X167486172Y-95383126D01*
X167083355Y-95303000D01*
X166672645Y-95303000D01*
X166269828Y-95383126D01*
X165890382Y-95540297D01*
X165548890Y-95768475D01*
X165258475Y-96058890D01*
X165030297Y-96400382D01*
X164873126Y-96779828D01*
X164793000Y-97182645D01*
X164793000Y-97593355D01*
X164873126Y-97996172D01*
X165030297Y-98375618D01*
X165258475Y-98717110D01*
X165293000Y-98751635D01*
X165293001Y-100883000D01*
X165278528Y-100883000D01*
X164789824Y-100394296D01*
X164740187Y-100333813D01*
X164498839Y-100135744D01*
X164223488Y-99988566D01*
X163924714Y-99897934D01*
X163691864Y-99875000D01*
X163691856Y-99875000D01*
X163614000Y-99867332D01*
X163536144Y-99875000D01*
X159884856Y-99875000D01*
X159722000Y-99858960D01*
X158198000Y-99858960D01*
X158035144Y-99875000D01*
X156457864Y-99875000D01*
X156380000Y-99867331D01*
X156069285Y-99897934D01*
X155987221Y-99922828D01*
X155770512Y-99988566D01*
X155495161Y-100135744D01*
X155253813Y-100333813D01*
X155204176Y-100394296D01*
X152563472Y-103035000D01*
X151110132Y-103035000D01*
X151095683Y-102888294D01*
X151019347Y-102636646D01*
X150895382Y-102404725D01*
X150728555Y-102201445D01*
X150677613Y-102159638D01*
X149370382Y-100852408D01*
X149328571Y-100801461D01*
X149125291Y-100634634D01*
X148893370Y-100510669D01*
X148641722Y-100434333D01*
X148445595Y-100415016D01*
X148380016Y-100408557D01*
X148314437Y-100415016D01*
X142056991Y-100415016D01*
X142121114Y-100319049D01*
X142240638Y-100030494D01*
X142301570Y-99724165D01*
X142301570Y-99411835D01*
X142240638Y-99105506D01*
X142121114Y-98816951D01*
X142064686Y-98732500D01*
X152723393Y-98732500D01*
X152780000Y-98738075D01*
X152836607Y-98732500D01*
X152836614Y-98732500D01*
X153005929Y-98715824D01*
X153223176Y-98649923D01*
X153423393Y-98542905D01*
X153598883Y-98398883D01*
X153634975Y-98354905D01*
X156071997Y-95917884D01*
X156270379Y-96080692D01*
X156567445Y-96239477D01*
X156889782Y-96337257D01*
X157141003Y-96362000D01*
X157758997Y-96362000D01*
X158010218Y-96337257D01*
X158332555Y-96239477D01*
X158629621Y-96080692D01*
X158720000Y-96006520D01*
X158810379Y-96080692D01*
X159107445Y-96239477D01*
X159429782Y-96337257D01*
X159681003Y-96362000D01*
X160298997Y-96362000D01*
X160550218Y-96337257D01*
X160872555Y-96239477D01*
X161169621Y-96080692D01*
X161430002Y-95867002D01*
X161643692Y-95606621D01*
X161802477Y-95309555D01*
X161900257Y-94987218D01*
X161933273Y-94652000D01*
X161900257Y-94316782D01*
X161802477Y-93994445D01*
X161643692Y-93697379D01*
X161430002Y-93436998D01*
X161362987Y-93382000D01*
X161430002Y-93327002D01*
X161643692Y-93066621D01*
X161802477Y-92769555D01*
X161900257Y-92447218D01*
X161933273Y-92112000D01*
X161900257Y-91776782D01*
X161802477Y-91454445D01*
X161643692Y-91157379D01*
X161430002Y-90896998D01*
X161362987Y-90842000D01*
X161430002Y-90787002D01*
X161643692Y-90526621D01*
X161802477Y-90229555D01*
X161900257Y-89907218D01*
X161933273Y-89572000D01*
X161900257Y-89236782D01*
X161802477Y-88914445D01*
X161643692Y-88617379D01*
X161430002Y-88356998D01*
X161169621Y-88143308D01*
X160872555Y-87984523D01*
X160550218Y-87886743D01*
X160298997Y-87862000D01*
X159681003Y-87862000D01*
X159429782Y-87886743D01*
X159107445Y-87984523D01*
X158810379Y-88143308D01*
X158720000Y-88217480D01*
X158629621Y-88143308D01*
X158332555Y-87984523D01*
X158010218Y-87886743D01*
X157758997Y-87862000D01*
X157141003Y-87862000D01*
X156889782Y-87886743D01*
X156567445Y-87984523D01*
X156270379Y-88143308D01*
X156009998Y-88356998D01*
X155796308Y-88617379D01*
X155637523Y-88914445D01*
X155539743Y-89236782D01*
X155506727Y-89572000D01*
X155539743Y-89907218D01*
X155637523Y-90229555D01*
X155796308Y-90526621D01*
X156009998Y-90787002D01*
X156077013Y-90842000D01*
X156009998Y-90896998D01*
X155958704Y-90959500D01*
X155194607Y-90959500D01*
X155138000Y-90953925D01*
X155081393Y-90959500D01*
X155081386Y-90959500D01*
X154912071Y-90976176D01*
X154694824Y-91042077D01*
X154586602Y-91099923D01*
X154494607Y-91149095D01*
X154363091Y-91257027D01*
X154363084Y-91257034D01*
X154319117Y-91293117D01*
X154283034Y-91337085D01*
X150462620Y-95157500D01*
X136276606Y-95157500D01*
X136219999Y-95151925D01*
X136163392Y-95157500D01*
X136163386Y-95157500D01*
X136017052Y-95171913D01*
X135994070Y-95174176D01*
X135899473Y-95202872D01*
X135776824Y-95240077D01*
X135576607Y-95347095D01*
X135401117Y-95491117D01*
X135365029Y-95535090D01*
X131225095Y-99675025D01*
X131181117Y-99711117D01*
X131037095Y-99886608D01*
X130930077Y-100086825D01*
X130864176Y-100304072D01*
X130847500Y-100473387D01*
X130847500Y-100473393D01*
X130841925Y-100530000D01*
X130847500Y-100586607D01*
X130847501Y-103170410D01*
X130730000Y-103313584D01*
X130594713Y-103148737D01*
X130351539Y-102949168D01*
X130074102Y-102800876D01*
X129773067Y-102709557D01*
X129460000Y-102678723D01*
X129146934Y-102709557D01*
X128845899Y-102800876D01*
X128568462Y-102949168D01*
X128325287Y-103148737D01*
X128190000Y-103313584D01*
X128054713Y-103148737D01*
X127811539Y-102949168D01*
X127534102Y-102800876D01*
X127233067Y-102709557D01*
X126920000Y-102678723D01*
X126606934Y-102709557D01*
X126305899Y-102800876D01*
X126028462Y-102949168D01*
X125785287Y-103148737D01*
X125650000Y-103313584D01*
X125514713Y-103148737D01*
X125271539Y-102949168D01*
X124994102Y-102800876D01*
X124693067Y-102709557D01*
X124380000Y-102678723D01*
X124066934Y-102709557D01*
X123765899Y-102800876D01*
X123488462Y-102949168D01*
X123245287Y-103148737D01*
X123110521Y-103312949D01*
X122974713Y-103147467D01*
X122731539Y-102947898D01*
X122454102Y-102799606D01*
X122153067Y-102708287D01*
X121840000Y-102677453D01*
X121526934Y-102708287D01*
X121225899Y-102799606D01*
X120948462Y-102947898D01*
X120705287Y-103147467D01*
X120570000Y-103312314D01*
X120434713Y-103147467D01*
X120191539Y-102947898D01*
X119914102Y-102799606D01*
X119613067Y-102708287D01*
X119300000Y-102677453D01*
X118986934Y-102708287D01*
X118685899Y-102799606D01*
X118408462Y-102947898D01*
X118165287Y-103147467D01*
X118030000Y-103312314D01*
X117894713Y-103147467D01*
X117651539Y-102947898D01*
X117374102Y-102799606D01*
X117073067Y-102708287D01*
X116760000Y-102677453D01*
X116446934Y-102708287D01*
X116145899Y-102799606D01*
X115868462Y-102947898D01*
X115625287Y-103147467D01*
X115490000Y-103312314D01*
X115354713Y-103147467D01*
X115111539Y-102947898D01*
X114834102Y-102799606D01*
X114533067Y-102708287D01*
X114220000Y-102677453D01*
X113906934Y-102708287D01*
X113605899Y-102799606D01*
X113328462Y-102947898D01*
X113085287Y-103147467D01*
X112885718Y-103390641D01*
X112737426Y-103668078D01*
X112646107Y-103969113D01*
X112623000Y-104203725D01*
X112623000Y-105036274D01*
X112646107Y-105270886D01*
X112737426Y-105571921D01*
X112885718Y-105849358D01*
X113085287Y-106092533D01*
X113328461Y-106292102D01*
X113605898Y-106440394D01*
X113906933Y-106531713D01*
X114220000Y-106562547D01*
X114533066Y-106531713D01*
X114834101Y-106440394D01*
X115111538Y-106292102D01*
X115354713Y-106092533D01*
X115490000Y-105927686D01*
X115625287Y-106092533D01*
X115868461Y-106292102D01*
X116145898Y-106440394D01*
X116446933Y-106531713D01*
X116760000Y-106562547D01*
X117073066Y-106531713D01*
X117374101Y-106440394D01*
X117651538Y-106292102D01*
X117894713Y-106092533D01*
X118030000Y-105927686D01*
X118165287Y-106092533D01*
X118311437Y-106212476D01*
X118166378Y-106256479D01*
X117847596Y-106426871D01*
X117568181Y-106656181D01*
X117338871Y-106935596D01*
X117168479Y-107254378D01*
X117063552Y-107600277D01*
X117028122Y-107960000D01*
X117063552Y-108319723D01*
X117168479Y-108665622D01*
X117338871Y-108984404D01*
X117540426Y-109230000D01*
X117338871Y-109475596D01*
X117168479Y-109794378D01*
X117063552Y-110140277D01*
X117028122Y-110500000D01*
X117063552Y-110859723D01*
X117168479Y-111205622D01*
X117338871Y-111524404D01*
X117568181Y-111803819D01*
X117847596Y-112033129D01*
X118166378Y-112203521D01*
X118512277Y-112308448D01*
X118781861Y-112335000D01*
X118962139Y-112335000D01*
X119231723Y-112308448D01*
X119577622Y-112203521D01*
X119896404Y-112033129D01*
X120142000Y-111831574D01*
X120387596Y-112033129D01*
X120706378Y-112203521D01*
X121052277Y-112308448D01*
X121321861Y-112335000D01*
X121502139Y-112335000D01*
X121771723Y-112308448D01*
X122117622Y-112203521D01*
X122436404Y-112033129D01*
X122682000Y-111831574D01*
X122927596Y-112033129D01*
X123246378Y-112203521D01*
X123592277Y-112308448D01*
X123861861Y-112335000D01*
X124042139Y-112335000D01*
X124311723Y-112308448D01*
X124657622Y-112203521D01*
X124976404Y-112033129D01*
X125027142Y-111991490D01*
X125041127Y-112037593D01*
X125154041Y-112248841D01*
X125305998Y-112434002D01*
X125352406Y-112472088D01*
X126197920Y-113317604D01*
X126235998Y-113364002D01*
X126421158Y-113515959D01*
X126491852Y-113553746D01*
X126585718Y-113729358D01*
X126785287Y-113972533D01*
X126958882Y-114115000D01*
X115039409Y-114115000D01*
X114271918Y-114046503D01*
X113566853Y-113853619D01*
X112907086Y-113538926D01*
X112313474Y-113112372D01*
X111804777Y-112587438D01*
X111397081Y-111980723D01*
X111103266Y-111311395D01*
X110973295Y-110770023D01*
X111665000Y-110770023D01*
X111665000Y-111229977D01*
X111754733Y-111681094D01*
X111930750Y-112106037D01*
X112186287Y-112488476D01*
X112511524Y-112813713D01*
X112893963Y-113069250D01*
X113318906Y-113245267D01*
X113770023Y-113335000D01*
X114229977Y-113335000D01*
X114681094Y-113245267D01*
X115106037Y-113069250D01*
X115488476Y-112813713D01*
X115813713Y-112488476D01*
X116069250Y-112106037D01*
X116245267Y-111681094D01*
X116335000Y-111229977D01*
X116335000Y-110770023D01*
X116245267Y-110318906D01*
X116069250Y-109893963D01*
X115813713Y-109511524D01*
X115488476Y-109186287D01*
X115106037Y-108930750D01*
X114681094Y-108754733D01*
X114229977Y-108665000D01*
X113770023Y-108665000D01*
X113318906Y-108754733D01*
X112893963Y-108930750D01*
X112511524Y-109186287D01*
X112186287Y-109511524D01*
X111930750Y-109893963D01*
X111754733Y-110318906D01*
X111665000Y-110770023D01*
X110973295Y-110770023D01*
X110930989Y-110593810D01*
X110885000Y-109967554D01*
X110885000Y-96819268D01*
X111115000Y-96819268D01*
X111115000Y-97180732D01*
X111185518Y-97535250D01*
X111323844Y-97869199D01*
X111524662Y-98169744D01*
X111780256Y-98425338D01*
X112080801Y-98626156D01*
X112414750Y-98764482D01*
X112769268Y-98835000D01*
X113130732Y-98835000D01*
X113485250Y-98764482D01*
X113819199Y-98626156D01*
X114119744Y-98425338D01*
X114375338Y-98169744D01*
X114576156Y-97869199D01*
X114714482Y-97535250D01*
X114785000Y-97180732D01*
X114785000Y-96819268D01*
X118715000Y-96819268D01*
X118715000Y-97180732D01*
X118785518Y-97535250D01*
X118923844Y-97869199D01*
X119124662Y-98169744D01*
X119380256Y-98425338D01*
X119680801Y-98626156D01*
X120014750Y-98764482D01*
X120369268Y-98835000D01*
X120730732Y-98835000D01*
X121085250Y-98764482D01*
X121419199Y-98626156D01*
X121719744Y-98425338D01*
X121975338Y-98169744D01*
X122176156Y-97869199D01*
X122314482Y-97535250D01*
X122385000Y-97180732D01*
X122385000Y-96819268D01*
X122314482Y-96464750D01*
X122176156Y-96130801D01*
X121975338Y-95830256D01*
X121719744Y-95574662D01*
X121419199Y-95373844D01*
X121085250Y-95235518D01*
X120730732Y-95165000D01*
X120369268Y-95165000D01*
X120014750Y-95235518D01*
X119680801Y-95373844D01*
X119380256Y-95574662D01*
X119124662Y-95830256D01*
X118923844Y-96130801D01*
X118785518Y-96464750D01*
X118715000Y-96819268D01*
X114785000Y-96819268D01*
X114714482Y-96464750D01*
X114576156Y-96130801D01*
X114375338Y-95830256D01*
X114119744Y-95574662D01*
X113819199Y-95373844D01*
X113485250Y-95235518D01*
X113130732Y-95165000D01*
X112769268Y-95165000D01*
X112414750Y-95235518D01*
X112080801Y-95373844D01*
X111780256Y-95574662D01*
X111524662Y-95830256D01*
X111323844Y-96130801D01*
X111185518Y-96464750D01*
X111115000Y-96819268D01*
X110885000Y-96819268D01*
X110885000Y-88963725D01*
X112623000Y-88963725D01*
X112623000Y-89796274D01*
X112646107Y-90030886D01*
X112737426Y-90331921D01*
X112885718Y-90609358D01*
X113085287Y-90852533D01*
X113328461Y-91052102D01*
X113605898Y-91200394D01*
X113906933Y-91291713D01*
X114220000Y-91322547D01*
X114533066Y-91291713D01*
X114834101Y-91200394D01*
X115111538Y-91052102D01*
X115354713Y-90852533D01*
X115490000Y-90687686D01*
X115625287Y-90852533D01*
X115868461Y-91052102D01*
X116145898Y-91200394D01*
X116446933Y-91291713D01*
X116760000Y-91322547D01*
X117073066Y-91291713D01*
X117374101Y-91200394D01*
X117651538Y-91052102D01*
X117894713Y-90852533D01*
X118030000Y-90687686D01*
X118165287Y-90852533D01*
X118408461Y-91052102D01*
X118685898Y-91200394D01*
X118986933Y-91291713D01*
X119300000Y-91322547D01*
X119613066Y-91291713D01*
X119914101Y-91200394D01*
X120191538Y-91052102D01*
X120434713Y-90852533D01*
X120570000Y-90687686D01*
X120705287Y-90852533D01*
X120948461Y-91052102D01*
X121225898Y-91200394D01*
X121526933Y-91291713D01*
X121840000Y-91322547D01*
X122153066Y-91291713D01*
X122454101Y-91200394D01*
X122731538Y-91052102D01*
X122974713Y-90852533D01*
X123110000Y-90687686D01*
X123245287Y-90852533D01*
X123488461Y-91052102D01*
X123765898Y-91200394D01*
X124066933Y-91291713D01*
X124380000Y-91322547D01*
X124693066Y-91291713D01*
X124994101Y-91200394D01*
X125271538Y-91052102D01*
X125514713Y-90852533D01*
X125650000Y-90687686D01*
X125785287Y-90852533D01*
X126028461Y-91052102D01*
X126305898Y-91200394D01*
X126606933Y-91291713D01*
X126920000Y-91322547D01*
X127233066Y-91291713D01*
X127534101Y-91200394D01*
X127811538Y-91052102D01*
X128054713Y-90852533D01*
X128190000Y-90687686D01*
X128325287Y-90852533D01*
X128568461Y-91052102D01*
X128845898Y-91200394D01*
X129146933Y-91291713D01*
X129460000Y-91322547D01*
X129773066Y-91291713D01*
X130074101Y-91200394D01*
X130351538Y-91052102D01*
X130594713Y-90852533D01*
X130730000Y-90687686D01*
X130865287Y-90852533D01*
X131108461Y-91052102D01*
X131385898Y-91200394D01*
X131686933Y-91291713D01*
X132000000Y-91322547D01*
X132313066Y-91291713D01*
X132614101Y-91200394D01*
X132891538Y-91052102D01*
X133134713Y-90852533D01*
X133270000Y-90687686D01*
X133405287Y-90852533D01*
X133648461Y-91052102D01*
X133925898Y-91200394D01*
X134226933Y-91291713D01*
X134540000Y-91322547D01*
X134853066Y-91291713D01*
X135154101Y-91200394D01*
X135431538Y-91052102D01*
X135674713Y-90852533D01*
X135810000Y-90687686D01*
X135927501Y-90830860D01*
X135927501Y-91203384D01*
X135921925Y-91260000D01*
X135944176Y-91485929D01*
X136010078Y-91703177D01*
X136017372Y-91716823D01*
X136117096Y-91903393D01*
X136261118Y-92078883D01*
X136305090Y-92114971D01*
X137125029Y-92934910D01*
X137161117Y-92978883D01*
X137336607Y-93122905D01*
X137536824Y-93229923D01*
X137650809Y-93264500D01*
X137754070Y-93295824D01*
X137777052Y-93298087D01*
X137923386Y-93312500D01*
X137923392Y-93312500D01*
X137979999Y-93318075D01*
X138036606Y-93312500D01*
X150393393Y-93312500D01*
X150450000Y-93318075D01*
X150506607Y-93312500D01*
X150506614Y-93312500D01*
X150675929Y-93295824D01*
X150893176Y-93229923D01*
X151093393Y-93122905D01*
X151268883Y-92978883D01*
X151304975Y-92934905D01*
X153354911Y-90884970D01*
X153398883Y-90848883D01*
X153542905Y-90673393D01*
X153649923Y-90473176D01*
X153715824Y-90255929D01*
X153732500Y-90086614D01*
X153732500Y-90086607D01*
X153738075Y-90030000D01*
X153732500Y-89973393D01*
X153732500Y-86847380D01*
X154497382Y-86082500D01*
X161581750Y-86082500D01*
X161638357Y-86088075D01*
X161694964Y-86082500D01*
X161694971Y-86082500D01*
X161864286Y-86065824D01*
X162081533Y-85999923D01*
X162281750Y-85892905D01*
X162457240Y-85748883D01*
X162493332Y-85704905D01*
X163319925Y-84878314D01*
X163363892Y-84842231D01*
X163399975Y-84798264D01*
X163399982Y-84798257D01*
X163507914Y-84666741D01*
X163556470Y-84575898D01*
X163614932Y-84466524D01*
X163680833Y-84249277D01*
X163697509Y-84079962D01*
X163697509Y-84079955D01*
X163703084Y-84023348D01*
X163701805Y-84010366D01*
X163843819Y-83893819D01*
X164073129Y-83614404D01*
X164243521Y-83295622D01*
X164348448Y-82949723D01*
X164383878Y-82590000D01*
X164348448Y-82230277D01*
X164243521Y-81884378D01*
X164073129Y-81565596D01*
X163843819Y-81286181D01*
X163564404Y-81056871D01*
X163245622Y-80886479D01*
X162899723Y-80781552D01*
X162630139Y-80755000D01*
X162449861Y-80755000D01*
X162180277Y-80781552D01*
X161834378Y-80886479D01*
X161515596Y-81056871D01*
X161236181Y-81286181D01*
X161006871Y-81565596D01*
X160836479Y-81884378D01*
X160731552Y-82230277D01*
X160696122Y-82590000D01*
X160731552Y-82949723D01*
X160836479Y-83295622D01*
X161006871Y-83614404D01*
X161140720Y-83777500D01*
X159275695Y-83777500D01*
X159282918Y-83753689D01*
X159299040Y-83590000D01*
X159299040Y-81590000D01*
X159282918Y-81426311D01*
X159235172Y-81268913D01*
X159157636Y-81123854D01*
X159053291Y-80996709D01*
X158926146Y-80892364D01*
X158781087Y-80814828D01*
X158623689Y-80767082D01*
X158586790Y-80763448D01*
X158690000Y-80637686D01*
X158825287Y-80802533D01*
X159068462Y-81002102D01*
X159345899Y-81150394D01*
X159646934Y-81241713D01*
X159960000Y-81272547D01*
X160273067Y-81241713D01*
X160574102Y-81150394D01*
X160851539Y-81002102D01*
X161094713Y-80802533D01*
X161294282Y-80559359D01*
X161442574Y-80281922D01*
X161533893Y-79980886D01*
X161557000Y-79746274D01*
X161557000Y-78913725D01*
X161542847Y-78770023D01*
X163665000Y-78770023D01*
X163665000Y-79229977D01*
X163754733Y-79681094D01*
X163930750Y-80106037D01*
X164186287Y-80488476D01*
X164511524Y-80813713D01*
X164893963Y-81069250D01*
X165318906Y-81245267D01*
X165770023Y-81335000D01*
X166229977Y-81335000D01*
X166681094Y-81245267D01*
X167106037Y-81069250D01*
X167488476Y-80813713D01*
X167813713Y-80488476D01*
X168069250Y-80106037D01*
X168245267Y-79681094D01*
X168335000Y-79229977D01*
X168335000Y-78770023D01*
X168245267Y-78318906D01*
X168069250Y-77893963D01*
X167813713Y-77511524D01*
X167488476Y-77186287D01*
X167106037Y-76930750D01*
X166681094Y-76754733D01*
X166229977Y-76665000D01*
X165770023Y-76665000D01*
X165318906Y-76754733D01*
X164893963Y-76930750D01*
X164511524Y-77186287D01*
X164186287Y-77511524D01*
X163930750Y-77893963D01*
X163754733Y-78318906D01*
X163665000Y-78770023D01*
X161542847Y-78770023D01*
X161533893Y-78679113D01*
X161442574Y-78378078D01*
X161294282Y-78100641D01*
X161094713Y-77857467D01*
X160851538Y-77657898D01*
X160574101Y-77509606D01*
X160273066Y-77418287D01*
X159960000Y-77387453D01*
X159646933Y-77418287D01*
X159345898Y-77509606D01*
X159068461Y-77657898D01*
X158825287Y-77857467D01*
X158690000Y-78022314D01*
X158554713Y-77857467D01*
X158311538Y-77657898D01*
X158034101Y-77509606D01*
X157733066Y-77418287D01*
X157420000Y-77387453D01*
X157106933Y-77418287D01*
X156805898Y-77509606D01*
X156528461Y-77657898D01*
X156285287Y-77857467D01*
X156085718Y-78100642D01*
X155937426Y-78378079D01*
X155846107Y-78679114D01*
X155823000Y-78913726D01*
X155823000Y-79746275D01*
X155846107Y-79980887D01*
X155937426Y-80281922D01*
X156085718Y-80559359D01*
X156264190Y-80776826D01*
X156138913Y-80814828D01*
X155993854Y-80892364D01*
X155866709Y-80996709D01*
X155762364Y-81123854D01*
X155684828Y-81268913D01*
X155637082Y-81426311D01*
X155620960Y-81590000D01*
X155620960Y-83590000D01*
X155637082Y-83753689D01*
X155644305Y-83777500D01*
X154076607Y-83777500D01*
X154020000Y-83771925D01*
X153963393Y-83777500D01*
X153963386Y-83777500D01*
X153794071Y-83794176D01*
X153576824Y-83860077D01*
X153481391Y-83911087D01*
X153376607Y-83967095D01*
X153245091Y-84075027D01*
X153245084Y-84075034D01*
X153201117Y-84111117D01*
X153165033Y-84155085D01*
X151805090Y-85515030D01*
X151761118Y-85551117D01*
X151617096Y-85726607D01*
X151577518Y-85800653D01*
X151510078Y-85926823D01*
X151444176Y-86144071D01*
X151421925Y-86370000D01*
X151427501Y-86426616D01*
X151427500Y-89552619D01*
X151377000Y-89603119D01*
X151377000Y-88963726D01*
X151353893Y-88729114D01*
X151262574Y-88428078D01*
X151114282Y-88150641D01*
X150932500Y-87929140D01*
X150932500Y-80804349D01*
X150934713Y-80802533D01*
X151070000Y-80637686D01*
X151205287Y-80802533D01*
X151448462Y-81002102D01*
X151725899Y-81150394D01*
X152026934Y-81241713D01*
X152340000Y-81272547D01*
X152653067Y-81241713D01*
X152954102Y-81150394D01*
X153231539Y-81002102D01*
X153474713Y-80802533D01*
X153674282Y-80559359D01*
X153822574Y-80281922D01*
X153913893Y-79980886D01*
X153937000Y-79746274D01*
X153937000Y-78913725D01*
X153913893Y-78679113D01*
X153822574Y-78378078D01*
X153674282Y-78100641D01*
X153474713Y-77857467D01*
X153231538Y-77657898D01*
X152954101Y-77509606D01*
X152653066Y-77418287D01*
X152340000Y-77387453D01*
X152026933Y-77418287D01*
X151725898Y-77509606D01*
X151448461Y-77657898D01*
X151205287Y-77857467D01*
X151070000Y-78022314D01*
X150934713Y-77857467D01*
X150691538Y-77657898D01*
X150414101Y-77509606D01*
X150113066Y-77418287D01*
X149800000Y-77387453D01*
X149486933Y-77418287D01*
X149185898Y-77509606D01*
X148908461Y-77657898D01*
X148737778Y-77797975D01*
X148719636Y-77764034D01*
X148615291Y-77636889D01*
X148488146Y-77532544D01*
X148343087Y-77455008D01*
X148185689Y-77407262D01*
X148022000Y-77391140D01*
X146498000Y-77391140D01*
X146334311Y-77407262D01*
X146176913Y-77455008D01*
X146031854Y-77532544D01*
X145904709Y-77636889D01*
X145800364Y-77764034D01*
X145722828Y-77909093D01*
X145675082Y-78066491D01*
X145658960Y-78230180D01*
X145658960Y-80429820D01*
X145675082Y-80593509D01*
X145722828Y-80750907D01*
X145800364Y-80895966D01*
X145904709Y-81023111D01*
X146031854Y-81127456D01*
X146176913Y-81204992D01*
X146334311Y-81252738D01*
X146498000Y-81268860D01*
X148022000Y-81268860D01*
X148185689Y-81252738D01*
X148343087Y-81204992D01*
X148488146Y-81127456D01*
X148615291Y-81023111D01*
X148627501Y-81008233D01*
X148627501Y-84195374D01*
X148512533Y-84055287D01*
X148269359Y-83855718D01*
X147991922Y-83707426D01*
X147690887Y-83616107D01*
X147456275Y-83593000D01*
X146623725Y-83593000D01*
X146389113Y-83616107D01*
X146088078Y-83707426D01*
X145811984Y-83855000D01*
X144935575Y-83855000D01*
X144869999Y-83848541D01*
X144804423Y-83855000D01*
X144804421Y-83855000D01*
X144791957Y-83856228D01*
X144839347Y-83767567D01*
X144915683Y-83515919D01*
X144935000Y-83319792D01*
X144941459Y-83254213D01*
X144935000Y-83188634D01*
X144935000Y-83105825D01*
X145133129Y-82864404D01*
X145303521Y-82545622D01*
X145408448Y-82199723D01*
X145443878Y-81840000D01*
X145408448Y-81480277D01*
X145303521Y-81134378D01*
X145133129Y-80815596D01*
X144931574Y-80570000D01*
X145133129Y-80324404D01*
X145303521Y-80005622D01*
X145408448Y-79659723D01*
X145443878Y-79300000D01*
X145408448Y-78940277D01*
X145303521Y-78594378D01*
X145133129Y-78275596D01*
X144903819Y-77996181D01*
X144624404Y-77766871D01*
X144305622Y-77596479D01*
X143959723Y-77491552D01*
X143690139Y-77465000D01*
X143509861Y-77465000D01*
X143240277Y-77491552D01*
X142894378Y-77596479D01*
X142575596Y-77766871D01*
X142296181Y-77996181D01*
X142100000Y-78235228D01*
X141903819Y-77996181D01*
X141624404Y-77766871D01*
X141305622Y-77596479D01*
X140959723Y-77491552D01*
X140690139Y-77465000D01*
X140509861Y-77465000D01*
X140240277Y-77491552D01*
X139894378Y-77596479D01*
X139575596Y-77766871D01*
X139296181Y-77996181D01*
X139100000Y-78235228D01*
X138903819Y-77996181D01*
X138624404Y-77766871D01*
X138305622Y-77596479D01*
X137959723Y-77491552D01*
X137690139Y-77465000D01*
X137509861Y-77465000D01*
X137240277Y-77491552D01*
X136894378Y-77596479D01*
X136575596Y-77766871D01*
X136296181Y-77996181D01*
X136066871Y-78275596D01*
X135896479Y-78594378D01*
X135791552Y-78940277D01*
X135756122Y-79300000D01*
X135791552Y-79659723D01*
X135896479Y-80005622D01*
X136066871Y-80324404D01*
X136182255Y-80465000D01*
X127825579Y-80465000D01*
X127760000Y-80458541D01*
X127694421Y-80465000D01*
X127498294Y-80484317D01*
X127246646Y-80560653D01*
X127014725Y-80684618D01*
X126868436Y-80804674D01*
X126811445Y-80851445D01*
X126769643Y-80902381D01*
X124128119Y-83543906D01*
X124131459Y-83510001D01*
X124125000Y-83444425D01*
X124125000Y-79415825D01*
X124323129Y-79174404D01*
X124493521Y-78855622D01*
X124598448Y-78509723D01*
X124633878Y-78150000D01*
X124598448Y-77790277D01*
X124493521Y-77444378D01*
X124362899Y-77200000D01*
X127120960Y-77200000D01*
X127120960Y-79200000D01*
X127137082Y-79363689D01*
X127184828Y-79521087D01*
X127262364Y-79666146D01*
X127366709Y-79793291D01*
X127493854Y-79897636D01*
X127638913Y-79975172D01*
X127796311Y-80022918D01*
X127960000Y-80039040D01*
X129960000Y-80039040D01*
X130123689Y-80022918D01*
X130281087Y-79975172D01*
X130426146Y-79897636D01*
X130553291Y-79793291D01*
X130563920Y-79780339D01*
X130794378Y-79903521D01*
X131140277Y-80008448D01*
X131409861Y-80035000D01*
X131590139Y-80035000D01*
X131859723Y-80008448D01*
X132205622Y-79903521D01*
X132524404Y-79733129D01*
X132803819Y-79503819D01*
X133033129Y-79224404D01*
X133203521Y-78905622D01*
X133308448Y-78559723D01*
X133343878Y-78200000D01*
X133308448Y-77840277D01*
X133203521Y-77494378D01*
X133033129Y-77175596D01*
X132803819Y-76896181D01*
X132524404Y-76666871D01*
X132205622Y-76496479D01*
X131859723Y-76391552D01*
X131590139Y-76365000D01*
X131409861Y-76365000D01*
X131140277Y-76391552D01*
X130794378Y-76496479D01*
X130563920Y-76619661D01*
X130553291Y-76606709D01*
X130426146Y-76502364D01*
X130281087Y-76424828D01*
X130123689Y-76377082D01*
X129960000Y-76360960D01*
X127960000Y-76360960D01*
X127796311Y-76377082D01*
X127638913Y-76424828D01*
X127493854Y-76502364D01*
X127366709Y-76606709D01*
X127262364Y-76733854D01*
X127184828Y-76878913D01*
X127137082Y-77036311D01*
X127120960Y-77200000D01*
X124362899Y-77200000D01*
X124323129Y-77125596D01*
X124093819Y-76846181D01*
X123814404Y-76616871D01*
X123495622Y-76446479D01*
X123149723Y-76341552D01*
X122880139Y-76315000D01*
X122699861Y-76315000D01*
X122430277Y-76341552D01*
X122084378Y-76446479D01*
X121853920Y-76569661D01*
X121843291Y-76556709D01*
X121716146Y-76452364D01*
X121571087Y-76374828D01*
X121413689Y-76327082D01*
X121250000Y-76310960D01*
X119250000Y-76310960D01*
X119086311Y-76327082D01*
X118928913Y-76374828D01*
X118783854Y-76452364D01*
X118656709Y-76556709D01*
X118552364Y-76683854D01*
X118474828Y-76828913D01*
X118427082Y-76986311D01*
X118410960Y-77150000D01*
X118410960Y-79150000D01*
X118427082Y-79313689D01*
X118474828Y-79471087D01*
X118552364Y-79616146D01*
X118656709Y-79743291D01*
X118783854Y-79847636D01*
X118915000Y-79917735D01*
X118915001Y-82997024D01*
X115862392Y-86049634D01*
X115811445Y-86091445D01*
X115644618Y-86294726D01*
X115520653Y-86526647D01*
X115456451Y-86738294D01*
X115444317Y-86778295D01*
X115418541Y-87040000D01*
X115425000Y-87105579D01*
X115425000Y-87993112D01*
X115354713Y-87907467D01*
X115111539Y-87707898D01*
X114834102Y-87559606D01*
X114533067Y-87468287D01*
X114220000Y-87437453D01*
X113906934Y-87468287D01*
X113605899Y-87559606D01*
X113328462Y-87707898D01*
X113085287Y-87907467D01*
X112885718Y-88150641D01*
X112737426Y-88428078D01*
X112646107Y-88729113D01*
X112623000Y-88963725D01*
X110885000Y-88963725D01*
X110885000Y-80039410D01*
X110953497Y-79271919D01*
X111090800Y-78770023D01*
X111665000Y-78770023D01*
X111665000Y-79229977D01*
X111754733Y-79681094D01*
X111930750Y-80106037D01*
X112186287Y-80488476D01*
X112511524Y-80813713D01*
X112893963Y-81069250D01*
X113318906Y-81245267D01*
X113770023Y-81335000D01*
X114229977Y-81335000D01*
X114681094Y-81245267D01*
X115106037Y-81069250D01*
X115488476Y-80813713D01*
X115813713Y-80488476D01*
X116069250Y-80106037D01*
X116245267Y-79681094D01*
X116335000Y-79229977D01*
X116335000Y-78770023D01*
X116245267Y-78318906D01*
X116069250Y-77893963D01*
X115813713Y-77511524D01*
X115488476Y-77186287D01*
X115106037Y-76930750D01*
X114681094Y-76754733D01*
X114229977Y-76665000D01*
X113770023Y-76665000D01*
X113318906Y-76754733D01*
X112893963Y-76930750D01*
X112511524Y-77186287D01*
X112186287Y-77511524D01*
X111930750Y-77893963D01*
X111754733Y-78318906D01*
X111665000Y-78770023D01*
X111090800Y-78770023D01*
X111146381Y-78566853D01*
X111461075Y-77907084D01*
X111887628Y-77313473D01*
X112412559Y-76804779D01*
X113019279Y-76397080D01*
X113688605Y-76103266D01*
X114406191Y-75930989D01*
X115032447Y-75885000D01*
X164960590Y-75885000D01*
X165728081Y-75953497D01*
G36*
X143126107Y-88729113D02*
G01*
X143103000Y-88963725D01*
X143103000Y-89796274D01*
X143126107Y-90030886D01*
X143217426Y-90331921D01*
X143365718Y-90609358D01*
X143565287Y-90852533D01*
X143754114Y-91007500D01*
X140565886Y-91007500D01*
X140754713Y-90852533D01*
X140954282Y-90609359D01*
X141102574Y-90331922D01*
X141193893Y-90030887D01*
X141217000Y-89796275D01*
X141217000Y-88963726D01*
X141193893Y-88729114D01*
X141159277Y-88615000D01*
X142714421Y-88615000D01*
X142780000Y-88621459D01*
X142845579Y-88615000D01*
X143041706Y-88595683D01*
X143179239Y-88553963D01*
X143126107Y-88729113D01*
X143126107Y-88729113D01*
G37*
X143126107Y-88729113D02*
X143103000Y-88963725D01*
X143103000Y-89796274D01*
X143126107Y-90030886D01*
X143217426Y-90331921D01*
X143365718Y-90609358D01*
X143565287Y-90852533D01*
X143754114Y-91007500D01*
X140565886Y-91007500D01*
X140754713Y-90852533D01*
X140954282Y-90609359D01*
X141102574Y-90331922D01*
X141193893Y-90030887D01*
X141217000Y-89796275D01*
X141217000Y-88963726D01*
X141193893Y-88729114D01*
X141159277Y-88615000D01*
X142714421Y-88615000D01*
X142780000Y-88621459D01*
X142845579Y-88615000D01*
X143041706Y-88595683D01*
X143179239Y-88553963D01*
X143126107Y-88729113D01*
G36*
X135945287Y-106091263D02*
G01*
X135991000Y-106128779D01*
X135991000Y-106426512D01*
X135985732Y-106480000D01*
X135991000Y-106533487D01*
X135991000Y-106533496D01*
X136006757Y-106693480D01*
X136069027Y-106898758D01*
X136170149Y-107087943D01*
X136306235Y-107253765D01*
X136347791Y-107287869D01*
X136550266Y-107490344D01*
X136502828Y-107579093D01*
X136455082Y-107736491D01*
X136438960Y-107900180D01*
X136438960Y-110099820D01*
X136455082Y-110263509D01*
X136502828Y-110420907D01*
X136580364Y-110565966D01*
X136684709Y-110693111D01*
X136774029Y-110766414D01*
X136724709Y-110806889D01*
X136620364Y-110934034D01*
X136542828Y-111079093D01*
X136495082Y-111236491D01*
X136478960Y-111400180D01*
X136478960Y-113599820D01*
X136495082Y-113763509D01*
X136542828Y-113920907D01*
X136620364Y-114065966D01*
X136660605Y-114115000D01*
X133961117Y-114115000D01*
X134134713Y-113972533D01*
X134334282Y-113729359D01*
X134482574Y-113451922D01*
X134573893Y-113150887D01*
X134597000Y-112916275D01*
X134597000Y-112083726D01*
X134573893Y-111849114D01*
X134482574Y-111548078D01*
X134334282Y-111270641D01*
X134134713Y-111027467D01*
X133891539Y-110827898D01*
X133725800Y-110739310D01*
X133851538Y-110672102D01*
X134094713Y-110472533D01*
X134294282Y-110229359D01*
X134442574Y-109951922D01*
X134533893Y-109650887D01*
X134557000Y-109416275D01*
X134557000Y-108583726D01*
X134533893Y-108349114D01*
X134442574Y-108048078D01*
X134372571Y-107917111D01*
X135357600Y-106932083D01*
X135404002Y-106894002D01*
X135555959Y-106708842D01*
X135668873Y-106497594D01*
X135738405Y-106268378D01*
X135756000Y-106089732D01*
X135756000Y-106089731D01*
X135761883Y-106030000D01*
X135757930Y-105989864D01*
X135810000Y-105926416D01*
X135945287Y-106091263D01*
X135945287Y-106091263D01*
G37*
X135945287Y-106091263D02*
X135991000Y-106128779D01*
X135991000Y-106426512D01*
X135985732Y-106480000D01*
X135991000Y-106533487D01*
X135991000Y-106533496D01*
X136006757Y-106693480D01*
X136069027Y-106898758D01*
X136170149Y-107087943D01*
X136306235Y-107253765D01*
X136347791Y-107287869D01*
X136550266Y-107490344D01*
X136502828Y-107579093D01*
X136455082Y-107736491D01*
X136438960Y-107900180D01*
X136438960Y-110099820D01*
X136455082Y-110263509D01*
X136502828Y-110420907D01*
X136580364Y-110565966D01*
X136684709Y-110693111D01*
X136774029Y-110766414D01*
X136724709Y-110806889D01*
X136620364Y-110934034D01*
X136542828Y-111079093D01*
X136495082Y-111236491D01*
X136478960Y-111400180D01*
X136478960Y-113599820D01*
X136495082Y-113763509D01*
X136542828Y-113920907D01*
X136620364Y-114065966D01*
X136660605Y-114115000D01*
X133961117Y-114115000D01*
X134134713Y-113972533D01*
X134334282Y-113729359D01*
X134482574Y-113451922D01*
X134573893Y-113150887D01*
X134597000Y-112916275D01*
X134597000Y-112083726D01*
X134573893Y-111849114D01*
X134482574Y-111548078D01*
X134334282Y-111270641D01*
X134134713Y-111027467D01*
X133891539Y-110827898D01*
X133725800Y-110739310D01*
X133851538Y-110672102D01*
X134094713Y-110472533D01*
X134294282Y-110229359D01*
X134442574Y-109951922D01*
X134533893Y-109650887D01*
X134557000Y-109416275D01*
X134557000Y-108583726D01*
X134533893Y-108349114D01*
X134442574Y-108048078D01*
X134372571Y-107917111D01*
X135357600Y-106932083D01*
X135404002Y-106894002D01*
X135555959Y-106708842D01*
X135668873Y-106497594D01*
X135738405Y-106268378D01*
X135756000Y-106089732D01*
X135756000Y-106089731D01*
X135761883Y-106030000D01*
X135757930Y-105989864D01*
X135810000Y-105926416D01*
X135945287Y-106091263D01*
M02*
