M48
; DRILL file {KiCad (5.1.4)-1} date 21/10/2020 23:09:21
; FORMAT={-:-/ absolute / metric / decimal}
; #@! TF.CreationDate,2020-10-21T23:09:21-03:00
; #@! TF.GenerationSoftware,Kicad,Pcbnew,(5.1.4)-1
; #@! TF.FileFunction,Plated,1,2,PTH
FMAT,2
METRIC
T1C0.508
T2C0.650
T3C0.800
T4C0.800
T5C0.998
T6C1.000
T7C1.001
T8C1.300
T9C3.000
%
G90
G05
T1
X137.0Y-101.75
T2
X158.96Y-99.46
X158.96Y-101.46
T3
X112.95Y-97.0
X120.55Y-97.0
T4
X140.716Y-94.488
X140.716Y-99.568
T5
X134.54Y-104.62
X137.08Y-104.62
X139.62Y-104.62
X142.16Y-104.62
X144.7Y-104.62
X147.24Y-104.62
X149.78Y-104.62
T6
X144.7Y-107.96
X144.7Y-110.5
X144.7Y-113.04
X157.46Y-82.59
X160.0Y-82.59
X162.54Y-82.59
X121.412Y-107.96
X121.412Y-110.5
X121.412Y-113.04
X137.6Y-76.76
X137.6Y-79.3
X137.6Y-81.84
X123.952Y-107.96
X123.952Y-110.5
X123.952Y-113.04
X118.872Y-107.96
X118.872Y-110.5
X118.872Y-113.04
X128.96Y-78.2
X131.5Y-78.2
X134.04Y-78.2
X140.6Y-76.76
X140.6Y-79.3
X140.6Y-81.84
X120.25Y-78.15
X122.79Y-78.15
X125.33Y-78.15
X143.6Y-76.76
X143.6Y-79.3
X143.6Y-81.84
X141.7Y-107.96
X141.7Y-110.5
X141.7Y-113.04
T7
X147.26Y-79.33
X149.8Y-79.33
X152.34Y-79.33
X154.88Y-79.33
X157.42Y-79.33
X159.96Y-79.33
X127.88Y-109.0
X130.42Y-109.0
X132.96Y-109.0
X135.5Y-109.0
X138.04Y-109.0
X157.45Y-87.032
X157.45Y-89.572
X157.45Y-92.112
X157.45Y-94.652
X147.04Y-82.65
X147.04Y-85.19
X127.92Y-112.5
X130.46Y-112.5
X133.0Y-112.5
X135.54Y-112.5
X138.08Y-112.5
X114.22Y-89.38
X114.22Y-104.62
X116.76Y-89.38
X116.76Y-104.62
X119.3Y-89.38
X119.3Y-104.62
X121.84Y-89.38
X121.84Y-104.62
X124.38Y-89.38
X124.38Y-104.62
X126.92Y-89.38
X126.92Y-104.62
X129.46Y-89.38
X129.46Y-104.62
X132.0Y-89.38
X132.0Y-104.62
X134.54Y-89.38
X137.08Y-89.38
X139.62Y-89.38
X142.16Y-89.38
X144.7Y-89.38
X147.24Y-89.38
X149.78Y-89.38
X159.99Y-87.032
X159.99Y-89.572
X159.99Y-92.112
X159.99Y-94.652
T8
X166.878Y-97.388
X166.878Y-102.468
X166.878Y-87.228
X166.878Y-92.308
T9
X166.0Y-111.0
X114.0Y-79.0
X166.0Y-79.0
X114.0Y-111.0
T0
M30
